<?plantuml 1.2026.1?><svg xmlns="http://www.w3.org/2000/svg" xmlns:xlink="http://www.w3.org/1999/xlink" contentStyleType="text/css" data-diagram-type="SEQUENCE" height="1280px" preserveAspectRatio="none" style="width:1159px;height:1280px;background:#FFFFFF;" version="1.1" viewBox="0 0 1159 1280" width="1159px" zoomAndPan="magnify"><title>Report v2 Pipeline &#8212; Deterministic Run, ValidationBundle, Phase 3 Options (ebb8e37)</title><defs/><g><text fill="#000000" font-family="sans-serif" font-size="14" font-weight="bold" lengthAdjust="spacing" textLength="503.7539" x="328.7236" y="29.5332">Report v2 Pipeline &#8212; Deterministic Run, ValidationBundle, Phase 3 Options</text><rect fill="none" height="168.5938" style="stroke:#000000;stroke-width:1.5;" width="975.4717" x="176.7295" y="215.2734"/><rect fill="none" height="125.7578" style="stroke:#000000;stroke-width:1.5;" width="975.4717" x="176.7295" y="458.5703"/><rect fill="none" height="155.1094" style="stroke:#000000;stroke-width:1.5;" width="747.4146" x="176.7295" y="704.7344"/><rect fill="none" height="108.4063" style="stroke:#000000;stroke-width:1.5;" width="665.0493" x="176.7295" y="873.8438"/><rect fill="none" height="95.4063" style="stroke:#000000;stroke-width:1.5;" width="1142.2012" x="10" y="1086.3047"/><g class="participant-lifeline" data-entity-uid="part1" data-qualified-name="CLI" id="part1-lifeline"><g><title>CLI (ebb8e37)</title><rect fill="#000000" fill-opacity="0.00000" height="1077.4922" width="8" x="29.8931" y="121.2188"/><line style="stroke:#181818;stroke-width:0.5;stroke-dasharray:5,5;" x1="33" x2="33" y1="121.2188" y2="1198.7109"/></g></g><g class="participant-lifeline" data-entity-uid="part2" data-qualified-name="R2" id="part2-lifeline"><g><title>research_report_v2 (ebb8e37)</title><rect fill="#000000" fill-opacity="0.00000" height="1077.4922" width="8" x="250.4292" y="121.2188"/><line style="stroke:#181818;stroke-width:0.5;stroke-dasharray:5,5;" x1="253.7295" x2="253.7295" y1="121.2188" y2="1198.7109"/></g></g><g class="participant-lifeline" data-entity-uid="part3" data-qualified-name="Data" id="part3-lifeline"><g><title>data (ebb8e37)</title><rect fill="#000000" fill-opacity="0.00000" height="1077.4922" width="8" x="457.3218" y="121.2188"/><line style="stroke:#181818;stroke-width:0.5;stroke-dasharray:5,5;" x1="460.6978" x2="460.6978" y1="121.2188" y2="1198.7109"/></g></g><g class="participant-lifeline" data-entity-uid="part4" data-qualified-name="FM" id="part4-lifeline"><g><title>factor_materialize (ebb8e37)</title><rect fill="#000000" fill-opacity="0.00000" height="1077.4922" width="8" x="550.1904" y="121.2188"/><line style="stroke:#181818;stroke-width:0.5;stroke-dasharray:5,5;" x1="553.9458" x2="553.9458" y1="121.2188" y2="1198.7109"/></g></g><g class="participant-lifeline" data-entity-uid="part5" data-qualified-name="Reg" id="part5-lifeline"><g><title>regimes (ebb8e37)</title><rect fill="#000000" fill-opacity="0.00000" height="1077.4922" width="8" x="658.6177" y="121.2188"/><line style="stroke:#181818;stroke-width:0.5;stroke-dasharray:5,5;" x1="662.4351" x2="662.4351" y1="121.2188" y2="1198.7109"/></g></g><g class="participant-lifeline" data-entity-uid="part6" data-qualified-name="VB" id="part6-lifeline"><g><title>validation_bundle (ebb8e37)</title><rect fill="#000000" fill-opacity="0.00000" height="1077.4922" width="8" x="766.2896" y="121.2188"/><line style="stroke:#181818;stroke-width:0.5;stroke-dasharray:5,5;" x1="769.8003" x2="769.8003" y1="121.2188" y2="1198.7109"/></g></g><g class="participant-lifeline" data-entity-uid="part7" data-qualified-name="Sweep" id="part7-lifeline"><g><title>sweeps (ebb8e37)</title><rect fill="#000000" fill-opacity="0.00000" height="1077.4922" width="8" x="873.9614" y="121.2188"/><line style="stroke:#181818;stroke-width:0.5;stroke-dasharray:5,5;" x1="877.7788" x2="877.7788" y1="121.2188" y2="1198.7109"/></g></g><g class="participant-lifeline" data-entity-uid="part8" data-qualified-name="Prom" id="part8-lifeline"><g><title>promotion (ebb8e37)</title><rect fill="#000000" fill-opacity="0.00000" height="1077.4922" width="8" x="958.2715" y="121.2188"/><line style="stroke:#181818;stroke-width:0.5;stroke-dasharray:5,5;" x1="962.144" x2="962.144" y1="121.2188" y2="1198.7109"/></g></g><g class="participant-lifeline" data-entity-uid="part9" data-qualified-name="DB" id="part9-lifeline"><g><title>SQLite (ebb8e37)</title><rect fill="#000000" fill-opacity="0.00000" height="1077.4922" width="8" x="1113.8013" y="121.2188"/><line style="stroke:#181818;stroke-width:0.5;stroke-dasharray:5,5;" x1="1117.4014" x2="1117.4014" y1="121.2188" y2="1198.7109"/></g></g><g class="participant participant-head" data-entity-uid="part1" data-qualified-name="CLI" id="part1-head"><text fill="#000000" font-family="sans-serif" font-size="14" lengthAdjust="spacing" textLength="21.7861" x="20" y="118.1426">CLI</text><ellipse cx="33.8931" cy="52.1094" fill="#E2E2F0" rx="8" ry="8" style="stroke:#181818;stroke-width:0.5;"/><path d="M33.8931,60.1094 L33.8931,87.1094 M20.8931,68.1094 L46.8931,68.1094 M33.8931,87.1094 L20.8931,102.1094 M33.8931,87.1094 L46.8931,102.1094" fill="none" style="stroke:#181818;stroke-width:0.5;"/></g><g class="participant participant-tail" data-entity-uid="part1" data-qualified-name="CLI" id="part1-tail"><text fill="#000000" font-family="sans-serif" font-size="14" lengthAdjust="spacing" textLength="21.7861" x="20" y="1212.2441">CLI</text><ellipse cx="33.8931" cy="1223.8203" fill="#E2E2F0" rx="8" ry="8" style="stroke:#181818;stroke-width:0.5;"/><path d="M33.8931,1231.8203 L33.8931,1258.8203 M20.8931,1239.8203 L46.8931,1239.8203 M33.8931,1258.8203 L20.8931,1273.8203 M33.8931,1258.8203 L46.8931,1273.8203" fill="none" style="stroke:#181818;stroke-width:0.5;"/></g><g class="participant participant-head" data-entity-uid="part2" data-qualified-name="R2" id="part2-head"><rect fill="#E2E2F0" height="31.6094" rx="2.5" ry="2.5" style="stroke:#181818;stroke-width:0.5;" width="135.3994" x="186.7295" y="88.6094"/><text fill="#000000" font-family="sans-serif" font-size="14" lengthAdjust="spacing" textLength="121.3994" x="193.7295" y="110.1426">research_report_v2</text></g><g class="participant participant-tail" data-entity-uid="part2" data-qualified-name="R2" id="part2-tail"><rect fill="#E2E2F0" height="31.6094" rx="2.5" ry="2.5" style="stroke:#181818;stroke-width:0.5;" width="135.3994" x="186.7295" y="1197.7109"/><text fill="#000000" font-family="sans-serif" font-size="14" lengthAdjust="spacing" textLength="121.3994" x="193.7295" y="1219.2441">research_report_v2</text></g><g class="participant participant-head" data-entity-uid="part3" data-qualified-name="Data" id="part3-head"><rect fill="#E2E2F0" height="31.6094" rx="2.5" ry="2.5" style="stroke:#181818;stroke-width:0.5;" width="41.248" x="440.6978" y="88.6094"/><text fill="#000000" font-family="sans-serif" font-size="14" lengthAdjust="spacing" textLength="27.248" x="447.6978" y="110.1426">data</text></g><g class="participant participant-tail" data-entity-uid="part3" data-qualified-name="Data" id="part3-tail"><rect fill="#E2E2F0" height="31.6094" rx="2.5" ry="2.5" style="stroke:#181818;stroke-width:0.5;" width="41.248" x="440.6978" y="1197.7109"/><text fill="#000000" font-family="sans-serif" font-size="14" lengthAdjust="spacing" textLength="27.248" x="447.6978" y="1219.2441">data</text></g><g class="participant participant-head" data-entity-uid="part4" data-qualified-name="FM" id="part4-head"><rect fill="#E2E2F0" height="49.2188" rx="2.5" ry="2.5" style="stroke:#181818;stroke-width:0.5;" width="124.4893" x="491.9458" y="71"/><text fill="#000000" font-family="sans-serif" font-size="14" lengthAdjust="spacing" textLength="110.4893" x="498.9458" y="92.5332">factor_materialize</text><text fill="#000000" font-family="sans-serif" font-size="14" lengthAdjust="spacing" textLength="106.6133" x="500.8838" y="110.1426">(load_factor_run)</text></g><g class="participant participant-tail" data-entity-uid="part4" data-qualified-name="FM" id="part4-tail"><rect fill="#E2E2F0" height="49.2188" rx="2.5" ry="2.5" style="stroke:#181818;stroke-width:0.5;" width="124.4893" x="491.9458" y="1197.7109"/><text fill="#000000" font-family="sans-serif" font-size="14" lengthAdjust="spacing" textLength="110.4893" x="498.9458" y="1219.2441">factor_materialize</text><text fill="#000000" font-family="sans-serif" font-size="14" lengthAdjust="spacing" textLength="106.6133" x="500.8838" y="1236.8535">(load_factor_run)</text></g><g class="participant participant-head" data-entity-uid="part5" data-qualified-name="Reg" id="part5-head"><rect fill="#E2E2F0" height="49.2188" rx="2.5" ry="2.5" style="stroke:#181818;stroke-width:0.5;" width="72.3652" x="626.4351" y="71"/><text fill="#000000" font-family="sans-serif" font-size="14" lengthAdjust="spacing" textLength="49.793" x="637.7212" y="92.5332">regimes</text><text fill="#000000" font-family="sans-serif" font-size="14" lengthAdjust="spacing" textLength="58.3652" x="633.4351" y="110.1426">(optional)</text></g><g class="participant participant-tail" data-entity-uid="part5" data-qualified-name="Reg" id="part5-tail"><rect fill="#E2E2F0" height="49.2188" rx="2.5" ry="2.5" style="stroke:#181818;stroke-width:0.5;" width="72.3652" x="626.4351" y="1197.7109"/><text fill="#000000" font-family="sans-serif" font-size="14" lengthAdjust="spacing" textLength="49.793" x="637.7212" y="1219.2441">regimes</text><text fill="#000000" font-family="sans-serif" font-size="14" lengthAdjust="spacing" textLength="58.3652" x="633.4351" y="1236.8535">(optional)</text></g><g class="participant participant-head" data-entity-uid="part6" data-qualified-name="VB" id="part6-head"><rect fill="#E2E2F0" height="31.6094" rx="2.5" ry="2.5" style="stroke:#181818;stroke-width:0.5;" width="122.9785" x="708.8003" y="88.6094"/><text fill="#000000" font-family="sans-serif" font-size="14" lengthAdjust="spacing" textLength="108.9785" x="715.8003" y="110.1426">validation_bundle</text></g><g class="participant participant-tail" data-entity-uid="part6" data-qualified-name="VB" id="part6-tail"><rect fill="#E2E2F0" height="31.6094" rx="2.5" ry="2.5" style="stroke:#181818;stroke-width:0.5;" width="122.9785" x="708.8003" y="1197.7109"/><text fill="#000000" font-family="sans-serif" font-size="14" lengthAdjust="spacing" textLength="108.9785" x="715.8003" y="1219.2441">validation_bundle</text></g><g class="participant participant-head" data-entity-uid="part7" data-qualified-name="Sweep" id="part7-head"><rect fill="#E2E2F0" height="49.2188" rx="2.5" ry="2.5" style="stroke:#181818;stroke-width:0.5;" width="72.3652" x="841.7788" y="71"/><text fill="#000000" font-family="sans-serif" font-size="14" lengthAdjust="spacing" textLength="47.4688" x="854.2271" y="92.5332">sweeps</text><text fill="#000000" font-family="sans-serif" font-size="14" lengthAdjust="spacing" textLength="58.3652" x="848.7788" y="110.1426">(optional)</text></g><g class="participant participant-tail" data-entity-uid="part7" data-qualified-name="Sweep" id="part7-tail"><rect fill="#E2E2F0" height="49.2188" rx="2.5" ry="2.5" style="stroke:#181818;stroke-width:0.5;" width="72.3652" x="841.7788" y="1197.7109"/><text fill="#000000" font-family="sans-serif" font-size="14" lengthAdjust="spacing" textLength="47.4688" x="854.2271" y="1219.2441">sweeps</text><text fill="#000000" font-family="sans-serif" font-size="14" lengthAdjust="spacing" textLength="58.3652" x="848.7788" y="1236.8535">(optional)</text></g><g class="participant participant-head" data-entity-uid="part8" data-qualified-name="Prom" id="part8-head"><rect fill="#E2E2F0" height="49.2188" rx="2.5" ry="2.5" style="stroke:#181818;stroke-width:0.5;" width="76.2549" x="924.144" y="71"/><text fill="#000000" font-family="sans-serif" font-size="14" lengthAdjust="spacing" textLength="62.2549" x="931.144" y="92.5332">promotion</text><text fill="#000000" font-family="sans-serif" font-size="14" lengthAdjust="spacing" textLength="58.3652" x="933.0889" y="110.1426">(optional)</text></g><g class="participant participant-tail" data-entity-uid="part8" data-qualified-name="Prom" id="part8-tail"><rect fill="#E2E2F0" height="49.2188" rx="2.5" ry="2.5" style="stroke:#181818;stroke-width:0.5;" width="76.2549" x="924.144" y="1197.7109"/><text fill="#000000" font-family="sans-serif" font-size="14" lengthAdjust="spacing" textLength="62.2549" x="931.144" y="1219.2441">promotion</text><text fill="#000000" font-family="sans-serif" font-size="14" lengthAdjust="spacing" textLength="58.3652" x="933.0889" y="1236.8535">(optional)</text></g><g class="participant participant-head" data-entity-uid="part9" data-qualified-name="DB" id="part9-head"><text fill="#000000" font-family="sans-serif" font-size="14" lengthAdjust="spacing" textLength="42.7998" x="1093.4014" y="118.1426">SQLite</text><path d="M1099.8013,67.6094 C1099.8013,57.6094 1117.8013,57.6094 1117.8013,57.6094 C1117.8013,57.6094 1135.8013,57.6094 1135.8013,67.6094 L1135.8013,93.6094 C1135.8013,103.6094 1117.8013,103.6094 1117.8013,103.6094 C1117.8013,103.6094 1099.8013,103.6094 1099.8013,93.6094 L1099.8013,67.6094" fill="#E2E2F0" style="stroke:#181818;stroke-width:0.5;"/><path d="M1099.8013,67.6094 C1099.8013,77.6094 1117.8013,77.6094 1117.8013,77.6094 C1117.8013,77.6094 1135.8013,77.6094 1135.8013,67.6094" fill="none" style="stroke:#181818;stroke-width:0.5;"/></g><g class="participant participant-tail" data-entity-uid="part9" data-qualified-name="DB" id="part9-tail"><text fill="#000000" font-family="sans-serif" font-size="14" lengthAdjust="spacing" textLength="42.7998" x="1093.4014" y="1212.2441">SQLite</text><path d="M1099.8013,1225.3203 C1099.8013,1215.3203 1117.8013,1215.3203 1117.8013,1215.3203 C1117.8013,1215.3203 1135.8013,1215.3203 1135.8013,1225.3203 L1135.8013,1251.3203 C1135.8013,1261.3203 1117.8013,1261.3203 1117.8013,1261.3203 C1117.8013,1261.3203 1099.8013,1261.3203 1099.8013,1251.3203 L1099.8013,1225.3203" fill="#E2E2F0" style="stroke:#181818;stroke-width:0.5;"/><path d="M1099.8013,1225.3203 C1099.8013,1235.3203 1117.8013,1235.3203 1117.8013,1235.3203 C1117.8013,1235.3203 1135.8013,1235.3203 1135.8013,1225.3203" fill="none" style="stroke:#181818;stroke-width:0.5;"/></g><g class="message" data-entity-1="part1" data-entity-2="part2" id="msg1"><polygon fill="#181818" points="242.4292,165.9219,252.4292,169.9219,242.4292,173.9219,246.4292,169.9219" style="stroke:#181818;stroke-width:1;"/><line style="stroke:#181818;stroke-width:1;" x1="33.8931" x2="248.4292" y1="169.9219" y2="169.9219"/><text fill="#000000" font-family="sans-serif" font-size="13" lengthAdjust="spacing" textLength="26.73" x="40.8931" y="148.7139">run (</text><text fill="#000000" font-family="sans-serif" font-size="13" lengthAdjust="spacing" text-decoration="line-through" textLength="73.6899" x="67.623" y="148.7139">factor-run-id,</text><text fill="#000000" font-family="sans-serif" font-size="13" lengthAdjust="spacing" textLength="49.8481" x="144.9248" y="148.7139">regimes,</text><text fill="#000000" font-family="sans-serif" font-size="13" lengthAdjust="spacing" text-decoration="line-through" textLength="76.5781" x="40.8931" y="165.0654">reality-check,</text><text fill="#000000" font-family="sans-serif" font-size="13" lengthAdjust="spacing" textLength="116.3462" x="121.083" y="165.0654">execution-evidence)</text></g><g class="message" data-entity-1="part2" data-entity-2="part9" id="msg2"><polygon fill="#181818" points="1105.8013,196.2734,1115.8013,200.2734,1105.8013,204.2734,1109.8013,200.2734" style="stroke:#181818;stroke-width:1;"/><line style="stroke:#181818;stroke-width:1;" x1="254.4292" x2="1111.8013" y1="200.2734" y2="200.2734"/><text fill="#000000" font-family="sans-serif" font-size="13" lengthAdjust="spacing" textLength="261.9551" x="261.4292" y="195.417">run_migrations (core + v2; phase3 if enabled)</text></g><path d="M176.7295,215.2734 L236.9004,215.2734 L236.9004,223.625 L226.9004,233.625 L176.7295,233.625 L176.7295,215.2734" fill="#EEEEEE" style="stroke:#000000;stroke-width:1.5;"/><rect fill="none" height="168.5938" style="stroke:#000000;stroke-width:1.5;" width="975.4717" x="176.7295" y="215.2734"/><text fill="#000000" font-family="sans-serif" font-size="13" font-weight="bold" lengthAdjust="spacing" textLength="15.1709" x="191.7295" y="229.7686">alt</text><text fill="#000000" font-family="sans-serif" font-size="11" font-weight="bold" lengthAdjust="spacing" textLength="98.9893" x="251.9004" y="228.6924">[--factor-run-id set]</text><g class="message" data-entity-1="part2" data-entity-2="part4" id="msg3"><polygon fill="#181818" points="542.1904,251.9766,552.1904,255.9766,542.1904,259.9766,546.1904,255.9766" style="stroke:#181818;stroke-width:1;"/><line style="stroke:#181818;stroke-width:1;" x1="254.4292" x2="548.1904" y1="255.9766" y2="255.9766"/><text fill="#000000" font-family="sans-serif" font-size="13" lengthAdjust="spacing" textLength="135.1353" x="261.4292" y="251.1201">load_factor_run(run_id)</text></g><g class="message" data-entity-1="part4" data-entity-2="part9" id="msg4"><polygon fill="#181818" points="1105.8013,282.3281,1115.8013,286.3281,1105.8013,290.3281,1109.8013,286.3281" style="stroke:#181818;stroke-width:1;"/><line style="stroke:#181818;stroke-width:1;" x1="554.1904" x2="1111.8013" y1="286.3281" y2="286.3281"/><text fill="#000000" font-family="sans-serif" font-size="13" lengthAdjust="spacing" textLength="171.9834" x="561.1904" y="281.4717">factor_betas, residual_returns</text></g><g class="message" data-entity-1="part4" data-entity-2="part2" id="msg5"><polygon fill="#181818" points="265.4292,312.6797,255.4292,316.6797,265.4292,320.6797,261.4292,316.6797" style="stroke:#181818;stroke-width:1;"/><line style="stroke:#181818;stroke-width:1;stroke-dasharray:2,2;" x1="259.4292" x2="553.1904" y1="316.6797" y2="316.6797"/><text fill="#000000" font-family="sans-serif" font-size="13" lengthAdjust="spacing" textLength="91.0508" x="271.4292" y="311.8232">betas, residuals</text></g><line style="stroke:#000000;stroke-width:1;stroke-dasharray:2,2;" x1="176.7295" x2="1152.2012" y1="325.6797" y2="325.6797"/><text fill="#000000" font-family="sans-serif" font-size="11" font-weight="bold" lengthAdjust="spacing" textLength="89.2031" x="181.7295" y="337.0986">[no factor-run-id]</text><g class="message" data-entity-1="part2" data-entity-2="part2" id="msg6"><line style="stroke:#181818;stroke-width:1;" x1="254.4292" x2="296.4292" y1="362.8672" y2="362.8672"/><line style="stroke:#181818;stroke-width:1;" x1="296.4292" x2="296.4292" y1="362.8672" y2="375.8672"/><line style="stroke:#181818;stroke-width:1;" x1="255.4292" x2="296.4292" y1="375.8672" y2="375.8672"/><polygon fill="#181818" points="265.4292,371.8672,255.4292,375.8672,265.4292,379.8672,261.4292,375.8672" style="stroke:#181818;stroke-width:1;"/><text fill="#000000" font-family="sans-serif" font-size="13" lengthAdjust="spacing" textLength="148.8208" x="261.4292" y="358.0107">in-memory factor (default)</text></g><g class="message" data-entity-1="part2" data-entity-2="part3" id="msg7"><polygon fill="#181818" points="449.3218,409.2188,459.3218,413.2188,449.3218,417.2188,453.3218,413.2188" style="stroke:#181818;stroke-width:1;"/><line style="stroke:#181818;stroke-width:1;" x1="254.4292" x2="455.3218" y1="413.2188" y2="413.2188"/><text fill="#000000" font-family="sans-serif" font-size="13" lengthAdjust="spacing" textLength="162.5889" x="261.4292" y="408.3623">load_bars, get factor returns</text></g><g class="message" data-entity-1="part3" data-entity-2="part9" id="msg8"><polygon fill="#181818" points="1105.8013,439.5703,1115.8013,443.5703,1105.8013,447.5703,1109.8013,443.5703" style="stroke:#181818;stroke-width:1;"/><line style="stroke:#181818;stroke-width:1;" x1="461.3218" x2="1111.8013" y1="443.5703" y2="443.5703"/><text fill="#000000" font-family="sans-serif" font-size="13" lengthAdjust="spacing" textLength="69.3735" x="468.3218" y="438.7139">bars_*, spot</text></g><path d="M176.7295,458.5703 L236.9004,458.5703 L236.9004,466.9219 L226.9004,476.9219 L176.7295,476.9219 L176.7295,458.5703" fill="#EEEEEE" style="stroke:#000000;stroke-width:1.5;"/><rect fill="none" height="125.7578" style="stroke:#000000;stroke-width:1.5;" width="975.4717" x="176.7295" y="458.5703"/><text fill="#000000" font-family="sans-serif" font-size="13" font-weight="bold" lengthAdjust="spacing" textLength="15.1709" x="191.7295" y="473.0654">alt</text><text fill="#000000" font-family="sans-serif" font-size="11" font-weight="bold" lengthAdjust="spacing" textLength="202.3237" x="251.9004" y="471.9893">[--regimes REGIME_RUN_ID (Phase 3)]</text><g class="message" data-entity-1="part2" data-entity-2="part5" id="msg9"><polygon fill="#181818" points="650.6177,495.2734,660.6177,499.2734,650.6177,503.2734,654.6177,499.2734" style="stroke:#181818;stroke-width:1;"/><line style="stroke:#181818;stroke-width:1;" x1="254.4292" x2="656.6177" y1="499.2734" y2="499.2734"/><text fill="#000000" font-family="sans-serif" font-size="13" lengthAdjust="spacing" textLength="172.7007" x="261.4292" y="494.417">regime-conditioned IC / decay</text></g><g class="message" data-entity-1="part5" data-entity-2="part9" id="msg10"><polygon fill="#181818" points="1105.8013,525.625,1115.8013,529.625,1105.8013,533.625,1109.8013,529.625" style="stroke:#181818;stroke-width:1;"/><line style="stroke:#181818;stroke-width:1;" x1="662.6177" x2="1111.8013" y1="529.625" y2="529.625"/><text fill="#000000" font-family="sans-serif" font-size="13" lengthAdjust="spacing" textLength="161.1289" x="669.6177" y="524.7686">regime_runs, regime_states</text></g><g class="message" data-entity-1="part2" data-entity-2="part6" id="msg11"><polygon fill="#181818" points="758.2896,572.3281,768.2896,576.3281,758.2896,580.3281,762.2896,576.3281" style="stroke:#181818;stroke-width:1;"/><line style="stroke:#181818;stroke-width:1;" x1="254.4292" x2="764.2896" y1="576.3281" y2="576.3281"/><text fill="#000000" font-family="sans-serif" font-size="13" lengthAdjust="spacing" textLength="195.457" x="261.4292" y="555.1201">bundle + ic_summary_by_regime,</text><text fill="#000000" font-family="sans-serif" font-size="13" lengthAdjust="spacing" textLength="226.9033" x="261.4292" y="571.4717">ic_decay_by_regime, regime_coverage</text></g><g class="message" data-entity-1="part2" data-entity-2="part2" id="msg12"><line style="stroke:#181818;stroke-width:1;" x1="254.4292" x2="296.4292" y1="630.0313" y2="630.0313"/><line style="stroke:#181818;stroke-width:1;" x1="296.4292" x2="296.4292" y1="630.0313" y2="643.0313"/><line style="stroke:#181818;stroke-width:1;" x1="255.4292" x2="296.4292" y1="643.0313" y2="643.0313"/><polygon fill="#181818" points="265.4292,639.0313,255.4292,643.0313,265.4292,647.0313,261.4292,643.0313" style="stroke:#181818;stroke-width:1;"/><text fill="#000000" font-family="sans-serif" font-size="13" lengthAdjust="spacing" textLength="158.2725" x="261.4292" y="608.8232">per-signal ValidationBundle</text><text fill="#000000" font-family="sans-serif" font-size="13" lengthAdjust="spacing" textLength="192.8926" x="261.4292" y="625.1748">(IC series, t-stat, decay, turnover)</text></g><g class="message" data-entity-1="part2" data-entity-2="part6" id="msg13"><polygon fill="#181818" points="758.2896,685.7344,768.2896,689.7344,758.2896,693.7344,762.2896,689.7344" style="stroke:#181818;stroke-width:1;"/><line style="stroke:#181818;stroke-width:1;" x1="254.4292" x2="764.2896" y1="689.7344" y2="689.7344"/><text fill="#000000" font-family="sans-serif" font-size="13" lengthAdjust="spacing" textLength="153.5371" x="261.4292" y="668.5264">emit bundle JSON + CSVs</text><text fill="#000000" font-family="sans-serif" font-size="13" lengthAdjust="spacing" textLength="85.979" x="261.4292" y="684.8779">(relative paths)</text></g><path d="M176.7295,704.7344 L236.9004,704.7344 L236.9004,713.0859 L226.9004,723.0859 L176.7295,723.0859 L176.7295,704.7344" fill="#EEEEEE" style="stroke:#000000;stroke-width:1.5;"/><rect fill="none" height="155.1094" style="stroke:#000000;stroke-width:1.5;" width="747.4146" x="176.7295" y="704.7344"/><text fill="#000000" font-family="sans-serif" font-size="13" font-weight="bold" lengthAdjust="spacing" textLength="15.1709" x="191.7295" y="719.2295">alt</text><text fill="#000000" font-family="sans-serif" font-size="11" font-weight="bold" lengthAdjust="spacing" textLength="133.8799" x="251.9004" y="718.1533">[--reality-check (Phase 3)]</text><g class="message" data-entity-1="part2" data-entity-2="part2" id="msg14"><line style="stroke:#181818;stroke-width:1;" x1="254.4292" x2="296.4292" y1="761.7891" y2="761.7891"/><line style="stroke:#181818;stroke-width:1;" x1="296.4292" x2="296.4292" y1="761.7891" y2="774.7891"/><line style="stroke:#181818;stroke-width:1;" x1="255.4292" x2="296.4292" y1="774.7891" y2="774.7891"/><polygon fill="#181818" points="265.4292,770.7891,255.4292,774.7891,265.4292,778.7891,261.4292,774.7891" style="stroke:#181818;stroke-width:1;"/><text fill="#000000" font-family="sans-serif" font-size="13" lengthAdjust="spacing" textLength="111.2617" x="261.4292" y="740.5811">RC null simulations</text><text fill="#000000" font-family="sans-serif" font-size="13" lengthAdjust="spacing" textLength="130.7744" x="261.4292" y="756.9326">(family_id, rc_p_value)</text></g><g class="message" data-entity-1="part2" data-entity-2="part7" id="msg15"><polygon fill="#181818" points="865.9614,817.4922,875.9614,821.4922,865.9614,825.4922,869.9614,821.4922" style="stroke:#181818;stroke-width:1;"/><line style="stroke:#181818;stroke-width:1;" x1="254.4292" x2="871.9614" y1="821.4922" y2="821.4922"/><text fill="#000000" font-family="sans-serif" font-size="13" lengthAdjust="spacing" textLength="134.3862" x="261.4292" y="800.2842">persist sweep_families,</text><text fill="#000000" font-family="sans-serif" font-size="13" lengthAdjust="spacing" textLength="203.0552" x="261.4292" y="816.6357">sweep_hypotheses (if Phase 3 DB)</text></g><g class="message" data-entity-1="part2" data-entity-2="part6" id="msg16"><polygon fill="#181818" points="758.2896,847.8438,768.2896,851.8438,758.2896,855.8438,762.2896,851.8438" style="stroke:#181818;stroke-width:1;"/><line style="stroke:#181818;stroke-width:1;" x1="254.4292" x2="764.2896" y1="851.8438" y2="851.8438"/><text fill="#000000" font-family="sans-serif" font-size="13" lengthAdjust="spacing" textLength="140.8862" x="261.4292" y="846.9873">rc_summary in evidence</text></g><path d="M176.7295,873.8438 L236.9004,873.8438 L236.9004,882.1953 L226.9004,892.1953 L176.7295,892.1953 L176.7295,873.8438" fill="#EEEEEE" style="stroke:#000000;stroke-width:1.5;"/><rect fill="none" height="108.4063" style="stroke:#000000;stroke-width:1.5;" width="665.0493" x="176.7295" y="873.8438"/><text fill="#000000" font-family="sans-serif" font-size="13" font-weight="bold" lengthAdjust="spacing" textLength="15.1709" x="191.7295" y="888.3389">alt</text><text fill="#000000" font-family="sans-serif" font-size="11" font-weight="bold" lengthAdjust="spacing" textLength="168.7114" x="251.9004" y="887.2627">[--execution-evidence (Phase 3)]</text><g class="message" data-entity-1="part2" data-entity-2="part2" id="msg17"><line style="stroke:#181818;stroke-width:1;" x1="254.4292" x2="296.4292" y1="930.8984" y2="930.8984"/><line style="stroke:#181818;stroke-width:1;" x1="296.4292" x2="296.4292" y1="930.8984" y2="943.8984"/><line style="stroke:#181818;stroke-width:1;" x1="255.4292" x2="296.4292" y1="943.8984" y2="943.8984"/><polygon fill="#181818" points="265.4292,939.8984,255.4292,943.8984,265.4292,947.8984,261.4292,943.8984" style="stroke:#181818;stroke-width:1;"/><text fill="#000000" font-family="sans-serif" font-size="13" lengthAdjust="spacing" textLength="90.3208" x="261.4292" y="909.6904">capacity_curve,</text><text fill="#000000" font-family="sans-serif" font-size="13" lengthAdjust="spacing" textLength="142.3779" x="261.4292" y="926.042">execution_evidence.json</text></g><g class="message" data-entity-1="part2" data-entity-2="part6" id="msg18"><polygon fill="#181818" points="758.2896,970.25,768.2896,974.25,758.2896,978.25,762.2896,974.25" style="stroke:#181818;stroke-width:1;"/><line style="stroke:#181818;stroke-width:1;" x1="254.4292" x2="764.2896" y1="974.25" y2="974.25"/><text fill="#000000" font-family="sans-serif" font-size="13" lengthAdjust="spacing" textLength="216.8296" x="261.4292" y="969.3936">execution_evidence_path in evidence</text></g><g class="message" data-entity-1="part2" data-entity-2="part2" id="msg19"><line style="stroke:#181818;stroke-width:1;" x1="254.4292" x2="296.4292" y1="1027.9531" y2="1027.9531"/><line style="stroke:#181818;stroke-width:1;" x1="296.4292" x2="296.4292" y1="1027.9531" y2="1040.9531"/><line style="stroke:#181818;stroke-width:1;" x1="255.4292" x2="296.4292" y1="1040.9531" y2="1040.9531"/><polygon fill="#181818" points="265.4292,1036.9531,255.4292,1040.9531,265.4292,1044.9531,261.4292,1040.9531" style="stroke:#181818;stroke-width:1;"/><text fill="#000000" font-family="sans-serif" font-size="13" lengthAdjust="spacing" textLength="120.6816" x="261.4292" y="1006.7451">governance manifest</text><text fill="#000000" font-family="sans-serif" font-size="13" lengthAdjust="spacing" textLength="99.7153" x="261.4292" y="1023.0967">(git, env, hashes)</text></g><g class="message" data-entity-1="part2" data-entity-2="part1" id="msg20"><polygon fill="#181818" points="44.8931,1067.3047,34.8931,1071.3047,44.8931,1075.3047,40.8931,1071.3047" style="stroke:#181818;stroke-width:1;"/><line style="stroke:#181818;stroke-width:1;stroke-dasharray:2,2;" x1="38.8931" x2="253.4292" y1="1071.3047" y2="1071.3047"/><text fill="#000000" font-family="sans-serif" font-size="13" lengthAdjust="spacing" textLength="109.459" x="50.8931" y="1066.4482">artifacts + manifest</text></g><path d="M10,1086.3047 L75.2109,1086.3047 L75.2109,1094.6563 L65.2109,1104.6563 L10,1104.6563 L10,1086.3047" fill="#EEEEEE" style="stroke:#000000;stroke-width:1.5;"/><rect fill="none" height="95.4063" style="stroke:#000000;stroke-width:1.5;" width="1142.2012" x="10" y="1086.3047"/><text fill="#000000" font-family="sans-serif" font-size="13" font-weight="bold" lengthAdjust="spacing" textLength="20.2109" x="25" y="1100.7998">opt</text><text fill="#000000" font-family="sans-serif" font-size="11" font-weight="bold" lengthAdjust="spacing" textLength="109.4038" x="90.2109" y="1099.7236">[Promotion evaluate]</text><g class="message" data-entity-1="part1" data-entity-2="part8" id="msg21"><polygon fill="#181818" points="950.2715,1123.0078,960.2715,1127.0078,950.2715,1131.0078,954.2715,1127.0078" style="stroke:#181818;stroke-width:1;"/><line style="stroke:#181818;stroke-width:1;" x1="33.8931" x2="956.2715" y1="1127.0078" y2="1127.0078"/><text fill="#000000" font-family="sans-serif" font-size="13" lengthAdjust="spacing" textLength="237.0469" x="40.8931" y="1122.1514">evaluate_and_record(bundle, thresholds)</text></g><g class="message" data-entity-1="part8" data-entity-2="part9" id="msg22"><polygon fill="#181818" points="1105.8013,1169.7109,1115.8013,1173.7109,1105.8013,1177.7109,1109.8013,1173.7109" style="stroke:#181818;stroke-width:1;"/><line style="stroke:#181818;stroke-width:1;" x1="962.2715" x2="1111.8013" y1="1173.7109" y2="1173.7109"/><text fill="#000000" font-family="sans-serif" font-size="13" lengthAdjust="spacing" textLength="131.5298" x="969.2715" y="1152.5029">promotion_candidates,</text><text fill="#000000" font-family="sans-serif" font-size="13" lengthAdjust="spacing" textLength="103.3398" x="969.2715" y="1168.8545">promotion_events</text></g><?plantuml-src TLNDZjCm4BxdAKPxQY41QVS64eUskwXe_sX5JojPhZDD38uJsKwWd7W8df0dOUp4RTF2QHlFDpFVVFEpJZg5iCAcDWwwQtYM3Igf4Vxy-WqBT6WggQLrKi2grIbik98vTxBMirRd2bDuBhb5k86dnh_Q9E72rGQkvlVBA-0Mw6_IS4CHPCErWok35haH9JCXA-kk0svrFOPH5XuC2_enDkr22bPneYU9q4zyqHDLyvmD5jFgQV2zUpZFNSWABS7hG9Uh7hV2OWpi3dMoRIWqm3QpCSf-HsmkewtzynZPcBggFUO2_4oMn1UxzJfUhJ_VIzTdMyoIXDI3x0E90--0ge99blKrPlILoJo5B1kAIb-q_qt4tJuJ9OflteW_KBG-NuQTp54Bd2OKZM8kPdrCLid2X58jJ4Hj45xJ9Bo7nZVs1kGEKFEjmdnAlLKEpXY0HPS0z37l7YZcMIScFeSaR_3cc7YmRz5ncmBDXCnRhcWcN6jeYdfihFmCPHDKf9MkOSJam2BuI9rLMDLcFu1WakEEjyfD4zHv4aKWuIFbBJUKf40NFIAP08h4FOgzIi4sjOk231s0rUt7vSCjMtrvPCi5J8RLc1w9OU4r3-XCr3gNNdRCOJc7jv2Zu7kF9TIXFm7hPGprXm_hQF3j8UWci0f3IfsJWjcsghZPi-sUzHuq6VGSmfyynd2Yxj3m0azb2GesQ38h2vhKYxMdAIRAbjQFvWvSvYcbVG7qIQBvc77G0a6if8iiFwsV7edgVBtnksDGKUGEeU6kjDEZfYUJ_2yjFSNL77Ih55XPjQgVOOguuvLKU-QtmmZMC5hc5e-UOJtx-YoTDWXRp8AJ36lKFvHxwd19nuhMWfOWthd5R3gMtXmKfvc3k6Mzcdqfbplulte4RxYWgfbeJUVxTd1bqVNDLrlhCODB4FDQNj8voLJu3cdkkLHSonrQHyeLajg8kak1w57jVGl9nz-XT-0lcjyDIzsBNab2zonSiN3VA2EfJGDA58VZvMsUvM1WNESqWtHfyibs-2VYIjhjibQvzO84XxW1Xyl913dwAGmzEZvZXzhPKE1V?></g></svg>