<?plantuml 1.2026.1?><svg xmlns="http://www.w3.org/2000/svg" xmlns:xlink="http://www.w3.org/1999/xlink" contentStyleType="text/css" data-diagram-type="DESCRIPTION" height="828px" preserveAspectRatio="none" style="width:1076px;height:828px;background:#FFFFFF;" version="1.1" viewBox="0 0 1076 828" width="1076px" zoomAndPan="magnify"><title>Promotion Workflow &#8212; Exploratory to Candidate to Accepted (Phase 3) (ebb8e37)</title><defs/><g><g class="title" data-source-line="1"><text fill="#000000" font-family="sans-serif" font-size="14" font-weight="bold" lengthAdjust="spacing" textLength="475.7129" x="293.1648" y="24.5332">Promotion Workflow &#8212; Exploratory to Candidate to Accepted (Phase 3)</text></g><!--cluster Store (SQLite)--><g class="cluster" data-qualified-name="Store .SQLite." data-source-line="3" id="ent0002"><path d="M574.5,564.0694 L669.6172,564.0694 A3.75,3.75 0 0 1 672.1172,566.5694 L679.1172,587.6788 L1018.5,587.6788 A2.5,2.5 0 0 1 1021,590.1788 L1021,713.0094 A2.5,2.5 0 0 1 1018.5,715.5094 L574.5,715.5094 A2.5,2.5 0 0 1 572,713.0094 L572,566.5694 A2.5,2.5 0 0 1 574.5,564.0694" fill="none" style="stroke:#000000;stroke-width:1.5;"/><line style="stroke:#000000;stroke-width:1.5;" x1="572" x2="679.1172" y1="587.6788" y2="587.6788"/><text fill="#000000" font-family="sans-serif" font-size="14" font-weight="bold" lengthAdjust="spacing" textLength="94.1172" x="576" y="580.6026">Store (SQLite)</text></g><!--cluster Service--><g class="cluster" data-qualified-name="Service" data-source-line="8" id="ent0005"><path d="M359.5,212.4394 L410.3203,212.4394 A3.75,3.75 0 0 1 412.8203,214.9394 L419.8203,236.0488 L857.5,236.0488 A2.5,2.5 0 0 1 860,238.5488 L860,508.4694 A2.5,2.5 0 0 1 857.5,510.9694 L359.5,510.9694 A2.5,2.5 0 0 1 357,508.4694 L357,214.9394 A2.5,2.5 0 0 1 359.5,212.4394" fill="none" style="stroke:#000000;stroke-width:1.5;"/><line style="stroke:#000000;stroke-width:1.5;" x1="357" x2="419.8203" y1="236.0488" y2="236.0488"/><text fill="#000000" font-family="sans-serif" font-size="14" font-weight="bold" lengthAdjust="spacing" textLength="49.8203" x="361" y="228.9726">Service</text></g><!--cluster Caching--><g class="cluster" data-qualified-name="Caching" data-source-line="14" id="ent0009"><path d="M8.5,581.1794 L64.7275,581.1794 A3.75,3.75 0 0 1 67.2275,583.6794 L74.2275,604.7888 L542.5,604.7888 A2.5,2.5 0 0 1 545,607.2888 L545,695.8994 A2.5,2.5 0 0 1 542.5,698.3994 L8.5,698.3994 A2.5,2.5 0 0 1 6,695.8994 L6,583.6794 A2.5,2.5 0 0 1 8.5,581.1794" fill="none" style="stroke:#000000;stroke-width:1.5;"/><line style="stroke:#000000;stroke-width:1.5;" x1="6" x2="74.2275" y1="604.7888" y2="604.7888"/><text fill="#000000" font-family="sans-serif" font-size="14" font-weight="bold" lengthAdjust="spacing" textLength="55.2275" x="10" y="597.7126">Caching</text></g><!--cluster CLI / Streamlit--><g class="cluster" data-qualified-name="CLI . Streamlit" data-source-line="26" id="ent0018"><path d="M625.5,44.6094 L720.6309,44.6094 A3.75,3.75 0 0 1 723.1309,47.1094 L730.1309,68.2188 L1019.5,68.2188 A2.5,2.5 0 0 1 1022,70.7188 L1022,176.9394 A2.5,2.5 0 0 1 1019.5,179.4394 L625.5,179.4394 A2.5,2.5 0 0 1 623,176.9394 L623,47.1094 A2.5,2.5 0 0 1 625.5,44.6094" fill="none" style="stroke:#000000;stroke-width:1.5;"/><line style="stroke:#000000;stroke-width:1.5;" x1="623" x2="730.1309" y1="68.2188" y2="68.2188"/><text fill="#000000" font-family="sans-serif" font-size="14" font-weight="bold" lengthAdjust="spacing" textLength="94.1309" x="627" y="61.1426">CLI / Streamlit</text></g><!--entity PC--><g class="entity" data-qualified-name="Store .SQLite..PC" data-source-line="4" id="ent0003"><path d="M587.89,610.0694 C587.89,600.0694 686.9964,600.0694 686.9964,600.0694 C686.9964,600.0694 786.1029,600.0694 786.1029,610.0694 L786.1029,689.5069 C786.1029,699.5069 686.9964,699.5069 686.9964,699.5069 C686.9964,699.5069 587.89,699.5069 587.89,689.5069 L587.89,610.0694" fill="#F1F1F1" style="stroke:#181818;stroke-width:0.5;"/><path d="M587.89,610.0694 C587.89,620.0694 686.9964,620.0694 686.9964,620.0694 C686.9964,620.0694 786.1029,620.0694 786.1029,610.0694" fill="none" style="stroke:#181818;stroke-width:0.5;"/><text fill="#000000" font-family="sans-serif" font-size="14" lengthAdjust="spacing" textLength="137.7578" x="597.89" y="638.6026">promotion_candidates</text><text fill="#000000" font-family="sans-serif" font-size="14" lengthAdjust="spacing" textLength="133.082" x="597.89" y="656.212">(candidate_id, status,</text><text fill="#000000" font-family="sans-serif" font-size="14" lengthAdjust="spacing" textLength="178.2129" x="597.89" y="673.8213">dataset_id, run_id, family_id,</text><text fill="#000000" font-family="sans-serif" font-size="14" lengthAdjust="spacing" textLength="113.6201" x="597.89" y="691.4307">evidence_json, ...)</text></g><!--entity PE--><g class="entity" data-qualified-name="Store .SQLite..PE" data-source-line="5" id="ent0004"><path d="M821.28,618.8694 C821.28,608.8694 913.0036,608.8694 913.0036,608.8694 C913.0036,608.8694 1004.7273,608.8694 1004.7273,618.8694 L1004.7273,680.6975 C1004.7273,690.6975 913.0036,690.6975 913.0036,690.6975 C913.0036,690.6975 821.28,690.6975 821.28,680.6975 L821.28,618.8694" fill="#F1F1F1" style="stroke:#181818;stroke-width:0.5;"/><path d="M821.28,618.8694 C821.28,628.8694 913.0036,628.8694 913.0036,628.8694 C913.0036,628.8694 1004.7273,628.8694 1004.7273,618.8694" fill="none" style="stroke:#181818;stroke-width:0.5;"/><text fill="#000000" font-family="sans-serif" font-size="14" lengthAdjust="spacing" textLength="111.2891" x="831.28" y="647.4026">promotion_events</text><text fill="#000000" font-family="sans-serif" font-size="14" lengthAdjust="spacing" textLength="148.6611" x="831.28" y="665.012">(event_id, candidate_id,</text><text fill="#000000" font-family="sans-serif" font-size="14" lengthAdjust="spacing" textLength="163.4473" x="831.28" y="682.6213">event_type, payload_json)</text></g><!--entity Store--><g class="entity" data-qualified-name="Service.Store" data-source-line="9" id="ent0006"><rect fill="#F1F1F1" height="65.2188" rx="2.5" ry="2.5" style="stroke:#181818;stroke-width:0.5;" width="187.8682" x="656.07" y="429.7594"/><rect fill="#F1F1F1" height="10" style="stroke:#181818;stroke-width:0.5;" width="15" x="823.9382" y="434.7594"/><rect fill="#F1F1F1" height="2" style="stroke:#181818;stroke-width:0.5;" width="4" x="821.9382" y="436.7594"/><rect fill="#F1F1F1" height="2" style="stroke:#181818;stroke-width:0.5;" width="4" x="821.9382" y="440.7594"/><text fill="#000000" font-family="sans-serif" font-size="14" lengthAdjust="spacing" textLength="107.4131" x="671.07" y="464.2926">create_candidate</text><text fill="#000000" font-family="sans-serif" font-size="14" lengthAdjust="spacing" textLength="147.8682" x="671.07" y="481.902">list / get / update_status</text></g><!--entity Eval--><g class="entity" data-qualified-name="Service.Eval" data-source-line="10" id="ent0007"><rect fill="#F1F1F1" height="65.2188" rx="2.5" ry="2.5" style="stroke:#181818;stroke-width:0.5;" width="201.8682" x="531.07" y="248.4394"/><rect fill="#F1F1F1" height="10" style="stroke:#181818;stroke-width:0.5;" width="15" x="712.9382" y="253.4394"/><rect fill="#F1F1F1" height="2" style="stroke:#181818;stroke-width:0.5;" width="4" x="710.9382" y="255.4394"/><rect fill="#F1F1F1" height="2" style="stroke:#181818;stroke-width:0.5;" width="4" x="710.9382" y="259.4394"/><text fill="#000000" font-family="sans-serif" font-size="14" lengthAdjust="spacing" textLength="131.5439" x="546.07" y="282.9726">evaluate_and_record</text><text fill="#000000" font-family="sans-serif" font-size="14" lengthAdjust="spacing" textLength="161.8682" x="546.07" y="300.582">(ThresholdConfig, bundle)</text></g><!--entity Gate--><g class="entity" data-qualified-name="Service.Gate" data-source-line="11" id="ent0008"><rect fill="#F1F1F1" height="65.2188" rx="2.5" ry="2.5" style="stroke:#181818;stroke-width:0.5;" width="247.7578" x="373.12" y="429.7594"/><rect fill="#F1F1F1" height="10" style="stroke:#181818;stroke-width:0.5;" width="15" x="600.8778" y="434.7594"/><rect fill="#F1F1F1" height="2" style="stroke:#181818;stroke-width:0.5;" width="4" x="598.8778" y="436.7594"/><rect fill="#F1F1F1" height="2" style="stroke:#181818;stroke-width:0.5;" width="4" x="598.8778" y="440.7594"/><text fill="#000000" font-family="sans-serif" font-size="14" lengthAdjust="spacing" textLength="163.4678" x="388.12" y="464.2926">gating.evaluate_candidate</text><text fill="#000000" font-family="sans-serif" font-size="14" lengthAdjust="spacing" textLength="207.7578" x="388.12" y="481.902">(RC, regime, execution evidence)</text></g><!--entity RCCache--><g class="entity" data-qualified-name="Caching.RCCache" data-source-line="15" id="ent0010"><rect fill="#F1F1F1" height="65.2188" rx="2.5" ry="2.5" style="stroke:#181818;stroke-width:0.5;" width="250.499" x="278.75" y="617.1794"/><rect fill="#F1F1F1" height="10" style="stroke:#181818;stroke-width:0.5;" width="15" x="509.249" y="622.1794"/><rect fill="#F1F1F1" height="2" style="stroke:#181818;stroke-width:0.5;" width="4" x="507.249" y="624.1794"/><rect fill="#F1F1F1" height="2" style="stroke:#181818;stroke-width:0.5;" width="4" x="507.249" y="628.1794"/><text fill="#000000" font-family="sans-serif" font-size="14" lengthAdjust="spacing" textLength="87.1514" x="293.75" y="651.7126">RC null cache</text><text fill="#000000" font-family="sans-serif" font-size="14" lengthAdjust="spacing" textLength="210.499" x="293.75" y="669.322">(family_id + config + dataset + git)</text></g><!--entity FCache--><g class="entity" data-qualified-name="Caching.FCache" data-source-line="16" id="ent0011"><rect fill="#F1F1F1" height="65.2188" rx="2.5" ry="2.5" style="stroke:#181818;stroke-width:0.5;" width="222.4717" x="21.76" y="617.1794"/><rect fill="#F1F1F1" height="10" style="stroke:#181818;stroke-width:0.5;" width="15" x="224.2317" y="622.1794"/><rect fill="#F1F1F1" height="2" style="stroke:#181818;stroke-width:0.5;" width="4" x="222.2317" y="624.1794"/><rect fill="#F1F1F1" height="2" style="stroke:#181818;stroke-width:0.5;" width="4" x="222.2317" y="628.1794"/><text fill="#000000" font-family="sans-serif" font-size="14" lengthAdjust="spacing" textLength="179.7646" x="36.76" y="651.7126">factor_cache / regime_cache</text><text fill="#000000" font-family="sans-serif" font-size="14" lengthAdjust="spacing" textLength="182.4717" x="36.76" y="669.322">(metadata + rowcount match)</text></g><!--entity CLI--><g class="entity" data-qualified-name="CLI . Streamlit.CLI" data-source-line="27" id="ent0019"><rect fill="#F1F1F1" height="82.8281" rx="2.5" ry="2.5" style="stroke:#181818;stroke-width:0.5;" width="123.2549" x="639.37" y="80.6094"/><rect fill="#F1F1F1" height="10" style="stroke:#181818;stroke-width:0.5;" width="15" x="742.6249" y="85.6094"/><rect fill="#F1F1F1" height="2" style="stroke:#181818;stroke-width:0.5;" width="4" x="740.6249" y="87.6094"/><rect fill="#F1F1F1" height="2" style="stroke:#181818;stroke-width:0.5;" width="4" x="740.6249" y="91.6094"/><text fill="#000000" font-family="sans-serif" font-size="14" lengthAdjust="spacing" textLength="83.2549" x="654.37" y="115.1426">promotion list</text><text fill="#000000" font-family="sans-serif" font-size="14" lengthAdjust="spacing" textLength="38.9102" x="654.37" y="132.752">create</text><text fill="#000000" font-family="sans-serif" font-size="14" lengthAdjust="spacing" textLength="52.9307" x="654.37" y="150.3613">evaluate</text></g><!--entity UI--><g class="entity" data-qualified-name="CLI . Streamlit.UI" data-source-line="28" id="ent0020"><rect fill="#F1F1F1" height="65.2188" rx="2.5" ry="2.5" style="stroke:#181818;stroke-width:0.5;" width="208.0615" x="797.97" y="89.4194"/><rect fill="#F1F1F1" height="10" style="stroke:#181818;stroke-width:0.5;" width="15" x="986.0315" y="94.4194"/><rect fill="#F1F1F1" height="2" style="stroke:#181818;stroke-width:0.5;" width="4" x="984.0315" y="96.4194"/><rect fill="#F1F1F1" height="2" style="stroke:#181818;stroke-width:0.5;" width="4" x="984.0315" y="100.4194"/><text fill="#000000" font-family="sans-serif" font-size="14" lengthAdjust="spacing" textLength="98.8408" x="812.97" y="123.9526">Promotion page</text><text fill="#000000" font-family="sans-serif" font-size="14" lengthAdjust="spacing" textLength="168.0615" x="812.97" y="141.562">(list, view, evaluate, status)</text></g><g class="entity" data-qualified-name="GMN25" data-source-line="36" id="ent0026"><path d="M878.96,424.6594 L878.96,500.0656 L1069.0425,500.0656 L1069.0425,434.6594 L1059.0425,424.6594 L878.96,424.6594" fill="#FEFFDD" style="stroke:#181818;stroke-width:0.5;"/><path d="M1059.0425,424.6594 L1059.0425,434.6594 L1069.0425,434.6594 L1059.0425,424.6594" fill="#FEFFDD" style="stroke:#181818;stroke-width:1;"/><text fill="#000000" font-family="sans-serif" font-size="13" lengthAdjust="spacing" textLength="169.0825" x="884.96" y="443.1545">Gates: require_reality_check,</text><text fill="#000000" font-family="sans-serif" font-size="13" lengthAdjust="spacing" textLength="161.8652" x="884.96" y="459.5061">require_regime_robustness,</text><text fill="#000000" font-family="sans-serif" font-size="13" lengthAdjust="spacing" textLength="162.6143" x="884.96" y="475.8576">require_execution_evidence</text><text fill="#000000" font-family="sans-serif" font-size="13" lengthAdjust="spacing" textLength="158.9453" x="884.96" y="492.2092">(allow_missing_* overrides)</text></g><g class="entity" data-qualified-name="GMN28" data-source-line="43" id="ent0029"><path d="M571.18,762.5094 L571.18,821.5641 A0,0 0 0 0 571.18,821.5641 L802.8206,821.5641 A0,0 0 0 0 802.8206,821.5641 L802.8206,772.5094 L792.8206,762.5094 L691,762.5094 L687,699.8394 L683,762.5094 L571.18,762.5094 A0,0 0 0 0 571.18,762.5094" fill="#FEFFDD" style="stroke:#181818;stroke-width:0.5;"/><path d="M792.8206,762.5094 L792.8206,772.5094 L802.8206,772.5094 L792.8206,762.5094" fill="#FEFFDD" style="stroke:#181818;stroke-width:0.5;"/><text fill="#000000" font-family="sans-serif" font-size="13" lengthAdjust="spacing" textLength="210.6406" x="577.18" y="781.0045">Status flow: exploratory -&gt; candidate</text><text fill="#000000" font-family="sans-serif" font-size="13" lengthAdjust="spacing" textLength="125.144" x="577.18" y="797.3561">-&gt; accepted | rejected</text><text fill="#000000" font-family="sans-serif" font-size="13" lengthAdjust="spacing" textLength="192.2261" x="577.18" y="813.7076">(evaluate_and_record or manual)</text></g><!--link Store to PC--><g class="link" data-entity-1="ent0006" data-entity-2="ent0003" data-link-type="dependency" data-source-line="19" id="lnk12"><path d="M739.17,495.2394 C729.39,524.0294 716.7808,561.1385 705.5308,594.2385" fill="none" id="Store-to-PC" style="stroke:#181818;stroke-width:1;"/><polygon fill="#181818" points="703.6,599.9194,710.2834,592.6853,705.209,595.1853,702.709,590.1109,703.6,599.9194" style="stroke:#181818;stroke-width:1;"/><text fill="#000000" font-family="sans-serif" font-size="13" lengthAdjust="spacing" textLength="37.5527" x="727" y="544.5645">CRUD</text></g><!--link Store to PE--><g class="link" data-entity-1="ent0006" data-entity-2="ent0004" data-link-type="dependency" data-source-line="20" id="lnk13"><path d="M778.02,495.2394 C805.6,526.6094 843.8487,570.1229 873.7087,604.0929" fill="none" id="Store-to-PE" style="stroke:#181818;stroke-width:1;"/><polygon fill="#181818" points="877.67,608.5994,874.7324,599.1988,874.369,604.844,868.7238,604.4805,877.67,608.5994" style="stroke:#181818;stroke-width:1;"/><text fill="#000000" font-family="sans-serif" font-size="13" lengthAdjust="spacing" textLength="78.7935" x="822.74" y="544.5645">append event</text></g><!--link Eval to Store--><g class="link" data-entity-1="ent0007" data-entity-2="ent0006" data-link-type="dependency" data-source-line="21" id="lnk14"><path d="M622.56,313.9294 C617.42,337.8094 614.68,370.4094 629,394.6594 C637.42,408.9094 645.0523,417.0703 659.0723,426.1403" fill="none" id="Eval-to-Store" style="stroke:#181818;stroke-width:1;"/><polygon fill="#181818" points="664.11,429.3994,658.7261,421.1523,659.9119,426.6835,654.3807,427.8693,664.11,429.3994" style="stroke:#181818;stroke-width:1;"/><text fill="#000000" font-family="sans-serif" font-size="13" lengthAdjust="spacing" textLength="164.7788" x="630" y="374.6545">update_status, record_event</text></g><!--link Eval to Gate--><g class="link" data-entity-1="ent0007" data-entity-2="ent0008" data-link-type="dependency" data-source-line="22" id="lnk15"><path d="M530.68,300.5294 C485.48,311.0394 439.38,325.6994 426,343.6594 C412.46,361.8394 417,373.8594 426,394.6594 C431.71,407.8594 437.082,415.5259 447.552,425.3859" fill="none" id="Eval-to-Gate" style="stroke:#181818;stroke-width:1;"/><polygon fill="#181818" points="451.92,429.4994,448.1104,420.4172,448.28,426.0715,442.6257,426.2411,451.92,429.4994" style="stroke:#181818;stroke-width:1;"/><text fill="#000000" font-family="sans-serif" font-size="13" lengthAdjust="spacing" textLength="159.7388" x="438.5083" y="358.1545">evaluate_candidate(bundle,</text><text fill="#000000" font-family="sans-serif" font-size="13" lengthAdjust="spacing" textLength="182.7554" x="427" y="374.5061">regime_summary, rc_summary,</text><text fill="#000000" font-family="sans-serif" font-size="13" lengthAdjust="spacing" textLength="119.2471" x="458.7542" y="390.8576">execution_evidence)</text></g><!--link Gate to RCCache--><g class="link" data-entity-1="ent0008" data-entity-2="ent0010" data-link-type="dependency" data-source-line="23" id="lnk16"><path d="M481.01,495.2394 C463.98,529.1994 439.8496,577.306 422.7796,611.346" fill="none" id="Gate-to-RCCache" style="stroke:#181818;stroke-width:1;"/><polygon fill="#181818" points="420.09,616.7094,427.7,610.4573,422.3313,612.2399,420.5488,606.8712,420.09,616.7094" style="stroke:#181818;stroke-width:1;"/><text fill="#000000" font-family="sans-serif" font-size="13" lengthAdjust="spacing" textLength="161.8462" x="462.56" y="544.5645">RC null lookup (or compute)</text></g><!--link Eval to FCache--><g class="link" data-entity-1="ent0007" data-entity-2="ent0011" data-link-type="dependency" data-source-line="24" id="lnk17"><path d="M530.71,298.0294 C403.58,320.3294 196.37,364.8694 149,424.6594 C105.03,480.1594 114.1616,563.7423 123.9016,611.1123" fill="none" id="Eval-to-FCache" style="stroke:#181818;stroke-width:1;"/><polygon fill="#181818" points="125.11,616.9894,127.2154,607.3682,124.103,612.0918,119.3793,608.9794,125.11,616.9894" style="stroke:#181818;stroke-width:1;"/><text fill="#000000" font-family="sans-serif" font-size="13" lengthAdjust="spacing" textLength="205.2134" x="150" y="467.8545">optional skip factor/regime compute</text></g><!--link CLI to Store--><g class="link" data-entity-1="ent0019" data-entity-2="ent0006" data-link-type="dependency" data-source-line="30" id="lnk21"><path d="M727.6,163.5494 C735.39,176.3394 743.53,190.7094 750,204.4394 C777.95,263.7894 787.95,278.9994 799,343.6594 C802.82,365.9994 806.06,373.1194 799,394.6594 C794.93,407.0894 791.1785,414.3233 783.3685,424.6533" fill="none" id="CLI-to-Store" style="stroke:#181818;stroke-width:1;"/><polygon fill="#181818" points="779.75,429.4394,788.3685,424.6726,782.7654,425.451,781.987,419.8479,779.75,429.4394" style="stroke:#181818;stroke-width:1;"/></g><!--link CLI to Eval--><g class="link" data-entity-1="ent0019" data-entity-2="ent0007" data-link-type="dependency" data-source-line="31" id="lnk22"><path d="M683.05,163.8694 C671.51,190.1394 659.1433,218.2761 648.4633,242.5861" fill="none" id="CLI-to-Eval" style="stroke:#181818;stroke-width:1;"/><polygon fill="#181818" points="646.05,248.0794,653.3322,241.4484,648.0611,243.5017,646.0078,238.2306,646.05,248.0794" style="stroke:#181818;stroke-width:1;"/></g><!--link UI to Store--><g class="link" data-entity-1="ent0020" data-entity-2="ent0006" data-link-type="dependency" data-source-line="32" id="lnk23"><path d="M899.24,154.7294 C893.35,208.0194 875.84,317.2994 827,394.6594 C818.79,407.6694 811.8075,415.6253 800.1775,425.6353" fill="none" id="UI-to-Store" style="stroke:#181818;stroke-width:1;"/><polygon fill="#181818" points="795.63,429.5494,805.0607,426.7099,799.4196,426.2876,799.8419,420.6466,795.63,429.5494" style="stroke:#181818;stroke-width:1;"/></g><!--link UI to Eval--><g class="link" data-entity-1="ent0020" data-entity-2="ent0007" data-link-type="dependency" data-source-line="33" id="lnk24"><path d="M847.04,154.9894 C800.32,182.1594 738.7663,217.9524 692.0763,245.1124" fill="none" id="UI-to-Eval" style="stroke:#181818;stroke-width:1;"/><polygon fill="#181818" points="686.89,248.1294,696.6808,247.0615,691.2119,245.6153,692.6582,240.1464,686.89,248.1294" style="stroke:#181818;stroke-width:1;"/></g><!--link Gate to GMN25--><g class="link" data-entity-1="ent0008" data-entity-2="ent0026" data-link-type="association" data-source-line="36" id="lnk27"><path d="M539.2,429.2894 C569.83,407.4794 613.31,380.8494 656.5,369.1594 C736.29,347.5594 763.73,344.0794 842.5,369.1594 C876.9,380.1094 910.02,403.6994 934.42,424.3994" fill="none" id="Gate-GMN25" style="stroke:#181818;stroke-width:1;stroke-dasharray:7,7;"/></g><?plantuml-src TLJ1Rjim3BtxAuYUqirD3xlrC63mqg503rsoO9S0XY8pZXfPyYGvRR0Ds4Vi2_Sb8wNOTPhjOaiY-KY-Hocee14Ud6riKDR0L-js6ssVuC-ltp1xRhLr8bXtW62X4APIbGZ8cmzIOXkmWid3LdY4TvTPrWgv4pN2nO9242QBp_SguEK5VCy0A52isVEYxRELiaVqApCPDgMgSl11XCxdAyDn7aCyT9s9_ureb3xmScLmhoeq4ij7RqqEq-cK4WeF3yL_ak8UJU24SH7nJb8p91l2eSKSMd7GLbGH_GWyotwEUqMtLn9Jaz8shJKK3HVI8GCEq2kZbGzm3JNojsjZljHcn8sadMBWNkYEtGYaT2YjgwZkBrk7VcjrLLYpKNKEwyvK6bDrCmev1Qb5KAQU3bYZYYRpWaZ5MZNKAJwZxE8Gz9Gcn4_aUj9n8UIM4CywdXTWEgs9JRbby44bU4jkN2ejZdBIgbOX9PWNZFYgzOsGn4SPiOYkL6JPGpSO12CHZBDFqdOKqeWWjmdnDW5IqMaIhwxUqpp03HJpvSVnsOpEHDkYgI2AdZ5zqPISRavrOh9OXFALCrD4lkSKJv8qD5F71dpNDC8T24WEQngudlfoe3wBc0n-f8VmUuArjRkkXObraR6ExjXBBRUzjsqPaKxzJhMG-BnEPVHXOr7lxuZcHQ2fRRGAP-8EzmTuZ5ScZJVVbTHpv9r0JgDU7fQMif1m79p3Nk5JFj3LN_QatVAETEDg1XM6NPpjvTYo71aoOuanf-fj0Bj9Omlnvsz8js-TSaYNI51tXv8eahkSx2-6g8-pwyu7WzwFZUVwa74YD3sKPQEyfzjGlW6xH-V8x2yp7YWkvrZKsePW6wuglagBs2xmEqj3CtfagPLXTCYFjg9_PdzGCOyeQScf__4m04r38qmdz2ZzNm00?></g></svg>