<?plantuml 1.2026.1?><svg xmlns="http://www.w3.org/2000/svg" xmlns:xlink="http://www.w3.org/1999/xlink" contentStyleType="text/css" data-diagram-type="DESCRIPTION" height="437px" preserveAspectRatio="none" style="width:675px;height:437px;background:#FFFFFF;" version="1.1" viewBox="0 0 675 437" width="675px" zoomAndPan="magnify"><title>System Context &#8212; Crypto Quantitative Research Platform (15ea583)</title><defs/><g><g class="title" data-source-line="1"><text fill="#000000" font-family="sans-serif" font-size="14" font-weight="bold" lengthAdjust="spacing" textLength="385.5332" x="138.1733" y="24.5332">System Context &#8212; Crypto Quantitative Research Platform</text></g><!--cluster CEX APIs--><g class="cluster" data-qualified-name="CEX APIs" data-source-line="6" id="ent0004"><path d="M226.8045,331.8165 C232.521,323.6832 239.4303,323.6018 244.9553,332.0264 C250.0671,325.4754 255.0856,324.3759 260.3739,331.8321 C263.7413,322.8486 271.4477,321.1545 277.2878,329.4055 C283.3812,320.7065 290.2497,321.3564 295.8413,329.9442 C299.3954,321.5437 304.9906,320.7268 311.2836,327.0768 C315.0704,319.8727 321.8011,317.1211 327.23,325.3839 C331.0792,318.0653 339.4332,317.59 343.9914,324.5516 C349.4498,317.4622 357.1751,317.5367 361.0042,326.3001 C365.7398,319.1248 373.8818,318.6515 378.3697,326.5848 C384.2862,319.8498 390.38,321.66 394.4315,328.7512 C400.8686,321.2068 408.5388,320.669 413.1822,330.6683 C417.8019,323.8646 424.7527,323.6164 428.8949,331.1902 C434.6544,322.968 441.5034,322.3479 447.2049,331.2522 C452.7016,323.3953 457.7817,323.8373 462.6189,331.891 C475.382,336.3781 475.3058,347.3461 465.5598,354.7314 C476.6426,359.5018 476.7988,366.2221 469.7919,374.8062 C477.2599,381.5373 474.9579,390.1245 466.3347,393.9497 C475.6153,401.2792 475.2066,410.5039 463.0609,414.4041 C459.0983,422.977 452.075,424.6305 445.0061,418.123 C439.0619,424.6583 433.7924,424.7741 428.8801,416.9631 C424.4203,425.509 418.1934,424.7743 413.4435,417.2416 C409.4755,426.5123 403.2946,428.485 395.886,420.8054 C390.0206,427.7733 384.3936,428.1933 378.7181,420.5816 C374.8773,429.6964 369.2351,430.2218 363.1599,422.6671 C357.3969,430.7477 349.5474,430.8581 345.3498,421.1039 C339.4245,430.7493 332.7157,430.4821 326.8047,421.09 C322.2565,428.2745 314.9112,428.3157 310.1176,421.3801 C304.8413,428.4515 298.803,427.1905 295.5596,419.3901 C289.9064,427.0484 284.5322,427.6629 278.7038,419.5777 C272.8953,428.3465 265.386,425.6415 261.6271,417.5071 C255.357,425.5974 250.5111,424.211 245.4367,416.2974 C239.7664,425.0425 232.1612,424.7902 227.1212,415.6518 C214.0782,412.0707 212.7014,405.0157 221.3767,395.3033 C209.6173,392.443 207.7961,384.3788 214.892,375.3811 C208.2602,365.7369 210.8613,358.5128 221.5689,354.3819 C212.6384,345.8086 214.2064,335.3946 226.8045,331.8165" fill="none" style="stroke:#181818;stroke-width:1;"/><text fill="#000000" font-family="sans-serif" font-size="14" font-weight="bold" lengthAdjust="spacing" textLength="63.7998" x="311.6201" y="350.3026">CEX APIs</text></g><!--cluster DEX APIs--><g class="cluster" data-qualified-name="DEX APIs" data-source-line="11" id="ent0007"><path d="M510.7083,332.3661 C513.2344,326.4201 518.6962,327.2809 521.6851,331.8845 C525.515,325.3033 529.4213,323.5838 534.8798,330.264 C536.996,324.2997 541.0696,323.8129 545.1596,328.3278 C548.6847,323.1248 552.328,322.5329 555.8932,328.2885 C558.9484,321.5588 564.7468,321.8588 568.612,327.4526 C571.9221,322.294 575.7966,322.5935 579.6324,326.8363 C583.0573,322.505 588.2481,323.3096 590.1929,328.4811 C593.2782,323.9048 598.0045,323.0072 601.2415,328.3115 C604.7573,322.5537 608.8683,322.4013 612.5548,328.1436 C616.0819,323.5274 621.796,323.5749 623.9807,329.5867 C628.1629,323.7109 633.8554,324.8575 635.8847,331.6153 C638.9593,325.479 644.9081,325.2301 648.1776,331.4209 C656.2598,333.8978 656.4166,339.8628 650.9627,345.0964 C658.4456,348.8262 660.7638,353.8579 654.3357,360.6119 C660.3772,363.8181 661.2849,368.4158 656.1572,373.2339 C662.8367,378.5438 661.5411,383.8904 654.205,387.2478 C659.6892,394.1396 658.7827,399.0106 650.3017,402.275 C657.134,407.6736 654.5185,412.6307 648.1659,415.9736 C644.8204,421.3843 640.2245,421.9128 636.2475,416.6808 C632.5518,421.1407 627.3733,420.7816 624.8459,415.3361 C622.3411,420.8465 617.6847,422.3009 613.3878,417.2873 C610.2233,422.7313 605.4889,423.6839 601.5293,418.1457 C597.8148,423.2987 592.2305,423.2055 589.5244,417.0729 C587.5289,422.2058 583.1618,422.63 580.1441,418.0613 C576.4951,424.1403 571.28,424.3968 567.2574,418.462 C563.3318,423.228 557.958,422.8015 556.1774,416.3443 C553.2227,420.4258 548.6931,421.4357 546.0865,415.9761 C543.3094,421.8825 537.2868,421.6441 533.9515,416.5944 C530.2487,421.2276 525.3393,420.8432 523.2553,414.9495 C519.0786,419.9105 514.2808,421.3302 510.5399,414.4803 C504.3546,411.1141 504.6422,406.9806 509.3223,402.5094 C501.3119,400.3162 499.4211,393.006 505.435,387.242 C498.7704,384.5451 497.9816,379.783 502.1102,374.311 C497.2626,368.0821 496.8063,363.0234 505.3316,359.7537 C500.6908,353.6802 501.5453,348.7412 509.3963,346.4982 C503.2289,341.7889 503.0676,335.7934 510.7083,332.3661" fill="none" style="stroke:#181818;stroke-width:1;"/><text fill="#000000" font-family="sans-serif" font-size="14" font-weight="bold" lengthAdjust="spacing" textLength="63.7998" x="546.1201" y="350.3026">DEX APIs</text></g><!--entity Coinbase--><g class="entity" data-qualified-name="CEX APIs.Coinbase" data-source-line="7" id="ent0005"><rect fill="#F1F1F1" height="47.6094" rx="2.5" ry="2.5" style="stroke:#181818;stroke-width:0.5;" width="99.1514" x="234.44" y="358.7694"/><rect fill="#F1F1F1" height="10" style="stroke:#181818;stroke-width:0.5;" width="15" x="313.5914" y="363.7694"/><rect fill="#F1F1F1" height="2" style="stroke:#181818;stroke-width:0.5;" width="4" x="311.5914" y="365.7694"/><rect fill="#F1F1F1" height="2" style="stroke:#181818;stroke-width:0.5;" width="4" x="311.5914" y="369.7694"/><text fill="#000000" font-family="sans-serif" font-size="14" lengthAdjust="spacing" textLength="59.1514" x="249.44" y="393.3026">Coinbase</text></g><!--entity Kraken--><g class="entity" data-qualified-name="CEX APIs.Kraken" data-source-line="8" id="ent0006"><rect fill="#F1F1F1" height="47.6094" rx="2.5" ry="2.5" style="stroke:#181818;stroke-width:0.5;" width="84.3584" x="368.84" y="358.7694"/><rect fill="#F1F1F1" height="10" style="stroke:#181818;stroke-width:0.5;" width="15" x="433.1984" y="363.7694"/><rect fill="#F1F1F1" height="2" style="stroke:#181818;stroke-width:0.5;" width="4" x="431.1984" y="365.7694"/><rect fill="#F1F1F1" height="2" style="stroke:#181818;stroke-width:0.5;" width="4" x="431.1984" y="369.7694"/><text fill="#000000" font-family="sans-serif" font-size="14" lengthAdjust="spacing" textLength="44.3584" x="383.84" y="393.3026">Kraken</text></g><!--entity Dexscreener--><g class="entity" data-qualified-name="DEX APIs.Dexscreener" data-source-line="12" id="ent0008"><rect fill="#F1F1F1" height="47.6094" rx="2.5" ry="2.5" style="stroke:#181818;stroke-width:0.5;" width="119.3652" x="518.33" y="358.7694"/><rect fill="#F1F1F1" height="10" style="stroke:#181818;stroke-width:0.5;" width="15" x="617.6952" y="363.7694"/><rect fill="#F1F1F1" height="2" style="stroke:#181818;stroke-width:0.5;" width="4" x="615.6952" y="365.7694"/><rect fill="#F1F1F1" height="2" style="stroke:#181818;stroke-width:0.5;" width="4" x="615.6952" y="369.7694"/><text fill="#000000" font-family="sans-serif" font-size="14" lengthAdjust="spacing" textLength="79.3652" x="533.33" y="393.3026">Dexscreener</text></g><!--entity User--><g class="entity" data-qualified-name="User" data-source-line="3" id="ent0002"><ellipse cx="351.0126" cy="52.6094" fill="#F1F1F1" rx="8" ry="8" style="stroke:#181818;stroke-width:0.5;"/><path d="M351.0126,60.6094 L351.0126,87.6094 M338.0126,68.6094 L364.0126,68.6094 M351.0126,87.6094 L338.0126,102.6094 M351.0126,87.6094 L364.0126,102.6094" fill="none" style="stroke:#181818;stroke-width:0.5;"/><text fill="#000000" font-family="sans-serif" font-size="14" lengthAdjust="spacing" textLength="72.3652" x="314.83" y="118.6426">Researcher</text></g><!--entity App--><g class="entity" data-qualified-name="App" data-source-line="4" id="ent0003"><rect fill="#F1F1F1" height="37.6094" rx="2.5" ry="2.5" style="stroke:#181818;stroke-width:0.5;" width="120.3652" x="290.83" y="210.4394"/><text fill="#000000" font-family="sans-serif" font-size="14" lengthAdjust="spacing" textLength="100.3652" x="300.83" y="234.9726">Crypto-Analyzer</text></g><!--entity DB--><g class="entity" data-qualified-name="DB" data-source-line="15" id="ent0009"><path d="M6,360.4694 C6,350.4694 44.0171,350.4694 44.0171,350.4694 C44.0171,350.4694 82.0342,350.4694 82.0342,360.4694 L82.0342,404.6881 C82.0342,414.6881 44.0171,414.6881 44.0171,414.6881 C44.0171,414.6881 6,414.6881 6,404.6881 L6,360.4694" fill="#F1F1F1" style="stroke:#181818;stroke-width:0.5;"/><path d="M6,360.4694 C6,370.4694 44.0171,370.4694 44.0171,370.4694 C44.0171,370.4694 82.0342,370.4694 82.0342,360.4694" fill="none" style="stroke:#181818;stroke-width:0.5;"/><text fill="#000000" font-family="sans-serif" font-size="14" lengthAdjust="spacing" textLength="42.7998" x="16" y="389.0026">SQLite</text><text fill="#000000" font-family="sans-serif" font-size="14" lengthAdjust="spacing" textLength="56.0342" x="16" y="406.612">(db.path)</text></g><g class="entity" data-qualified-name="GMN15" data-source-line="24" id="ent0016"><path d="M446.55,199.7194 L446.55,225.2394 L411.5,229.2394 L446.55,233.2394 L446.55,258.7741 A0,0 0 0 0 446.55,258.7741 L613.489,258.7741 A0,0 0 0 0 613.489,258.7741 L613.489,209.7194 L603.489,199.7194 L446.55,199.7194 A0,0 0 0 0 446.55,199.7194" fill="#FEFFDD" style="stroke:#181818;stroke-width:0.5;"/><path d="M603.489,199.7194 L603.489,209.7194 L613.489,209.7194 L603.489,199.7194" fill="#FEFFDD" style="stroke:#181818;stroke-width:0.5;"/><text fill="#000000" font-family="sans-serif" font-size="13" lengthAdjust="spacing" textLength="75.1372" x="452.55" y="218.2145">No API keys.</text><text fill="#000000" font-family="sans-serif" font-size="13" lengthAdjust="spacing" textLength="126.4707" x="452.55" y="234.5661">Public endpoints only.</text><text fill="#000000" font-family="sans-serif" font-size="13" lengthAdjust="spacing" textLength="145.939" x="452.55" y="250.9176">Local-first, research-only.</text></g><!--link User to App--><g class="link" data-entity-1="ent0002" data-entity-2="ent0003" data-link-type="dependency" data-source-line="17" id="lnk10"><path d="M351.02,122.2094 C351.02,150.6094 351.02,182.0494 351.02,203.9994" fill="none" id="User-to-App" style="stroke:#181818;stroke-width:1;"/><polygon fill="#181818" points="351.02,209.9994,355.02,200.9994,351.02,204.9994,347.02,200.9994,351.02,209.9994" style="stroke:#181818;stroke-width:1;"/><text fill="#000000" font-family="sans-serif" font-size="13" lengthAdjust="spacing" textLength="197.9897" x="352.02" y="166.2145">use (reports, backtest, dashboard)</text></g><!--link App to Coinbase--><g class="link" data-entity-1="ent0003" data-entity-2="ent0005" data-link-type="dependency" data-source-line="18" id="lnk11"><path d="M310.88,248.4294 C294.8,257.9694 277.98,271.3494 269.02,288.7694 C257.74,310.6794 262.7487,333.4597 270.5887,353.0297" fill="none" id="App-to-Coinbase" style="stroke:#181818;stroke-width:1;"/><polygon fill="#181818" points="272.82,358.5994,273.1862,348.7573,270.9606,353.958,265.7599,351.7324,272.82,358.5994" style="stroke:#181818;stroke-width:1;"/><text fill="#000000" font-family="sans-serif" font-size="13" lengthAdjust="spacing" textLength="109.0972" x="270.02" y="303.2645">spot prices (public)</text></g><!--link App to Kraken--><g class="link" data-entity-1="ent0003" data-entity-2="ent0006" data-link-type="dependency" data-source-line="19" id="lnk12"><path d="M364.63,248.3794 C372.44,259.5294 381.88,274.3994 388.02,288.7694 C397.72,311.5194 402.8459,333.3263 406.3359,352.5063" fill="none" id="App-to-Kraken" style="stroke:#181818;stroke-width:1;"/><polygon fill="#181818" points="407.41,358.4094,409.7342,348.8387,406.5149,353.4901,401.8634,350.2709,407.41,358.4094" style="stroke:#181818;stroke-width:1;"/><text fill="#000000" font-family="sans-serif" font-size="13" lengthAdjust="spacing" textLength="109.0972" x="395.42" y="303.2645">spot prices (public)</text></g><!--link App to Dexscreener--><g class="link" data-entity-1="ent0003" data-entity-2="ent0008" data-link-type="dependency" data-source-line="20" id="lnk13"><path d="M400.51,248.4094 C409.97,251.8594 419.8,255.4394 429.02,258.7694 C466.3,272.2494 481.49,264.7294 513.02,288.7694 C537.42,307.3794 553.4335,332.4557 564.3935,353.3557" fill="none" id="App-to-Dexscreener" style="stroke:#181818;stroke-width:1;"/><polygon fill="#181818" points="567.18,358.6694,566.5427,348.8412,564.8579,354.2413,559.4578,352.5565,567.18,358.6694" style="stroke:#181818;stroke-width:1;"/><text fill="#000000" font-family="sans-serif" font-size="13" lengthAdjust="spacing" textLength="135.8398" x="532.04" y="303.2645">DEX snapshots (public)</text></g><!--link App to DB--><g class="link" data-entity-1="ent0003" data-entity-2="ent0009" data-link-type="dependency" data-source-line="21" id="lnk14"><path d="M290.58,234.8994 C216.06,241.8894 95.38,257.7494 64.02,288.7694 C47.96,304.6494 43.597,324.1141 42.797,344.3541" fill="none" id="App-to-DB" style="stroke:#181818;stroke-width:1;"/><polygon fill="#181818" points="42.56,350.3494,46.9123,341.5144,42.7575,345.3533,38.9186,341.1984,42.56,350.3494" style="stroke:#181818;stroke-width:1;"/><text fill="#000000" font-family="sans-serif" font-size="13" lengthAdjust="spacing" textLength="190.0234" x="65.02" y="303.2645">read/write (single source of truth)</text></g><?plantuml-src XP7FIWCn4CRlUOfXJnLSlNiGQkj156aLGL0Fizcf6xfDmioikehWG_Y4Fed9jlKF2Duo-NxpPRwCEcq9BdjHMi4aUAKdXO-tTvXm7pN0l4ElJb7T0y452I7R1cOjwYBmoXYq6XYAhK9S00fS2R5Xieh-FjaNQxDoxB7jdpVCE4PZR1kwEkd7rp2UdKW1BmRWPXAShr3eBdFR8WkdZ4lom_NwQ5w_FAQ_FQRq99Q9FF70_wXpKusAsHMAo_cPKxhrexhQYwZDpZ3TzCYOd0BAyZ2F2WVG9Nh450Ehx4A5TgaakWirIbC5v7h7P30tR6TENHA3GcHdIM0KkwfrzfjRX_YF-Z5wGdDEyHYb2VeNV9GO9gpt7pdbWf6uOGSIEhO4OG7ANKffZ0z9PdVVQBxDwm0u3_aFOKczxALoDfW3-JgcHEcvuDi-2sV1Obik7ESFuCtooxMQQCZUvXC0?></g></svg>