<?plantuml 1.2026.1?><svg xmlns="http://www.w3.org/2000/svg" xmlns:xlink="http://www.w3.org/1999/xlink" contentStyleType="text/css" data-diagram-type="DESCRIPTION" height="694px" preserveAspectRatio="none" style="width:1404px;height:694px;background:#FFFFFF;" version="1.1" viewBox="0 0 1404 694" width="1404px" zoomAndPan="magnify"><title>Internal Architecture &#8212; Four Stages, One Database (93e36fe)</title><defs/><g><g class="title" data-source-line="1"><text fill="#000000" font-family="sans-serif" font-size="14" font-weight="bold" lengthAdjust="spacing" textLength="341.1953" x="524.4023" y="24.5332">Internal Architecture &#8212; Four Stages, One Database</text></g><!--cluster Ingestion--><g class="cluster" data-qualified-name="Ingestion" data-source-line="5" id="ent0003"><path d="M702.5,44.6094 L765.7207,44.6094 A3.75,3.75 0 0 1 768.2207,47.1094 L775.2207,68.2188 L1065.5,68.2188 A2.5,2.5 0 0 1 1068,70.7188 L1068,424.9594 A2.5,2.5 0 0 1 1065.5,427.4594 L702.5,427.4594 A2.5,2.5 0 0 1 700,424.9594 L700,47.1094 A2.5,2.5 0 0 1 702.5,44.6094" fill="none" style="stroke:#000000;stroke-width:1.5;"/><line style="stroke:#000000;stroke-width:1.5;" x1="700" x2="775.2207" y1="68.2188" y2="68.2188"/><text fill="#000000" font-family="sans-serif" font-size="14" font-weight="bold" lengthAdjust="spacing" textLength="62.2207" x="704" y="61.1426">Ingestion</text></g><!--cluster Materialization--><g class="cluster" data-qualified-name="Materialization" data-source-line="17" id="ent0013"><path d="M8.5,319.0494 L106.7412,319.0494 A3.75,3.75 0 0 1 109.2412,321.5494 L116.2412,342.6588 L187.5,342.6588 A2.5,2.5 0 0 1 190,345.1588 L190,433.7694 A2.5,2.5 0 0 1 187.5,436.2694 L8.5,436.2694 A2.5,2.5 0 0 1 6,433.7694 L6,321.5494 A2.5,2.5 0 0 1 8.5,319.0494" fill="none" style="stroke:#000000;stroke-width:1.5;"/><line style="stroke:#000000;stroke-width:1.5;" x1="6" x2="116.2412" y1="342.6588" y2="342.6588"/><text fill="#000000" font-family="sans-serif" font-size="14" font-weight="bold" lengthAdjust="spacing" textLength="97.2412" x="10" y="335.5826">Materialization</text></g><!--cluster Modeling--><g class="cluster" data-qualified-name="Modeling" data-source-line="22" id="ent0016"><path d="M1094.5,319.0494 L1156.9346,319.0494 A3.75,3.75 0 0 1 1159.4346,321.5494 L1166.4346,342.6588 L1394.5,342.6588 A2.5,2.5 0 0 1 1397,345.1588 L1397,594.9894 A2.5,2.5 0 0 1 1394.5,597.4894 L1094.5,597.4894 A2.5,2.5 0 0 1 1092,594.9894 L1092,321.5494 A2.5,2.5 0 0 1 1094.5,319.0494" fill="none" style="stroke:#000000;stroke-width:1.5;"/><line style="stroke:#000000;stroke-width:1.5;" x1="1092" x2="1166.4346" y1="342.6588" y2="342.6588"/><text fill="#000000" font-family="sans-serif" font-size="14" font-weight="bold" lengthAdjust="spacing" textLength="61.4346" x="1096" y="335.5826">Modeling</text></g><!--cluster Presentation--><g class="cluster" data-qualified-name="Presentation" data-source-line="31" id="ent0023"><path d="M238.5,319.0494 L324.2998,319.0494 A3.75,3.75 0 0 1 326.7998,321.5494 L333.7998,342.6588 L673.5,342.6588 A2.5,2.5 0 0 1 676,345.1588 L676,433.7694 A2.5,2.5 0 0 1 673.5,436.2694 L238.5,436.2694 A2.5,2.5 0 0 1 236,433.7694 L236,321.5494 A2.5,2.5 0 0 1 238.5,319.0494" fill="none" style="stroke:#000000;stroke-width:1.5;"/><line style="stroke:#000000;stroke-width:1.5;" x1="236" x2="333.7998" y1="342.6588" y2="342.6588"/><text fill="#000000" font-family="sans-serif" font-size="14" font-weight="bold" lengthAdjust="spacing" textLength="84.7998" x="240" y="335.5826">Presentation</text></g><!--entity Poller--><g class="entity" data-qualified-name="Ingestion.Poller" data-source-line="6" id="ent0004"><rect fill="#F1F1F1" height="65.2188" rx="2.5" ry="2.5" style="stroke:#181818;stroke-width:0.5;" width="107.6826" x="841.16" y="80.6094"/><rect fill="#F1F1F1" height="10" style="stroke:#181818;stroke-width:0.5;" width="15" x="928.8426" y="85.6094"/><rect fill="#F1F1F1" height="2" style="stroke:#181818;stroke-width:0.5;" width="4" x="926.8426" y="87.6094"/><rect fill="#F1F1F1" height="2" style="stroke:#181818;stroke-width:0.5;" width="4" x="926.8426" y="91.6094"/><text fill="#000000" font-family="sans-serif" font-size="14" lengthAdjust="spacing" textLength="35.793" x="856.16" y="115.1426">Poller</text><text fill="#000000" font-family="sans-serif" font-size="14" lengthAdjust="spacing" textLength="67.6826" x="856.16" y="132.752">(60s cycle)</text></g><!--entity SpotChain--><g class="entity" data-qualified-name="Ingestion.SpotChain" data-source-line="7" id="ent0005"><rect fill="#F1F1F1" height="65.2188" rx="2.5" ry="2.5" style="stroke:#181818;stroke-width:0.5;" width="172.6924" x="715.65" y="206.8294"/><rect fill="#F1F1F1" height="10" style="stroke:#181818;stroke-width:0.5;" width="15" x="868.3424" y="211.8294"/><rect fill="#F1F1F1" height="2" style="stroke:#181818;stroke-width:0.5;" width="4" x="866.3424" y="213.8294"/><rect fill="#F1F1F1" height="2" style="stroke:#181818;stroke-width:0.5;" width="4" x="866.3424" y="217.8294"/><text fill="#000000" font-family="sans-serif" font-size="14" lengthAdjust="spacing" textLength="66.1582" x="730.65" y="241.3626">Spot chain</text><text fill="#000000" font-family="sans-serif" font-size="14" lengthAdjust="spacing" textLength="132.6924" x="730.65" y="258.972">(Coinbase &#8594; Kraken)</text></g><!--entity DexChain--><g class="entity" data-qualified-name="Ingestion.DexChain" data-source-line="8" id="ent0006"><rect fill="#F1F1F1" height="65.2188" rx="2.5" ry="2.5" style="stroke:#181818;stroke-width:0.5;" width="128.6895" x="923.66" y="206.8294"/><rect fill="#F1F1F1" height="10" style="stroke:#181818;stroke-width:0.5;" width="15" x="1032.3495" y="211.8294"/><rect fill="#F1F1F1" height="2" style="stroke:#181818;stroke-width:0.5;" width="4" x="1030.3495" y="213.8294"/><rect fill="#F1F1F1" height="2" style="stroke:#181818;stroke-width:0.5;" width="4" x="1030.3495" y="217.8294"/><text fill="#000000" font-family="sans-serif" font-size="14" lengthAdjust="spacing" textLength="66.1445" x="938.66" y="241.3626">DEX chain</text><text fill="#000000" font-family="sans-serif" font-size="14" lengthAdjust="spacing" textLength="88.6895" x="938.66" y="258.972">(Dexscreener)</text></g><!--entity DbWriter--><g class="entity" data-qualified-name="Ingestion.DbWriter" data-source-line="9" id="ent0007"><rect fill="#F1F1F1" height="47.6094" rx="2.5" ry="2.5" style="stroke:#181818;stroke-width:0.5;" width="95.2207" x="754.39" y="363.8494"/><rect fill="#F1F1F1" height="10" style="stroke:#181818;stroke-width:0.5;" width="15" x="829.6107" y="368.8494"/><rect fill="#F1F1F1" height="2" style="stroke:#181818;stroke-width:0.5;" width="4" x="827.6107" y="370.8494"/><rect fill="#F1F1F1" height="2" style="stroke:#181818;stroke-width:0.5;" width="4" x="827.6107" y="374.8494"/><text fill="#000000" font-family="sans-serif" font-size="14" lengthAdjust="spacing" textLength="55.2207" x="769.39" y="398.3826">DbWriter</text></g><!--entity BarBuilder--><g class="entity" data-qualified-name="Materialization.BarBuilder" data-source-line="18" id="ent0014"><rect fill="#F1F1F1" height="65.2188" rx="2.5" ry="2.5" style="stroke:#181818;stroke-width:0.5;" width="152.0342" x="21.98" y="355.0494"/><rect fill="#F1F1F1" height="10" style="stroke:#181818;stroke-width:0.5;" width="15" x="154.0142" y="360.0494"/><rect fill="#F1F1F1" height="2" style="stroke:#181818;stroke-width:0.5;" width="4" x="152.0142" y="362.0494"/><rect fill="#F1F1F1" height="2" style="stroke:#181818;stroke-width:0.5;" width="4" x="152.0142" y="366.0494"/><text fill="#000000" font-family="sans-serif" font-size="14" lengthAdjust="spacing" textLength="67.7031" x="36.98" y="389.5826">Bar builder</text><text fill="#000000" font-family="sans-serif" font-size="14" lengthAdjust="spacing" textLength="112.0342" x="36.98" y="407.192">(materialize_bars)</text></g><!--entity Model--><g class="entity" data-qualified-name="Modeling.Model" data-source-line="23" id="ent0017"><rect fill="#F1F1F1" height="65.2188" rx="2.5" ry="2.5" style="stroke:#181818;stroke-width:0.5;" width="137.2617" x="1175.37" y="516.2694"/><rect fill="#F1F1F1" height="10" style="stroke:#181818;stroke-width:0.5;" width="15" x="1292.6317" y="521.2694"/><rect fill="#F1F1F1" height="2" style="stroke:#181818;stroke-width:0.5;" width="4" x="1290.6317" y="523.2694"/><rect fill="#F1F1F1" height="2" style="stroke:#181818;stroke-width:0.5;" width="4" x="1290.6317" y="527.2694"/><text fill="#000000" font-family="sans-serif" font-size="14" lengthAdjust="spacing" textLength="89.5029" x="1190.37" y="550.8026">data / features</text><text fill="#000000" font-family="sans-serif" font-size="14" lengthAdjust="spacing" textLength="97.2617" x="1190.37" y="568.412">factors / signals</text></g><!--entity Opt--><g class="entity" data-qualified-name="Modeling.Opt" data-source-line="24" id="ent0018"><rect fill="#F1F1F1" height="65.2188" rx="2.5" ry="2.5" style="stroke:#181818;stroke-width:0.5;" width="122.4756" x="1258.76" y="355.0494"/><rect fill="#F1F1F1" height="10" style="stroke:#181818;stroke-width:0.5;" width="15" x="1361.2356" y="360.0494"/><rect fill="#F1F1F1" height="2" style="stroke:#181818;stroke-width:0.5;" width="4" x="1359.2356" y="362.0494"/><rect fill="#F1F1F1" height="2" style="stroke:#181818;stroke-width:0.5;" width="4" x="1359.2356" y="366.0494"/><text fill="#000000" font-family="sans-serif" font-size="14" lengthAdjust="spacing" textLength="56.793" x="1273.76" y="389.5826">optimizer</text><text fill="#000000" font-family="sans-serif" font-size="14" lengthAdjust="spacing" textLength="82.4756" x="1273.76" y="407.192">walk_forward</text></g><!--entity Exp--><g class="entity" data-qualified-name="Modeling.Exp" data-source-line="25" id="ent0019"><rect fill="#F1F1F1" height="65.2188" rx="2.5" ry="2.5" style="stroke:#181818;stroke-width:0.5;" width="116.2549" x="1107.87" y="355.0494"/><rect fill="#F1F1F1" height="10" style="stroke:#181818;stroke-width:0.5;" width="15" x="1204.1249" y="360.0494"/><rect fill="#F1F1F1" height="2" style="stroke:#181818;stroke-width:0.5;" width="4" x="1202.1249" y="362.0494"/><rect fill="#F1F1F1" height="2" style="stroke:#181818;stroke-width:0.5;" width="4" x="1202.1249" y="366.0494"/><text fill="#000000" font-family="sans-serif" font-size="14" lengthAdjust="spacing" textLength="76.2549" x="1122.87" y="389.5826">experiments</text><text fill="#000000" font-family="sans-serif" font-size="14" lengthAdjust="spacing" textLength="45.8965" x="1122.87" y="407.192">registry</text></g><!--entity Reports--><g class="entity" data-qualified-name="Presentation.Reports" data-source-line="32" id="ent0024"><rect fill="#F1F1F1" height="65.2188" rx="2.5" ry="2.5" style="stroke:#181818;stroke-width:0.5;" width="117.8066" x="252.1" y="355.0494"/><rect fill="#F1F1F1" height="10" style="stroke:#181818;stroke-width:0.5;" width="15" x="349.9066" y="360.0494"/><rect fill="#F1F1F1" height="2" style="stroke:#181818;stroke-width:0.5;" width="4" x="347.9066" y="362.0494"/><rect fill="#F1F1F1" height="2" style="stroke:#181818;stroke-width:0.5;" width="4" x="347.9066" y="366.0494"/><text fill="#000000" font-family="sans-serif" font-size="14" lengthAdjust="spacing" textLength="49.0205" x="267.1" y="389.5826">Reports</text><text fill="#000000" font-family="sans-serif" font-size="14" lengthAdjust="spacing" textLength="77.8066" x="267.1" y="407.192">(report_*.py)</text></g><!--entity UI--><g class="entity" data-qualified-name="Presentation.UI" data-source-line="33" id="ent0025"><rect fill="#F1F1F1" height="65.2188" rx="2.5" ry="2.5" style="stroke:#181818;stroke-width:0.5;" width="115.4893" x="405.26" y="355.0494"/><rect fill="#F1F1F1" height="10" style="stroke:#181818;stroke-width:0.5;" width="15" x="500.7493" y="360.0494"/><rect fill="#F1F1F1" height="2" style="stroke:#181818;stroke-width:0.5;" width="4" x="498.7493" y="362.0494"/><rect fill="#F1F1F1" height="2" style="stroke:#181818;stroke-width:0.5;" width="4" x="498.7493" y="366.0494"/><text fill="#000000" font-family="sans-serif" font-size="14" lengthAdjust="spacing" textLength="55.2344" x="420.26" y="389.5826">Streamlit</text><text fill="#000000" font-family="sans-serif" font-size="14" lengthAdjust="spacing" textLength="75.4893" x="420.26" y="407.192">(dashboard)</text></g><!--entity API--><g class="entity" data-qualified-name="Presentation.API" data-source-line="34" id="ent0026"><rect fill="#F1F1F1" height="65.2188" rx="2.5" ry="2.5" style="stroke:#181818;stroke-width:0.5;" width="103.793" x="556.1" y="355.0494"/><rect fill="#F1F1F1" height="10" style="stroke:#181818;stroke-width:0.5;" width="15" x="639.893" y="360.0494"/><rect fill="#F1F1F1" height="2" style="stroke:#181818;stroke-width:0.5;" width="4" x="637.893" y="362.0494"/><rect fill="#F1F1F1" height="2" style="stroke:#181818;stroke-width:0.5;" width="4" x="637.893" y="366.0494"/><text fill="#000000" font-family="sans-serif" font-size="14" lengthAdjust="spacing" textLength="63.793" x="571.1" y="389.5826">REST API</text><text fill="#000000" font-family="sans-serif" font-size="14" lengthAdjust="spacing" textLength="59.1172" x="571.1" y="407.192">(FastAPI)</text></g><!--entity DB--><g class="entity" data-qualified-name="DB" data-source-line="3" id="ent0002"><path d="M451.25,526.7694 C451.25,516.7694 513.0015,516.7694 513.0015,516.7694 C513.0015,516.7694 574.7529,516.7694 574.7529,526.7694 L574.7529,570.9881 C574.7529,580.9881 513.0015,580.9881 513.0015,580.9881 C513.0015,580.9881 451.25,580.9881 451.25,570.9881 L451.25,526.7694" fill="#F1F1F1" style="stroke:#181818;stroke-width:0.5;"/><path d="M451.25,526.7694 C451.25,536.7694 513.0015,536.7694 513.0015,536.7694 C513.0015,536.7694 574.7529,536.7694 574.7529,526.7694" fill="none" style="stroke:#181818;stroke-width:0.5;"/><text fill="#000000" font-family="sans-serif" font-size="14" lengthAdjust="spacing" textLength="42.7998" x="461.25" y="555.3026">SQLite</text><text fill="#000000" font-family="sans-serif" font-size="14" lengthAdjust="spacing" textLength="103.5029" x="461.25" y="572.912">(dex_data.sqlite)</text></g><g class="entity" data-qualified-name="GMN35" data-source-line="47" id="ent0036"><path d="M414.69,644.4894 L414.69,687.1925 A0,0 0 0 0 414.69,687.1925 L611.317,687.1925 A0,0 0 0 0 611.317,687.1925 L611.317,654.4894 L601.317,644.4894 L517,644.4894 L513,581.2894 L509,644.4894 L414.69,644.4894 A0,0 0 0 0 414.69,644.4894" fill="#FEFFDD" style="stroke:#181818;stroke-width:0.5;"/><path d="M601.317,644.4894 L601.317,654.4894 L611.317,654.4894 L601.317,644.4894" fill="#FEFFDD" style="stroke:#181818;stroke-width:0.5;"/><text fill="#000000" font-family="sans-serif" font-size="13" lengthAdjust="spacing" textLength="126.458" x="420.69" y="662.9845">Single source of truth.</text><text fill="#000000" font-family="sans-serif" font-size="13" lengthAdjust="spacing" textLength="175.627" x="420.69" y="679.3361">Stages can run independently.</text></g><!--link Poller to SpotChain--><g class="link" data-entity-1="ent0004" data-entity-2="ent0005" data-link-type="dependency" data-source-line="10" id="lnk8"><path d="M871.05,146.2094 C857.16,164.7594 843.3354,183.226 829.4654,201.756" fill="none" id="Poller-to-SpotChain" style="stroke:#181818;stroke-width:1;"/><polygon fill="#181818" points="825.87,206.5594,834.4654,201.7512,828.8662,202.5565,828.0609,196.9573,825.87,206.5594" style="stroke:#181818;stroke-width:1;"/></g><!--link Poller to DexChain--><g class="link" data-entity-1="ent0004" data-entity-2="ent0006" data-link-type="dependency" data-source-line="11" id="lnk9"><path d="M918.95,146.2094 C932.84,164.7594 946.6646,183.226 960.5346,201.756" fill="none" id="Poller-to-DexChain" style="stroke:#181818;stroke-width:1;"/><polygon fill="#181818" points="964.13,206.5594,961.9391,196.9573,961.1338,202.5565,955.5346,201.7512,964.13,206.5594" style="stroke:#181818;stroke-width:1;"/></g><!--link SpotChain to DbWriter--><g class="link" data-entity-1="ent0005" data-entity-2="ent0007" data-link-type="dependency" data-source-line="12" id="lnk10"><path d="M802,272.5294 C802,300.0994 802,333.1894 802,357.7194" fill="none" id="SpotChain-to-DbWriter" style="stroke:#181818;stroke-width:1;"/><polygon fill="#181818" points="802,363.7194,806,354.7194,802,358.7194,798,354.7194,802,363.7194" style="stroke:#181818;stroke-width:1;"/></g><!--link DexChain to DbWriter--><g class="link" data-entity-1="ent0006" data-entity-2="ent0007" data-link-type="dependency" data-source-line="13" id="lnk11"><path d="M947.18,272.5294 C912.21,300.0194 867.4072,335.2415 836.1872,359.7815" fill="none" id="DexChain-to-DbWriter" style="stroke:#181818;stroke-width:1;"/><polygon fill="#181818" points="831.47,363.4894,841.0177,361.0724,835.401,360.3995,836.0739,354.7828,831.47,363.4894" style="stroke:#181818;stroke-width:1;"/></g><!--link DbWriter to DB--><g class="link" data-entity-1="ent0007" data-entity-2="ent0002" data-link-type="dependency" data-source-line="14" id="lnk12"><path d="M759.98,411.8094 C709.96,439.3694 631.4455,482.6247 575.5255,513.4247" fill="none" id="DbWriter-to-DB" style="stroke:#181818;stroke-width:1;"/><polygon fill="#181818" points="570.27,516.3194,580.0831,515.481,574.6496,513.9071,576.2235,508.4736,570.27,516.3194" style="stroke:#181818;stroke-width:1;"/><text fill="#000000" font-family="sans-serif" font-size="13" lengthAdjust="spacing" textLength="93.9326" x="690.1759" y="466.7645">write snapshots,</text><text fill="#000000" font-family="sans-serif" font-size="13" lengthAdjust="spacing" textLength="105.5044" x="684.39" y="483.1161">spot prices, health</text></g><!--link BarBuilder to DB--><g class="link" data-entity-1="ent0014" data-entity-2="ent0002" data-link-type="dependency" data-source-line="19" id="lnk15"><path d="M76.15,420.5694 C64.79,441.4594 56.23,468.1394 72,486.2694 C120.39,541.8894 335.51,548.8338 445.09,548.7538" fill="none" id="BarBuilder-to-DB" style="stroke:#181818;stroke-width:1;"/><polygon fill="#181818" points="451.09,548.7494,442.09,544.7494,446.09,548.7494,442.09,552.7494,451.09,548.7494" style="stroke:#181818;stroke-width:1;"/><text fill="#000000" font-family="sans-serif" font-size="13" lengthAdjust="spacing" textLength="88.8926" x="97.1941" y="466.7645">read snapshots</text><text fill="#000000" font-family="sans-serif" font-size="13" lengthAdjust="spacing" textLength="137.2808" x="73" y="483.1161">write bars_5min, 1h, 1D</text></g><!--link DB to BarBuilder--><g class="link" data-entity-1="ent0002" data-entity-2="ent0014" data-link-type="dependency" data-source-line="40" id="lnk30"><path d="M450.93,538.4894 C399.77,529.3394 326.13,512.8494 266,486.2694 C241.08,475.2494 238.32,466.3394 215,452.2694 C197.18,441.5194 182.7064,433.3159 164.5864,423.5059" fill="none" id="DB-to-BarBuilder" style="stroke:#181818;stroke-width:1;"/><polygon fill="#181818" points="159.31,420.6494,165.3202,428.4518,163.707,423.0299,169.1289,421.4167,159.31,420.6494" style="stroke:#181818;stroke-width:1;"/><text fill="#000000" font-family="sans-serif" font-size="13" lengthAdjust="spacing" textLength="59.2617" x="267" y="474.7645">snapshots</text></g><!--link Model to DB--><g class="link" data-entity-1="ent0017" data-entity-2="ent0002" data-link-type="dependency" data-source-line="26" id="lnk20"><path d="M1174.88,548.8794 C1032.96,548.8794 716.66,548.8794 581.01,548.8794" fill="none" id="Model-to-DB" style="stroke:#181818;stroke-width:1;"/><polygon fill="#181818" points="575.01,548.8794,584.01,552.8794,580.01,548.8794,584.01,544.8794,575.01,548.8794" style="stroke:#181818;stroke-width:1;"/><text fill="#000000" font-family="sans-serif" font-size="13" lengthAdjust="spacing" textLength="86.7153" x="832.06" y="542.3745">read bars, spot</text></g><!--link DB to Model--><g class="link" data-entity-1="ent0002" data-entity-2="ent0017" data-link-type="dependency" data-source-line="41" id="lnk31"><path d="M575.01,548.8794 C710.66,548.8794 1026.96,548.8794 1168.88,548.8794" fill="none" id="DB-to-Model" style="stroke:#181818;stroke-width:1;"/><polygon fill="#181818" points="1174.88,548.8794,1165.88,544.8794,1169.88,548.8794,1165.88,552.8794,1174.88,548.8794" style="stroke:#181818;stroke-width:1;"/><text fill="#000000" font-family="sans-serif" font-size="13" lengthAdjust="spacing" textLength="57.0845" x="846.56" y="542.3745">bars, spot</text></g><!--link Opt to Model--><g class="link" data-entity-1="ent0018" data-entity-2="ent0017" data-link-type="dependency" data-source-line="27" id="lnk21"><path d="M1304.8,420.4994 C1291.59,448.1794 1275.1244,482.6645 1261.8844,510.4045" fill="none" id="Opt-to-Model" style="stroke:#181818;stroke-width:1;"/><polygon fill="#181818" points="1259.3,515.8194,1266.7866,509.4201,1261.4537,511.307,1259.5668,505.9741,1259.3,515.8194" style="stroke:#181818;stroke-width:1;"/></g><!--link Exp to DB--><g class="link" data-entity-1="ent0019" data-entity-2="ent0002" data-link-type="dependency" data-source-line="28" id="lnk22"><path d="M1116.93,420.7094 C1101.75,429.4594 1084.63,438.1894 1068,444.2694 C896.07,507.0994 685.6047,532.8488 581.0947,542.4788" fill="none" id="Exp-to-DB" style="stroke:#181818;stroke-width:1;"/><polygon fill="#181818" points="575.12,543.0294,584.4491,546.1867,580.0989,542.5706,583.715,538.2204,575.12,543.0294" style="stroke:#181818;stroke-width:1;"/><text fill="#000000" font-family="sans-serif" font-size="13" lengthAdjust="spacing" textLength="85.979" x="1040.34" y="474.7645">read/write runs</text></g><!--link Reports to DB--><g class="link" data-entity-1="ent0024" data-entity-2="ent0002" data-link-type="dependency" data-source-line="35" id="lnk27"><path d="M320.37,420.4594 C328.02,441.5594 340.75,468.5394 360,486.2694 C385.38,509.6394 415.0359,522.8929 445.3859,532.2429" fill="none" id="Reports-to-DB" style="stroke:#181818;stroke-width:1;"/><polygon fill="#181818" points="451.12,534.0094,443.6966,527.5369,446.3416,532.5373,441.3412,535.1823,451.12,534.0094" style="stroke:#181818;stroke-width:1;"/></g><!--link DB to Reports--><g class="link" data-entity-1="ent0002" data-entity-2="ent0024" data-link-type="dependency" data-source-line="42" id="lnk32"><path d="M458.85,516.4294 C444.23,507.2494 428.68,496.8294 415,486.2694 C388.93,466.1394 366.1301,444.8146 346.1501,424.9046" fill="none" id="DB-to-Reports" style="stroke:#181818;stroke-width:1;"/><polygon fill="#181818" points="341.9,420.6694,345.4517,429.8555,345.4417,424.1987,351.0986,424.1888,341.9,420.6694" style="stroke:#181818;stroke-width:1;"/><text fill="#000000" font-family="sans-serif" font-size="13" lengthAdjust="spacing" textLength="25.3018" x="416" y="474.7645">data</text></g><!--link UI to DB--><g class="link" data-entity-1="ent0025" data-entity-2="ent0002" data-link-type="dependency" data-source-line="36" id="lnk28"><path d="M478.45,420.5594 C482.9,430.5494 487.5,441.7294 491,452.2694 C497.97,473.2794 502.3579,491.727 506.1479,510.587" fill="none" id="UI-to-DB" style="stroke:#181818;stroke-width:1;"/><polygon fill="#181818" points="507.33,516.4694,509.4785,506.8577,506.3449,511.5674,501.6353,508.4338,507.33,516.4694" style="stroke:#181818;stroke-width:1;"/></g><!--link DB to UI--><g class="link" data-entity-1="ent0002" data-entity-2="ent0025" data-link-type="dependency" data-source-line="43" id="lnk33"><path d="M475.54,516.2794 C467.59,507.4594 460.3,497.2594 456,486.2694 C447.82,465.3894 448.7495,445.9701 452.7195,426.3601" fill="none" id="DB-to-UI" style="stroke:#181818;stroke-width:1;"/><polygon fill="#181818" points="453.91,420.4794,448.2037,428.5067,452.9179,425.38,456.0447,430.0941,453.91,420.4794" style="stroke:#181818;stroke-width:1;"/><text fill="#000000" font-family="sans-serif" font-size="13" lengthAdjust="spacing" textLength="25.3018" x="457" y="474.7645">data</text></g><!--link API to DB--><g class="link" data-entity-1="ent0026" data-entity-2="ent0002" data-link-type="dependency" data-source-line="37" id="lnk29"><path d="M589,420.4994 C572.38,448.3594 551.4444,483.4469 534.8744,511.2169" fill="none" id="API-to-DB" style="stroke:#181818;stroke-width:1;"/><polygon fill="#181818" points="531.8,516.3694,539.8466,510.6903,534.362,512.0756,532.9766,506.5911,531.8,516.3694" style="stroke:#181818;stroke-width:1;"/></g><!--link DB to API--><g class="link" data-entity-1="ent0002" data-entity-2="ent0026" data-link-type="dependency" data-source-line="44" id="lnk34"><path d="M548.55,516.5394 C557.41,507.4394 566.28,497.0294 573,486.2694 C585.68,465.9594 592.9809,446.1783 598.6609,426.3083" fill="none" id="DB-to-API" style="stroke:#181818;stroke-width:1;"/><polygon fill="#181818" points="600.31,420.5394,593.9904,428.0934,598.9358,425.3468,601.6823,430.2922,600.31,420.5394" style="stroke:#181818;stroke-width:1;"/><text fill="#000000" font-family="sans-serif" font-size="13" lengthAdjust="spacing" textLength="25.3018" x="590.29" y="474.7645">data</text></g><?plantuml-src RLJ1ZXen3BtFLrYSjXNBjeVsmA7Iih0IQgkbfQlsW8HCnZ0HcIHDWe1MbNhg1rJzmlsIEfCPO5WE8CT-Vdvsd0aoA8An3kGqAhXref21HDWuWgVV_-3UR1nC0wx8T-514mmnu08zPLbUMz2PVlh0IJDzbTDk7jqz_rsnvqK7qCDma6KMnPeve3FMp1IaqHtucG48KrgZIGVeJ8nIv9ZaxIiFOYzKdPxyRUpKcW2YGAaPVsUahdGy_VaBxnskIQVCYBgBe7RoSFJja3kadHUEI9EhnTBkKihYg-D-N8BK1uOaRN1z_QvLxCHzmdT0fC2HfS4yyzTcyW-W3zju1g_H-i84tvrf7oTXdHJnVWf25OhirycyFo8JI5Jo1rwS-W0TB3PIvTNeomEQvWjqFis4COC4uTpZuIZB4UP7LJETP4Q2-PjIwYwyBlWtR0ipEIcfLyyKnVs16rWInYLajYMAO9nddvShNb9VYQhosvd61bcoTEvaYsezNngtHPTNy0SRsc3QMMwrP9jBE5f97zo-Wevsbg4L_rcBiQCkn94pW1chS2E4qzhmcpG6jz6-rVc4k-Aob-_ZCrdZegGhLrdpbpsxJzTGXyvUGk1I9J-s-FhG5ml37IVyu_YCUZJz0hUJCIFlqGUs4euD1jRiTGliU1mVROOq1-w4Euo7aqte7s-_YQRvzKzdLaUQIds8LzrukLpR4MlMdaoRk4yc15E2MIPDKruU_dHv_a09YjxWDg7enKZrkGA1EWuVfCx94l_feFQzZ2s8VDb_?></g></svg>