<?plantuml 1.2026.1?><svg xmlns="http://www.w3.org/2000/svg" xmlns:xlink="http://www.w3.org/1999/xlink" contentStyleType="text/css" data-diagram-type="DESCRIPTION" height="440px" preserveAspectRatio="none" style="width:699px;height:440px;background:#FFFFFF;" version="1.1" viewBox="0 0 699 440" width="699px" zoomAndPan="magnify"><title>System Context &#8212; Crypto Quantitative Research Platform</title><defs/><g><g class="title" data-source-line="1"><text fill="#000000" font-family="sans-serif" font-size="14" font-weight="bold" lengthAdjust="spacing" textLength="385.5332" x="150.0383" y="24.5332">System Context &#8212; Crypto Quantitative Research Platform</text></g><!--cluster CEX APIs--><g class="cluster" data-qualified-name="CEX APIs" data-source-line="6" id="ent0004"><path d="M250.0567,331.3505 C255.9787,322.1805 262.6968,322.1926 268.4073,331.5598 C273.8965,323.1976 279.6969,323.518 285.2475,331.4966 C289.9283,322.93 294.5722,323.427 300.3122,330.4748 C305.7881,319.8666 312.3458,320.8386 319.5059,328.7271 C323.764,320.4736 328.5318,318.4209 335.3057,326.2564 C341.4317,317.8333 347.8927,319.8294 352.2659,328.0432 C357.2272,321.4029 361.9979,320.9226 367.8163,326.9949 C373.4324,318.6401 380.1354,317.6036 386.7987,325.7934 C392.5695,320.4018 398.0566,319.6708 401.5263,328.2236 C407.1176,320.9021 415.7153,320.5335 420.0126,329.6765 C424.4977,321.5173 432.1266,322.287 436.7551,329.5205 C442.4124,321.2284 449.4461,323.1932 454.2428,330.4862 C458.853,324.2305 465.2175,325.1354 468.5068,331.93 C474.8631,322.0491 481.6984,322.9413 487.0515,332.8692 C497.5843,337.6568 496.1674,345.7465 488.4459,351.8735 C499.0379,356.7571 499.3752,366.9844 490.6386,373.8008 C498.9517,380.8415 501.1312,389.6496 489.3257,395.4715 C498.7465,403.4122 496.2664,410.5486 486.1359,415.3525 C480.9696,425.5478 474.7697,425.1308 468.2248,416.6765 C464.4986,423.4363 458.0678,424.6401 453.541,417.5237 C450.9118,427.0675 442.6847,427.1684 437.1843,420.4034 C432.5272,429.7774 426.1324,431.4972 418.9914,422.921 C414.7356,429.6979 407.7103,429.1128 403.9236,422.397 C400.3547,432.4168 391.3357,432.9752 385.0114,425.3504 C380.349,432.9628 375.0071,433.7955 369.5343,426.1735 C363.338,433.2085 357.6603,432.4481 352.8124,424.6531 C347.0053,433.3587 340.9623,433.12 335.6691,424.1546 C329.4853,432.9235 322.4086,431.4056 318.0528,422.3481 C312.3335,428.2168 304.6903,425.8705 302.1796,418.5008 C296.1691,425.4197 290.2142,427.092 284.6985,417.9619 C279.0456,424.9318 273.6864,425.5317 267.7637,418.2832 C260.9587,425.2092 255.3571,425.3964 250.7865,415.9643 C238.7757,410.3542 238.6512,402.4502 248.649,394.6346 C238.6912,389.6618 239.0157,380.9098 247.1418,374.578 C237.269,368.295 237.9221,359.1549 248.7698,354.5568 C236.6441,347.7395 240.0709,336.9416 250.0567,331.3505" fill="none" style="stroke:#181818;stroke-width:1;"/><text fill="#000000" font-family="sans-serif" font-size="14" font-weight="bold" lengthAdjust="spacing" textLength="63.7998" x="335.3501" y="350.3026">CEX APIs</text></g><!--cluster DEX APIs--><g class="cluster" data-qualified-name="DEX APIs" data-source-line="11" id="ent0007"><path d="M534.4383,332.3661 C536.9644,326.4201 542.4262,327.2809 545.4151,331.8845 C549.245,325.3033 553.1513,323.5838 558.6098,330.264 C560.726,324.2997 564.7996,323.8129 568.8896,328.3278 C572.4147,323.1248 576.058,322.5329 579.6232,328.2885 C582.6784,321.5588 588.4768,321.8588 592.342,327.4526 C595.6521,322.294 599.5266,322.5935 603.3624,326.8363 C606.7873,322.505 611.9781,323.3096 613.9229,328.4811 C617.0082,323.9048 621.7345,323.0072 624.9715,328.3115 C628.4873,322.5537 632.5983,322.4013 636.2848,328.1436 C639.8119,323.5274 645.526,323.5749 647.7107,329.5867 C651.8929,323.7109 657.5854,324.8575 659.6147,331.6153 C662.6893,325.479 668.6381,325.2301 671.9076,331.4209 C679.9898,333.8978 680.1466,339.8628 674.6927,345.0964 C682.1756,348.8262 684.4938,353.8579 678.0657,360.6119 C684.1072,363.8181 685.0149,368.4158 679.8872,373.2339 C686.5667,378.5438 685.2711,383.8904 677.935,387.2478 C683.4192,394.1396 682.5127,399.0106 674.0317,402.275 C680.864,407.6736 678.2485,412.6307 671.8959,415.9736 C668.5504,421.3843 663.9545,421.9128 659.9775,416.6808 C656.2818,421.1407 651.1033,420.7816 648.5759,415.3361 C646.0711,420.8465 641.4147,422.3009 637.1178,417.2873 C633.9533,422.7313 629.2189,423.6839 625.2593,418.1457 C621.5448,423.2987 615.9605,423.2055 613.2544,417.0729 C611.2589,422.2058 606.8918,422.63 603.8741,418.0613 C600.2251,424.1403 595.01,424.3968 590.9874,418.462 C587.0618,423.228 581.688,422.8015 579.9074,416.3443 C576.9527,420.4258 572.4231,421.4357 569.8165,415.9761 C567.0394,421.8825 561.0168,421.6441 557.6815,416.5944 C553.9787,421.2276 549.0693,420.8432 546.9853,414.9495 C542.8086,419.9105 538.0108,421.3302 534.2699,414.4803 C528.0846,411.1141 528.3722,406.9806 533.0523,402.5094 C525.0419,400.3162 523.1511,393.006 529.165,387.242 C522.5004,384.5451 521.7116,379.783 525.8402,374.311 C520.9926,368.0821 520.5363,363.0234 529.0616,359.7537 C524.4208,353.6802 525.2753,348.7412 533.1263,346.4982 C526.9589,341.7889 526.7976,335.7934 534.4383,332.3661" fill="none" style="stroke:#181818;stroke-width:1;"/><text fill="#000000" font-family="sans-serif" font-size="14" font-weight="bold" lengthAdjust="spacing" textLength="63.7998" x="569.8501" y="350.3026">DEX APIs</text></g><!--entity Coinbase--><g class="entity" data-qualified-name="CEX APIs.Coinbase" data-source-line="7" id="ent0005"><rect fill="#F1F1F1" height="47.6094" rx="2.5" ry="2.5" style="stroke:#181818;stroke-width:0.5;" width="99.1514" x="258.18" y="358.7694"/><rect fill="#F1F1F1" height="10" style="stroke:#181818;stroke-width:0.5;" width="15" x="337.3314" y="363.7694"/><rect fill="#F1F1F1" height="2" style="stroke:#181818;stroke-width:0.5;" width="4" x="335.3314" y="365.7694"/><rect fill="#F1F1F1" height="2" style="stroke:#181818;stroke-width:0.5;" width="4" x="335.3314" y="369.7694"/><text fill="#000000" font-family="sans-serif" font-size="14" lengthAdjust="spacing" textLength="59.1514" x="273.18" y="393.3026">Coinbase</text></g><!--entity Kraken--><g class="entity" data-qualified-name="CEX APIs.Kraken" data-source-line="8" id="ent0006"><rect fill="#F1F1F1" height="47.6094" rx="2.5" ry="2.5" style="stroke:#181818;stroke-width:0.5;" width="84.3584" x="392.57" y="358.7694"/><rect fill="#F1F1F1" height="10" style="stroke:#181818;stroke-width:0.5;" width="15" x="456.9284" y="363.7694"/><rect fill="#F1F1F1" height="2" style="stroke:#181818;stroke-width:0.5;" width="4" x="454.9284" y="365.7694"/><rect fill="#F1F1F1" height="2" style="stroke:#181818;stroke-width:0.5;" width="4" x="454.9284" y="369.7694"/><text fill="#000000" font-family="sans-serif" font-size="14" lengthAdjust="spacing" textLength="44.3584" x="407.57" y="393.3026">Kraken</text></g><!--entity Dexscreener--><g class="entity" data-qualified-name="DEX APIs.Dexscreener" data-source-line="12" id="ent0008"><rect fill="#F1F1F1" height="47.6094" rx="2.5" ry="2.5" style="stroke:#181818;stroke-width:0.5;" width="119.3652" x="542.07" y="358.7694"/><rect fill="#F1F1F1" height="10" style="stroke:#181818;stroke-width:0.5;" width="15" x="641.4352" y="363.7694"/><rect fill="#F1F1F1" height="2" style="stroke:#181818;stroke-width:0.5;" width="4" x="639.4352" y="365.7694"/><rect fill="#F1F1F1" height="2" style="stroke:#181818;stroke-width:0.5;" width="4" x="639.4352" y="369.7694"/><text fill="#000000" font-family="sans-serif" font-size="14" lengthAdjust="spacing" textLength="79.3652" x="557.07" y="393.3026">Dexscreener</text></g><!--entity User--><g class="entity" data-qualified-name="User" data-source-line="3" id="ent0002"><ellipse cx="374.7526" cy="52.6094" fill="#F1F1F1" rx="8" ry="8" style="stroke:#181818;stroke-width:0.5;"/><path d="M374.7526,60.6094 L374.7526,87.6094 M361.7526,68.6094 L387.7526,68.6094 M374.7526,87.6094 L361.7526,102.6094 M374.7526,87.6094 L387.7526,102.6094" fill="none" style="stroke:#181818;stroke-width:0.5;"/><text fill="#000000" font-family="sans-serif" font-size="14" lengthAdjust="spacing" textLength="72.3652" x="338.57" y="118.6426">Researcher</text></g><!--entity App--><g class="entity" data-qualified-name="App" data-source-line="4" id="ent0003"><rect fill="#F1F1F1" height="37.6094" rx="2.5" ry="2.5" style="stroke:#181818;stroke-width:0.5;" width="120.3652" x="314.57" y="210.4394"/><text fill="#000000" font-family="sans-serif" font-size="14" lengthAdjust="spacing" textLength="100.3652" x="324.57" y="234.9726">Crypto-Analyzer</text></g><!--entity DB--><g class="entity" data-qualified-name="DB" data-source-line="15" id="ent0009"><path d="M6,360.4694 C6,350.4694 67.7515,350.4694 67.7515,350.4694 C67.7515,350.4694 129.5029,350.4694 129.5029,360.4694 L129.5029,404.6881 C129.5029,414.6881 67.7515,414.6881 67.7515,414.6881 C67.7515,414.6881 6,414.6881 6,404.6881 L6,360.4694" fill="#F1F1F1" style="stroke:#181818;stroke-width:0.5;"/><path d="M6,360.4694 C6,370.4694 67.7515,370.4694 67.7515,370.4694 C67.7515,370.4694 129.5029,370.4694 129.5029,360.4694" fill="none" style="stroke:#181818;stroke-width:0.5;"/><text fill="#000000" font-family="sans-serif" font-size="14" lengthAdjust="spacing" textLength="42.7998" x="16" y="389.0026">SQLite</text><text fill="#000000" font-family="sans-serif" font-size="14" lengthAdjust="spacing" textLength="103.5029" x="16" y="406.612">(dex_data.sqlite)</text></g><g class="entity" data-qualified-name="GMN15" data-source-line="24" id="ent0016"><path d="M470.28,199.7194 L470.28,225.2394 L435.23,229.2394 L470.28,233.2394 L470.28,258.7741 A0,0 0 0 0 470.28,258.7741 L637.219,258.7741 A0,0 0 0 0 637.219,258.7741 L637.219,209.7194 L627.219,199.7194 L470.28,199.7194 A0,0 0 0 0 470.28,199.7194" fill="#FEFFDD" style="stroke:#181818;stroke-width:0.5;"/><path d="M627.219,199.7194 L627.219,209.7194 L637.219,209.7194 L627.219,199.7194" fill="#FEFFDD" style="stroke:#181818;stroke-width:0.5;"/><text fill="#000000" font-family="sans-serif" font-size="13" lengthAdjust="spacing" textLength="75.1372" x="476.28" y="218.2145">No API keys.</text><text fill="#000000" font-family="sans-serif" font-size="13" lengthAdjust="spacing" textLength="126.4707" x="476.28" y="234.5661">Public endpoints only.</text><text fill="#000000" font-family="sans-serif" font-size="13" lengthAdjust="spacing" textLength="145.939" x="476.28" y="250.9176">Local-first, research-only.</text></g><!--link User to App--><g class="link" data-entity-1="ent0002" data-entity-2="ent0003" data-link-type="dependency" data-source-line="17" id="lnk10"><path d="M374.75,122.2094 C374.75,150.6094 374.75,182.0494 374.75,203.9994" fill="none" id="User-to-App" style="stroke:#181818;stroke-width:1;"/><polygon fill="#181818" points="374.75,209.9994,378.75,200.9994,374.75,204.9994,370.75,200.9994,374.75,209.9994" style="stroke:#181818;stroke-width:1;"/><text fill="#000000" font-family="sans-serif" font-size="13" lengthAdjust="spacing" textLength="197.9897" x="375.75" y="166.2145">use (reports, backtest, dashboard)</text></g><!--link App to Coinbase--><g class="link" data-entity-1="ent0003" data-entity-2="ent0005" data-link-type="dependency" data-source-line="18" id="lnk11"><path d="M334.62,248.4294 C318.53,257.9694 301.72,271.3494 292.75,288.7694 C281.47,310.6794 286.4887,333.4597 294.3287,353.0297" fill="none" id="App-to-Coinbase" style="stroke:#181818;stroke-width:1;"/><polygon fill="#181818" points="296.56,358.5994,296.9262,348.7573,294.7006,353.958,289.4999,351.7324,296.56,358.5994" style="stroke:#181818;stroke-width:1;"/><text fill="#000000" font-family="sans-serif" font-size="13" lengthAdjust="spacing" textLength="109.0972" x="293.75" y="303.2645">spot prices (public)</text></g><!--link App to Kraken--><g class="link" data-entity-1="ent0003" data-entity-2="ent0006" data-link-type="dependency" data-source-line="19" id="lnk12"><path d="M388.36,248.3794 C396.17,259.5294 405.62,274.3994 411.75,288.7694 C421.46,311.5194 426.5889,333.3258 430.0689,352.5058" fill="none" id="App-to-Kraken" style="stroke:#181818;stroke-width:1;"/><polygon fill="#181818" points="431.14,358.4094,433.469,348.8399,430.2474,353.4897,425.5975,350.2681,431.14,358.4094" style="stroke:#181818;stroke-width:1;"/><text fill="#000000" font-family="sans-serif" font-size="13" lengthAdjust="spacing" textLength="109.0972" x="419.16" y="303.2645">spot prices (public)</text></g><!--link App to Dexscreener--><g class="link" data-entity-1="ent0003" data-entity-2="ent0008" data-link-type="dependency" data-source-line="20" id="lnk13"><path d="M424.25,248.4094 C433.7,251.8594 443.53,255.4394 452.75,258.7694 C490.03,272.2494 505.23,264.7294 536.75,288.7694 C561.15,307.3794 577.1615,332.4567 588.1315,353.3567" fill="none" id="App-to-Dexscreener" style="stroke:#181818;stroke-width:1;"/><polygon fill="#181818" points="590.92,358.6694,590.279,348.8414,588.5962,354.2422,583.1955,352.5594,590.92,358.6694" style="stroke:#181818;stroke-width:1;"/><text fill="#000000" font-family="sans-serif" font-size="13" lengthAdjust="spacing" textLength="135.8398" x="555.77" y="303.2645">DEX snapshots (public)</text></g><!--link App to DB--><g class="link" data-entity-1="ent0003" data-entity-2="ent0009" data-link-type="dependency" data-source-line="21" id="lnk14"><path d="M314.32,234.8994 C239.79,241.8894 119.12,257.7494 87.75,288.7694 C71.7,304.6494 67.3399,324.1142 66.5299,344.3542" fill="none" id="App-to-DB" style="stroke:#181818;stroke-width:1;"/><polygon fill="#181818" points="66.29,350.3494,70.6467,341.5165,66.4899,345.3534,62.6531,341.1966,66.29,350.3494" style="stroke:#181818;stroke-width:1;"/><text fill="#000000" font-family="sans-serif" font-size="13" lengthAdjust="spacing" textLength="190.0234" x="88.75" y="303.2645">read/write (single source of truth)</text></g><?plantuml-src XPBFIWCn4CRlUOfXJosuUlSWrDQ3A58LGL2HQNRgXgv9d9dLhYBu43wXJsAoRVq3WhUT-NxpPRvarMb3SDw9qZsCWrTQAdoylSEOkwW1JblqwXJLFHASaH2ohM7QeCu3tnk3LWD3iL682q212o4sJ5RHtoNxOcLMZZmstVEQ6SLeZ6r2MoNzu196qqCfuCK0N8s3ypCKkidSfiZ24UE2VDzUVPhNBu_9Ruy9BSKoaIVk-Hzr7gfGCRj2SNvwx9Ik_Q2YvMrkRyj3aph3Vil9lZ4v3PJbNbuPTg5DKmEc65Xb2sPe5qgYMr2XrBE0N0rD1lF0PlSq9J4eH7QM10QndJNEVdEhCFzHFo8aDESLZr7ge7_1-ubXmchdYLCQ68Zhtq92ovOWp46vrNfeZ0z9PdTNQ-xcPm4u2VakOK6TRATosfi3-IgcHEcuu9ik2yV1ObFE7USBuFLFKAxKH4FsDfy0?></g></svg>