<?plantuml 1.2026.1?><svg xmlns="http://www.w3.org/2000/svg" xmlns:xlink="http://www.w3.org/1999/xlink" contentStyleType="text/css" data-diagram-type="SEQUENCE" height="976px" preserveAspectRatio="none" style="width:1035px;height:976px;background:#FFFFFF;" version="1.1" viewBox="0 0 1035 976" width="1035px" zoomAndPan="magnify"><title>Ingestion Sequence &#8212; One Poll Cycle (60s)</title><defs/><g><text fill="#000000" font-family="sans-serif" font-size="14" font-weight="bold" lengthAdjust="spacing" textLength="289.0713" x="374.718" y="29.5332">Ingestion Sequence &#8212; One Poll Cycle (60s)</text><rect fill="none" height="340.1875" style="stroke:#000000;stroke-width:1.5;" width="980.7041" x="48.8032" y="201.2734"/><rect fill="none" height="216.7813" style="stroke:#000000;stroke-width:1.5;" width="364.1035" x="58.8032" y="256.9766"/><rect fill="none" height="107.8906" style="stroke:#000000;stroke-width:1.5;" width="344.1035" x="68.8032" y="358.8672"/><rect fill="none" height="231.2969" style="stroke:#000000;stroke-width:1.5;" width="636.6006" x="392.9067" y="585.8125"/><rect fill="none" height="107.8906" style="stroke:#000000;stroke-width:1.5;" width="297.5313" x="402.9067" y="641.5156"/><g class="participant-lifeline" data-entity-uid="part1" data-qualified-name="Poller" id="part1-lifeline"><g><title>Poller</title><rect fill="#000000" fill-opacity="0.00000" height="773.5938" width="8" x="21.8965" y="121.2188"/><line style="stroke:#181818;stroke-width:0.5;stroke-dasharray:5,5;" x1="25" x2="25" y1="121.2188" y2="894.8125"/></g></g><g class="participant-lifeline" data-entity-uid="part2" data-qualified-name="SpotChain" id="part2-lifeline"><g><title>SpotPriceChain</title><rect fill="#000000" fill-opacity="0.00000" height="773.5938" width="8" x="130.4409" y="121.2188"/><line style="stroke:#181818;stroke-width:0.5;stroke-dasharray:5,5;" x1="133.8032" x2="133.8032" y1="121.2188" y2="894.8125"/></g></g><g class="participant-lifeline" data-entity-uid="part3" data-qualified-name="CB" id="part3-lifeline"><g><title>Coinbase</title><rect fill="#000000" fill-opacity="0.00000" height="773.5938" width="8" x="293.9727" y="121.2188"/><line style="stroke:#181818;stroke-width:0.5;stroke-dasharray:5,5;" x1="297.397" x2="297.397" y1="121.2188" y2="894.8125"/></g></g><g class="participant-lifeline" data-entity-uid="part4" data-qualified-name="KK" id="part4-lifeline"><g><title>Kraken</title><rect fill="#000000" fill-opacity="0.00000" height="773.5938" width="8" x="369.7275" y="121.2188"/><line style="stroke:#181818;stroke-width:0.5;stroke-dasharray:5,5;" x1="373.5483" x2="373.5483" y1="121.2188" y2="894.8125"/></g></g><g class="participant-lifeline" data-entity-uid="part5" data-qualified-name="DexChain" id="part5-lifeline"><g><title>DexSnapshotChain</title><rect fill="#000000" fill-opacity="0.00000" height="773.5938" width="8" x="476.2236" y="121.2188"/><line style="stroke:#181818;stroke-width:0.5;stroke-dasharray:5,5;" x1="479.9067" x2="479.9067" y1="121.2188" y2="894.8125"/></g></g><g class="participant-lifeline" data-entity-uid="part6" data-qualified-name="DS" id="part6-lifeline"><g><title>Dexscreener</title><rect fill="#000000" fill-opacity="0.00000" height="773.5938" width="8" x="639.7554" y="121.2188"/><line style="stroke:#181818;stroke-width:0.5;stroke-dasharray:5,5;" x1="643.0728" x2="643.0728" y1="121.2188" y2="894.8125"/></g></g><g class="participant-lifeline" data-entity-uid="part7" data-qualified-name="DW" id="part7-lifeline"><g><title>DbWriter</title><rect fill="#000000" fill-opacity="0.00000" height="773.5938" width="8" x="731.0483" y="121.2188"/><line style="stroke:#181818;stroke-width:0.5;stroke-dasharray:5,5;" x1="734.438" x2="734.438" y1="121.2188" y2="894.8125"/></g></g><g class="participant-lifeline" data-entity-uid="part8" data-qualified-name="Health" id="part8-lifeline"><g><title>ProviderHealthStore</title><rect fill="#000000" fill-opacity="0.00000" height="773.5938" width="8" x="845.6895" y="121.2188"/><line style="stroke:#181818;stroke-width:0.5;stroke-dasharray:5,5;" x1="849.6587" x2="849.6587" y1="121.2188" y2="894.8125"/></g></g><g class="participant-lifeline" data-entity-uid="part9" data-qualified-name="DB" id="part9-lifeline"><g><title>SQLite</title><rect fill="#000000" fill-opacity="0.00000" height="773.5938" width="8" x="991.1074" y="121.2188"/><line style="stroke:#181818;stroke-width:0.5;stroke-dasharray:5,5;" x1="994.7075" x2="994.7075" y1="121.2188" y2="894.8125"/></g></g><g class="participant participant-head" data-entity-uid="part1" data-qualified-name="Poller" id="part1-head"><text fill="#000000" font-family="sans-serif" font-size="14" lengthAdjust="spacing" textLength="35.793" x="5" y="118.1426">Poller</text><ellipse cx="25.8965" cy="52.1094" fill="#E2E2F0" rx="8" ry="8" style="stroke:#181818;stroke-width:0.5;"/><path d="M25.8965,60.1094 L25.8965,87.1094 M12.8965,68.1094 L38.8965,68.1094 M25.8965,87.1094 L12.8965,102.1094 M25.8965,87.1094 L38.8965,102.1094" fill="none" style="stroke:#181818;stroke-width:0.5;"/></g><g class="participant participant-tail" data-entity-uid="part1" data-qualified-name="Poller" id="part1-tail"><text fill="#000000" font-family="sans-serif" font-size="14" lengthAdjust="spacing" textLength="35.793" x="5" y="908.3457">Poller</text><ellipse cx="25.8965" cy="919.9219" fill="#E2E2F0" rx="8" ry="8" style="stroke:#181818;stroke-width:0.5;"/><path d="M25.8965,927.9219 L25.8965,954.9219 M12.8965,935.9219 L38.8965,935.9219 M25.8965,954.9219 L12.8965,969.9219 M25.8965,954.9219 L38.8965,969.9219" fill="none" style="stroke:#181818;stroke-width:0.5;"/></g><g class="participant participant-head" data-entity-uid="part2" data-qualified-name="SpotChain" id="part2-head"><rect fill="#E2E2F0" height="31.6094" rx="2.5" ry="2.5" style="stroke:#181818;stroke-width:0.5;" width="111.2754" x="78.8032" y="88.6094"/><text fill="#000000" font-family="sans-serif" font-size="14" lengthAdjust="spacing" textLength="97.2754" x="85.8032" y="110.1426">SpotPriceChain</text></g><g class="participant participant-tail" data-entity-uid="part2" data-qualified-name="SpotChain" id="part2-tail"><rect fill="#E2E2F0" height="31.6094" rx="2.5" ry="2.5" style="stroke:#181818;stroke-width:0.5;" width="111.2754" x="78.8032" y="893.8125"/><text fill="#000000" font-family="sans-serif" font-size="14" lengthAdjust="spacing" textLength="97.2754" x="85.8032" y="915.3457">SpotPriceChain</text></g><g class="participant participant-head" data-entity-uid="part3" data-qualified-name="CB" id="part3-head"><rect fill="#E2E2F0" height="31.6094" rx="2.5" ry="2.5" style="stroke:#181818;stroke-width:0.5;" width="73.1514" x="261.397" y="88.6094"/><text fill="#000000" font-family="sans-serif" font-size="14" lengthAdjust="spacing" textLength="59.1514" x="268.397" y="110.1426">Coinbase</text></g><g class="participant participant-tail" data-entity-uid="part3" data-qualified-name="CB" id="part3-tail"><rect fill="#E2E2F0" height="31.6094" rx="2.5" ry="2.5" style="stroke:#181818;stroke-width:0.5;" width="73.1514" x="261.397" y="893.8125"/><text fill="#000000" font-family="sans-serif" font-size="14" lengthAdjust="spacing" textLength="59.1514" x="268.397" y="915.3457">Coinbase</text></g><g class="participant participant-head" data-entity-uid="part4" data-qualified-name="KK" id="part4-head"><rect fill="#E2E2F0" height="31.6094" rx="2.5" ry="2.5" style="stroke:#181818;stroke-width:0.5;" width="58.3584" x="344.5483" y="88.6094"/><text fill="#000000" font-family="sans-serif" font-size="14" lengthAdjust="spacing" textLength="44.3584" x="351.5483" y="110.1426">Kraken</text></g><g class="participant participant-tail" data-entity-uid="part4" data-qualified-name="KK" id="part4-tail"><rect fill="#E2E2F0" height="31.6094" rx="2.5" ry="2.5" style="stroke:#181818;stroke-width:0.5;" width="58.3584" x="344.5483" y="893.8125"/><text fill="#000000" font-family="sans-serif" font-size="14" lengthAdjust="spacing" textLength="44.3584" x="351.5483" y="915.3457">Kraken</text></g><g class="participant participant-head" data-entity-uid="part5" data-qualified-name="DexChain" id="part5-head"><rect fill="#E2E2F0" height="31.6094" rx="2.5" ry="2.5" style="stroke:#181818;stroke-width:0.5;" width="134.6338" x="412.9067" y="88.6094"/><text fill="#000000" font-family="sans-serif" font-size="14" lengthAdjust="spacing" textLength="120.6338" x="419.9067" y="110.1426">DexSnapshotChain</text></g><g class="participant participant-tail" data-entity-uid="part5" data-qualified-name="DexChain" id="part5-tail"><rect fill="#E2E2F0" height="31.6094" rx="2.5" ry="2.5" style="stroke:#181818;stroke-width:0.5;" width="134.6338" x="412.9067" y="893.8125"/><text fill="#000000" font-family="sans-serif" font-size="14" lengthAdjust="spacing" textLength="120.6338" x="419.9067" y="915.3457">DexSnapshotChain</text></g><g class="participant participant-head" data-entity-uid="part6" data-qualified-name="DS" id="part6-head"><rect fill="#E2E2F0" height="31.6094" rx="2.5" ry="2.5" style="stroke:#181818;stroke-width:0.5;" width="93.3652" x="597.0728" y="88.6094"/><text fill="#000000" font-family="sans-serif" font-size="14" lengthAdjust="spacing" textLength="79.3652" x="604.0728" y="110.1426">Dexscreener</text></g><g class="participant participant-tail" data-entity-uid="part6" data-qualified-name="DS" id="part6-tail"><rect fill="#E2E2F0" height="31.6094" rx="2.5" ry="2.5" style="stroke:#181818;stroke-width:0.5;" width="93.3652" x="597.0728" y="893.8125"/><text fill="#000000" font-family="sans-serif" font-size="14" lengthAdjust="spacing" textLength="79.3652" x="604.0728" y="915.3457">Dexscreener</text></g><g class="participant participant-head" data-entity-uid="part7" data-qualified-name="DW" id="part7-head"><rect fill="#E2E2F0" height="31.6094" rx="2.5" ry="2.5" style="stroke:#181818;stroke-width:0.5;" width="69.2207" x="700.438" y="88.6094"/><text fill="#000000" font-family="sans-serif" font-size="14" lengthAdjust="spacing" textLength="55.2207" x="707.438" y="110.1426">DbWriter</text></g><g class="participant participant-tail" data-entity-uid="part7" data-qualified-name="DW" id="part7-tail"><rect fill="#E2E2F0" height="31.6094" rx="2.5" ry="2.5" style="stroke:#181818;stroke-width:0.5;" width="69.2207" x="700.438" y="893.8125"/><text fill="#000000" font-family="sans-serif" font-size="14" lengthAdjust="spacing" textLength="55.2207" x="707.438" y="915.3457">DbWriter</text></g><g class="participant participant-head" data-entity-uid="part8" data-qualified-name="Health" id="part8-head"><rect fill="#E2E2F0" height="31.6094" rx="2.5" ry="2.5" style="stroke:#181818;stroke-width:0.5;" width="140.0615" x="779.6587" y="88.6094"/><text fill="#000000" font-family="sans-serif" font-size="14" lengthAdjust="spacing" textLength="126.0615" x="786.6587" y="110.1426">ProviderHealthStore</text></g><g class="participant participant-tail" data-entity-uid="part8" data-qualified-name="Health" id="part8-tail"><rect fill="#E2E2F0" height="31.6094" rx="2.5" ry="2.5" style="stroke:#181818;stroke-width:0.5;" width="140.0615" x="779.6587" y="893.8125"/><text fill="#000000" font-family="sans-serif" font-size="14" lengthAdjust="spacing" textLength="126.0615" x="786.6587" y="915.3457">ProviderHealthStore</text></g><g class="participant participant-head" data-entity-uid="part9" data-qualified-name="DB" id="part9-head"><text fill="#000000" font-family="sans-serif" font-size="14" lengthAdjust="spacing" textLength="42.7998" x="970.7075" y="118.1426">SQLite</text><path d="M977.1074,67.6094 C977.1074,57.6094 995.1074,57.6094 995.1074,57.6094 C995.1074,57.6094 1013.1074,57.6094 1013.1074,67.6094 L1013.1074,93.6094 C1013.1074,103.6094 995.1074,103.6094 995.1074,103.6094 C995.1074,103.6094 977.1074,103.6094 977.1074,93.6094 L977.1074,67.6094" fill="#E2E2F0" style="stroke:#181818;stroke-width:0.5;"/><path d="M977.1074,67.6094 C977.1074,77.6094 995.1074,77.6094 995.1074,77.6094 C995.1074,77.6094 1013.1074,77.6094 1013.1074,67.6094" fill="none" style="stroke:#181818;stroke-width:0.5;"/></g><g class="participant participant-tail" data-entity-uid="part9" data-qualified-name="DB" id="part9-tail"><text fill="#000000" font-family="sans-serif" font-size="14" lengthAdjust="spacing" textLength="42.7998" x="970.7075" y="908.3457">SQLite</text><path d="M977.1074,921.4219 C977.1074,911.4219 995.1074,911.4219 995.1074,911.4219 C995.1074,911.4219 1013.1074,911.4219 1013.1074,921.4219 L1013.1074,947.4219 C1013.1074,957.4219 995.1074,957.4219 995.1074,957.4219 C995.1074,957.4219 977.1074,957.4219 977.1074,947.4219 L977.1074,921.4219" fill="#E2E2F0" style="stroke:#181818;stroke-width:0.5;"/><path d="M977.1074,921.4219 C977.1074,931.4219 995.1074,931.4219 995.1074,931.4219 C995.1074,931.4219 1013.1074,931.4219 1013.1074,921.4219" fill="none" style="stroke:#181818;stroke-width:0.5;"/></g><g class="message" data-entity-1="part1" data-entity-2="part2" id="msg1"><polygon fill="#181818" points="122.4409,182.2734,132.4409,186.2734,122.4409,190.2734,126.4409,186.2734" style="stroke:#181818;stroke-width:1;"/><line style="stroke:#181818;stroke-width:1;" x1="25.8965" x2="128.4409" y1="186.2734" y2="186.2734"/><text fill="#000000" font-family="sans-serif" font-size="13" lengthAdjust="spacing" textLength="84.5444" x="32.8965" y="148.7139">get_spot(SOL)</text><text fill="#000000" font-family="sans-serif" font-size="13" lengthAdjust="spacing" textLength="84.5317" x="32.8965" y="165.0654">get_spot(ETH)</text><text fill="#000000" font-family="sans-serif" font-size="13" lengthAdjust="spacing" textLength="84.5317" x="32.8965" y="181.417">get_spot(BTC)</text></g><path d="M48.8032,201.2734 L121.2378,201.2734 L121.2378,209.625 L111.2378,219.625 L48.8032,219.625 L48.8032,201.2734" fill="#EEEEEE" style="stroke:#000000;stroke-width:1.5;"/><rect fill="none" height="340.1875" style="stroke:#000000;stroke-width:1.5;" width="980.7041" x="48.8032" y="201.2734"/><text fill="#000000" font-family="sans-serif" font-size="13" font-weight="bold" lengthAdjust="spacing" textLength="27.4346" x="63.8032" y="215.7686">loop</text><text fill="#000000" font-family="sans-serif" font-size="11" font-weight="bold" lengthAdjust="spacing" textLength="91.6846" x="136.2378" y="214.6924">[for each symbol]</text><g class="message" data-entity-1="part2" data-entity-2="part3" id="msg2"><polygon fill="#181818" points="285.9727,237.9766,295.9727,241.9766,285.9727,245.9766,289.9727,241.9766" style="stroke:#181818;stroke-width:1;"/><line style="stroke:#181818;stroke-width:1;" x1="134.4409" x2="291.9727" y1="241.9766" y2="241.9766"/><text fill="#000000" font-family="sans-serif" font-size="13" lengthAdjust="spacing" textLength="99.709" x="141.4409" y="237.1201">get_spot(symbol)</text></g><path d="M58.8032,256.9766 L118.9741,256.9766 L118.9741,265.3281 L108.9741,275.3281 L58.8032,275.3281 L58.8032,256.9766" fill="#EEEEEE" style="stroke:#000000;stroke-width:1.5;"/><rect fill="none" height="216.7813" style="stroke:#000000;stroke-width:1.5;" width="364.1035" x="58.8032" y="256.9766"/><text fill="#000000" font-family="sans-serif" font-size="13" font-weight="bold" lengthAdjust="spacing" textLength="15.1709" x="73.8032" y="271.4717">alt</text><text fill="#000000" font-family="sans-serif" font-size="11" font-weight="bold" lengthAdjust="spacing" textLength="50.7515" x="133.9741" y="270.3955">[success]</text><g class="message" data-entity-1="part3" data-entity-2="part2" id="msg3"><polygon fill="#181818" points="145.4409,293.6797,135.4409,297.6797,145.4409,301.6797,141.4409,297.6797" style="stroke:#181818;stroke-width:1;"/><line style="stroke:#181818;stroke-width:1;stroke-dasharray:2,2;" x1="139.4409" x2="296.9727" y1="297.6797" y2="297.6797"/><text fill="#000000" font-family="sans-serif" font-size="13" lengthAdjust="spacing" textLength="93.209" x="151.4409" y="292.8232">SpotQuote (OK)</text></g><line style="stroke:#000000;stroke-width:1;stroke-dasharray:2,2;" x1="58.8032" x2="422.9067" y1="306.6797" y2="306.6797"/><text fill="#000000" font-family="sans-serif" font-size="11" font-weight="bold" lengthAdjust="spacing" textLength="40.3369" x="63.8032" y="318.0986">[failure]</text><g class="message" data-entity-1="part2" data-entity-2="part4" id="msg4"><polygon fill="#181818" points="361.7275,339.8672,371.7275,343.8672,361.7275,347.8672,365.7275,343.8672" style="stroke:#181818;stroke-width:1;"/><line style="stroke:#181818;stroke-width:1;" x1="134.4409" x2="367.7275" y1="343.8672" y2="343.8672"/><text fill="#000000" font-family="sans-serif" font-size="13" lengthAdjust="spacing" textLength="99.709" x="141.4409" y="339.0107">get_spot(symbol)</text></g><path d="M68.8032,358.8672 L128.9741,358.8672 L128.9741,367.2188 L118.9741,377.2188 L68.8032,377.2188 L68.8032,358.8672" fill="#EEEEEE" style="stroke:#000000;stroke-width:1.5;"/><rect fill="none" height="107.8906" style="stroke:#000000;stroke-width:1.5;" width="344.1035" x="68.8032" y="358.8672"/><text fill="#000000" font-family="sans-serif" font-size="13" font-weight="bold" lengthAdjust="spacing" textLength="15.1709" x="83.8032" y="373.3623">alt</text><text fill="#000000" font-family="sans-serif" font-size="11" font-weight="bold" lengthAdjust="spacing" textLength="50.7515" x="143.9741" y="372.2861">[success]</text><g class="message" data-entity-1="part4" data-entity-2="part2" id="msg5"><polygon fill="#181818" points="145.4409,395.5703,135.4409,399.5703,145.4409,403.5703,141.4409,399.5703" style="stroke:#181818;stroke-width:1;"/><line style="stroke:#181818;stroke-width:1;stroke-dasharray:2,2;" x1="139.4409" x2="372.7275" y1="399.5703" y2="399.5703"/><text fill="#000000" font-family="sans-serif" font-size="13" lengthAdjust="spacing" textLength="93.209" x="151.4409" y="394.7139">SpotQuote (OK)</text></g><line style="stroke:#000000;stroke-width:1;stroke-dasharray:2,2;" x1="68.8032" x2="412.9067" y1="408.5703" y2="408.5703"/><text fill="#000000" font-family="sans-serif" font-size="11" font-weight="bold" lengthAdjust="spacing" textLength="51.3423" x="73.8032" y="419.9893">[all failed]</text><g class="message" data-entity-1="part2" data-entity-2="part2" id="msg6"><line style="stroke:#181818;stroke-width:1;stroke-dasharray:2,2;" x1="134.4409" x2="176.4409" y1="445.7578" y2="445.7578"/><line style="stroke:#181818;stroke-width:1;stroke-dasharray:2,2;" x1="176.4409" x2="176.4409" y1="445.7578" y2="458.7578"/><line style="stroke:#181818;stroke-width:1;stroke-dasharray:2,2;" x1="135.4409" x2="176.4409" y1="458.7578" y2="458.7578"/><polygon fill="#181818" points="145.4409,454.7578,135.4409,458.7578,145.4409,462.7578,141.4409,458.7578" style="stroke:#181818;stroke-width:1;"/><text fill="#000000" font-family="sans-serif" font-size="13" lengthAdjust="spacing" textLength="149.5317" x="141.4409" y="440.9014">return LKG (DEGRADED)</text></g><g class="message" data-entity-1="part2" data-entity-2="part7" id="msg7"><polygon fill="#181818" points="723.0483,499.1094,733.0483,503.1094,723.0483,507.1094,727.0483,503.1094" style="stroke:#181818;stroke-width:1;"/><line style="stroke:#181818;stroke-width:1;" x1="134.4409" x2="729.0483" y1="503.1094" y2="503.1094"/><text fill="#000000" font-family="sans-serif" font-size="13" lengthAdjust="spacing" textLength="135.8462" x="141.4409" y="498.2529">write_spot_price(quote)</text></g><g class="message" data-entity-1="part7" data-entity-2="part9" id="msg8"><polygon fill="#181818" points="983.1074,529.4609,993.1074,533.4609,983.1074,537.4609,987.1074,533.4609" style="stroke:#181818;stroke-width:1;"/><line style="stroke:#181818;stroke-width:1;" x1="735.0483" x2="989.1074" y1="533.4609" y2="533.4609"/><text fill="#000000" font-family="sans-serif" font-size="13" lengthAdjust="spacing" textLength="127.8799" x="742.0483" y="528.6045">INSERT (provenance)</text></g><g class="message" data-entity-1="part1" data-entity-2="part5" id="msg9"><polygon fill="#181818" points="468.2236,566.8125,478.2236,570.8125,468.2236,574.8125,472.2236,570.8125" style="stroke:#181818;stroke-width:1;"/><line style="stroke:#181818;stroke-width:1;" x1="25.8965" x2="474.2236" y1="570.8125" y2="570.8125"/><text fill="#000000" font-family="sans-serif" font-size="13" lengthAdjust="spacing" textLength="239.9224" x="32.8965" y="565.9561">get_snapshot(chain_id, pair) for each pair</text></g><path d="M392.9067,585.8125 L465.3413,585.8125 L465.3413,594.1641 L455.3413,604.1641 L392.9067,604.1641 L392.9067,585.8125" fill="#EEEEEE" style="stroke:#000000;stroke-width:1.5;"/><rect fill="none" height="231.2969" style="stroke:#000000;stroke-width:1.5;" width="636.6006" x="392.9067" y="585.8125"/><text fill="#000000" font-family="sans-serif" font-size="13" font-weight="bold" lengthAdjust="spacing" textLength="27.4346" x="407.9067" y="600.3076">loop</text><text fill="#000000" font-family="sans-serif" font-size="11" font-weight="bold" lengthAdjust="spacing" textLength="99.0215" x="480.3413" y="599.2314">[for each DEX pair]</text><g class="message" data-entity-1="part5" data-entity-2="part6" id="msg10"><polygon fill="#181818" points="631.7554,622.5156,641.7554,626.5156,631.7554,630.5156,635.7554,626.5156" style="stroke:#181818;stroke-width:1;"/><line style="stroke:#181818;stroke-width:1;" x1="480.2236" x2="637.7554" y1="626.5156" y2="626.5156"/><text fill="#000000" font-family="sans-serif" font-size="13" lengthAdjust="spacing" textLength="97.5571" x="487.2236" y="621.6592">get_snapshot(...)</text></g><path d="M402.9067,641.5156 L463.0776,641.5156 L463.0776,649.8672 L453.0776,659.8672 L402.9067,659.8672 L402.9067,641.5156" fill="#EEEEEE" style="stroke:#000000;stroke-width:1.5;"/><rect fill="none" height="107.8906" style="stroke:#000000;stroke-width:1.5;" width="297.5313" x="402.9067" y="641.5156"/><text fill="#000000" font-family="sans-serif" font-size="13" font-weight="bold" lengthAdjust="spacing" textLength="15.1709" x="417.9067" y="656.0107">alt</text><text fill="#000000" font-family="sans-serif" font-size="11" font-weight="bold" lengthAdjust="spacing" textLength="50.7515" x="478.0776" y="654.9346">[success]</text><g class="message" data-entity-1="part6" data-entity-2="part5" id="msg11"><polygon fill="#181818" points="491.2236,678.2188,481.2236,682.2188,491.2236,686.2188,487.2236,682.2188" style="stroke:#181818;stroke-width:1;"/><line style="stroke:#181818;stroke-width:1;stroke-dasharray:2,2;" x1="485.2236" x2="642.7554" y1="682.2188" y2="682.2188"/><text fill="#000000" font-family="sans-serif" font-size="13" lengthAdjust="spacing" textLength="109.1035" x="497.2236" y="677.3623">DexSnapshot (OK)</text></g><line style="stroke:#000000;stroke-width:1;stroke-dasharray:2,2;" x1="402.9067" x2="700.438" y1="691.2188" y2="691.2188"/><text fill="#000000" font-family="sans-serif" font-size="11" font-weight="bold" lengthAdjust="spacing" textLength="40.3369" x="407.9067" y="702.6377">[failure]</text><g class="message" data-entity-1="part5" data-entity-2="part5" id="msg12"><line style="stroke:#181818;stroke-width:1;stroke-dasharray:2,2;" x1="480.2236" x2="522.2236" y1="728.4063" y2="728.4063"/><line style="stroke:#181818;stroke-width:1;stroke-dasharray:2,2;" x1="522.2236" x2="522.2236" y1="728.4063" y2="741.4063"/><line style="stroke:#181818;stroke-width:1;stroke-dasharray:2,2;" x1="481.2236" x2="522.2236" y1="741.4063" y2="741.4063"/><polygon fill="#181818" points="491.2236,737.4063,481.2236,741.4063,491.2236,745.4063,487.2236,741.4063" style="stroke:#181818;stroke-width:1;"/><text fill="#000000" font-family="sans-serif" font-size="13" lengthAdjust="spacing" textLength="149.5317" x="487.2236" y="723.5498">return LKG (DEGRADED)</text></g><g class="message" data-entity-1="part5" data-entity-2="part7" id="msg13"><polygon fill="#181818" points="723.0483,774.7578,733.0483,778.7578,723.0483,782.7578,727.0483,778.7578" style="stroke:#181818;stroke-width:1;"/><line style="stroke:#181818;stroke-width:1;" x1="480.2236" x2="729.0483" y1="778.7578" y2="778.7578"/><text fill="#000000" font-family="sans-serif" font-size="13" lengthAdjust="spacing" textLength="177.0488" x="487.2236" y="773.9014">write_dex_snapshot(snapshot)</text></g><g class="message" data-entity-1="part7" data-entity-2="part9" id="msg14"><polygon fill="#181818" points="983.1074,805.1094,993.1074,809.1094,983.1074,813.1094,987.1074,809.1094" style="stroke:#181818;stroke-width:1;"/><line style="stroke:#181818;stroke-width:1;" x1="735.0483" x2="989.1074" y1="809.1094" y2="809.1094"/><text fill="#000000" font-family="sans-serif" font-size="13" lengthAdjust="spacing" textLength="127.8799" x="742.0483" y="804.2529">INSERT (provenance)</text></g><g class="message" data-entity-1="part1" data-entity-2="part8" id="msg15"><polygon fill="#181818" points="837.6895,842.4609,847.6895,846.4609,837.6895,850.4609,841.6895,846.4609" style="stroke:#181818;stroke-width:1;"/><line style="stroke:#181818;stroke-width:1;" x1="25.8965" x2="843.6895" y1="846.4609" y2="846.4609"/><text fill="#000000" font-family="sans-serif" font-size="13" lengthAdjust="spacing" textLength="65.0254" x="32.8965" y="841.6045">upsert_all()</text></g><g class="message" data-entity-1="part8" data-entity-2="part9" id="msg16"><polygon fill="#181818" points="983.1074,872.8125,993.1074,876.8125,983.1074,880.8125,987.1074,876.8125" style="stroke:#181818;stroke-width:1;"/><line style="stroke:#181818;stroke-width:1;" x1="849.6895" x2="989.1074" y1="876.8125" y2="876.8125"/><text fill="#000000" font-family="sans-serif" font-size="13" lengthAdjust="spacing" textLength="121.418" x="856.6895" y="871.9561">provider_health table</text></g><?plantuml-src bLFDRfmm4BxxAKOvWTHTzTH33vMwW9A8LNSJLjeU8Y4lJ89LQXFRjCcj3z4dx9DqZA7yTACe5yJCVFFDDp-smjO8r_81ZHLAGeQFBSe2uS-ltx2J27jLrn0z5uGAFhmt8MEyi4ftVjIiuTgAGZHSMhZ86cNtMXGOLLp82-06dAkpviX82NdY1ZjCj9a7Kys_eKzFqtaengTCyiPKFMi78kUP4kGrXKQKg3qgMyHFHoti43pEWtkjVeWIzHNosbOPDUobUfkLt78ddrg-sHA9vzWmvgS2gqzZu_0H7j3cXkmWsst3E_dFJ0vNKtDpY49MAzN0FGqOUL61UVv-KZM32HrnHvifgSU4129jODgYG6F80eTRBQIu_vjMMThcBdKvM5CRzrpKhSOkQLOfJSzN-hyMEEohrVfwd6xArSIopvqKNL1ejAsMi4ql8OYJozlFSHBtJD9b--zCT7oal9zkkPtil74d6Jmw7IwJmWxaPdZz9Kjk3n0qj6wKdEu-P8vmiiVXk8OvzDSN5CwPY_8TD5peS5oPCnTRZ9EltWqZdQFEbgJhzVhS7WcucakPl8CN5pcMckU-D54_oPd0SP0bFeqoXv-tJzE_7yAsZK5jSpg486IzT-1f-iUNLzvFRwr6zXS0?></g></svg>