<?plantuml 1.2026.1?><svg xmlns="http://www.w3.org/2000/svg" xmlns:xlink="http://www.w3.org/1999/xlink" contentStyleType="text/css" data-diagram-type="DESCRIPTION" height="1070px" preserveAspectRatio="none" style="width:1037px;height:1070px;background:#FFFFFF;" version="1.1" viewBox="0 0 1037 1070" width="1037px" zoomAndPan="magnify"><title>Provider Subsystem &#8212; Chain, Resilience, Registry (ebb8e37)</title><defs/><g><g class="title" data-source-line="1"><text fill="#000000" font-family="sans-serif" font-size="14" font-weight="bold" lengthAdjust="spacing" textLength="337.333" x="342.8335" y="24.5332">Provider Subsystem &#8212; Chain, Resilience, Registry</text></g><!--cluster Protocols--><g class="cluster" data-qualified-name="Protocols" data-source-line="3" id="ent0002"><path d="M623.5,44.6094 L689.0654,44.6094 A3.75,3.75 0 0 1 691.5654,47.1094 L698.5654,68.2188 L1027.5,68.2188 A2.5,2.5 0 0 1 1030,70.7188 L1030,190.1094 A2.5,2.5 0 0 1 1027.5,192.6094 L623.5,192.6094 A2.5,2.5 0 0 1 621,190.1094 L621,47.1094 A2.5,2.5 0 0 1 623.5,44.6094" fill="none" style="stroke:#000000;stroke-width:1.5;"/><line style="stroke:#000000;stroke-width:1.5;" x1="621" x2="698.5654" y1="68.2188" y2="68.2188"/><text fill="#000000" font-family="sans-serif" font-size="14" font-weight="bold" lengthAdjust="spacing" textLength="64.5654" x="625" y="61.1426">Protocols</text></g><!--cluster Implementations--><g class="cluster" data-qualified-name="Implementations" data-source-line="8" id="ent0005"><path d="M593.5,242.6094 L705.7412,242.6094 A3.75,3.75 0 0 1 708.2412,245.1094 L715.2412,266.2188 L994.5,266.2188 A2.5,2.5 0 0 1 997,268.7188 L997,339.7194 A2.5,2.5 0 0 1 994.5,342.2194 L593.5,342.2194 A2.5,2.5 0 0 1 591,339.7194 L591,245.1094 A2.5,2.5 0 0 1 593.5,242.6094" fill="none" style="stroke:#000000;stroke-width:1.5;"/><line style="stroke:#000000;stroke-width:1.5;" x1="591" x2="715.2412" y1="266.2188" y2="266.2188"/><text fill="#000000" font-family="sans-serif" font-size="14" font-weight="bold" lengthAdjust="spacing" textLength="111.2412" x="595" y="259.1426">Implementations</text></g><!--cluster Resilience (per call)--><g class="cluster" data-qualified-name="Resilience .per call." data-source-line="17" id="ent0012"><path d="M63.5,401.0294 L196.0029,401.0294 A3.75,3.75 0 0 1 198.5029,403.5294 L205.5029,424.6388 L328.5,424.6388 A2.5,2.5 0 0 1 331,427.1388 L331,785.1794 A2.5,2.5 0 0 1 328.5,787.6794 L63.5,787.6794 A2.5,2.5 0 0 1 61,785.1794 L61,403.5294 A2.5,2.5 0 0 1 63.5,401.0294" fill="none" style="stroke:#000000;stroke-width:1.5;"/><line style="stroke:#000000;stroke-width:1.5;" x1="61" x2="205.5029" y1="424.6388" y2="424.6388"/><text fill="#000000" font-family="sans-serif" font-size="14" font-weight="bold" lengthAdjust="spacing" textLength="131.5029" x="65" y="417.5626">Resilience (per call)</text></g><!--cluster Orchestration--><g class="cluster" data-qualified-name="Orchestration" data-source-line="25" id="ent0018"><path d="M8.5,59.9994 L101.2998,59.9994 A3.75,3.75 0 0 1 103.7998,62.4994 L110.7998,83.6088 L379.5,83.6088 A2.5,2.5 0 0 1 382,86.1088 L382,348.5294 A2.5,2.5 0 0 1 379.5,351.0294 L8.5,351.0294 A2.5,2.5 0 0 1 6,348.5294 L6,62.4994 A2.5,2.5 0 0 1 8.5,59.9994" fill="none" style="stroke:#000000;stroke-width:1.5;"/><line style="stroke:#000000;stroke-width:1.5;" x1="6" x2="110.7998" y1="83.6088" y2="83.6088"/><text fill="#000000" font-family="sans-serif" font-size="14" font-weight="bold" lengthAdjust="spacing" textLength="91.7998" x="10" y="76.5326">Orchestration</text></g><!--cluster Data quality--><g class="cluster" data-qualified-name="Data quality" data-source-line="35" id="ent0026"><path d="M158.5,837.6794 L238.8516,837.6794 A3.75,3.75 0 0 1 241.3516,840.1794 L248.3516,861.2888 L405.5,861.2888 A2.5,2.5 0 0 1 408,863.7888 L408,1061.0094 A2.5,2.5 0 0 1 405.5,1063.5094 L158.5,1063.5094 A2.5,2.5 0 0 1 156,1061.0094 L156,840.1794 A2.5,2.5 0 0 1 158.5,837.6794" fill="none" style="stroke:#000000;stroke-width:1.5;"/><line style="stroke:#000000;stroke-width:1.5;" x1="156" x2="248.3516" y1="861.2888" y2="861.2888"/><text fill="#000000" font-family="sans-serif" font-size="14" font-weight="bold" lengthAdjust="spacing" textLength="79.3516" x="160" y="854.2126">Data quality</text></g><!--entity SPP--><g class="entity" data-qualified-name="Protocols.SPP" data-source-line="4" id="ent0003"><ellipse cx="715" cy="128.6094" fill="#F1F1F1" rx="8" ry="8" style="stroke:#181818;stroke-width:0.5;"/><text fill="#000000" font-family="sans-serif" font-size="14" lengthAdjust="spacing" textLength="112.8271" x="644.3677" y="160.1426">SpotPriceProvider</text><text fill="#000000" font-family="sans-serif" font-size="14" lengthAdjust="spacing" textLength="141.2646" x="644.3677" y="177.752">get_spot -&gt; SpotQuote</text></g><!--entity DSP--><g class="entity" data-qualified-name="Protocols.DSP" data-source-line="5" id="ent0004"><ellipse cx="921" cy="128.6094" fill="#F1F1F1" rx="8" ry="8" style="stroke:#181818;stroke-width:0.5;"/><text fill="#000000" font-family="sans-serif" font-size="14" lengthAdjust="spacing" textLength="136.1855" x="835.0005" y="160.1426">DexSnapshotProvider</text><text fill="#000000" font-family="sans-serif" font-size="14" lengthAdjust="spacing" textLength="171.999" x="835.0005" y="177.752">get_snapshot, search_pairs</text></g><!--entity CB--><g class="entity" data-qualified-name="Implementations.CB" data-source-line="9" id="ent0006"><rect fill="#F1F1F1" height="47.6094" rx="2.5" ry="2.5" style="stroke:#181818;stroke-width:0.5;" width="99.1514" x="607.42" y="278.6094"/><rect fill="#F1F1F1" height="10" style="stroke:#181818;stroke-width:0.5;" width="15" x="686.5714" y="283.6094"/><rect fill="#F1F1F1" height="2" style="stroke:#181818;stroke-width:0.5;" width="4" x="684.5714" y="285.6094"/><rect fill="#F1F1F1" height="2" style="stroke:#181818;stroke-width:0.5;" width="4" x="684.5714" y="289.6094"/><text fill="#000000" font-family="sans-serif" font-size="14" lengthAdjust="spacing" textLength="59.1514" x="622.42" y="313.1426">Coinbase</text></g><!--entity KK--><g class="entity" data-qualified-name="Implementations.KK" data-source-line="10" id="ent0007"><rect fill="#F1F1F1" height="47.6094" rx="2.5" ry="2.5" style="stroke:#181818;stroke-width:0.5;" width="84.3584" x="741.82" y="278.6094"/><rect fill="#F1F1F1" height="10" style="stroke:#181818;stroke-width:0.5;" width="15" x="806.1784" y="283.6094"/><rect fill="#F1F1F1" height="2" style="stroke:#181818;stroke-width:0.5;" width="4" x="804.1784" y="285.6094"/><rect fill="#F1F1F1" height="2" style="stroke:#181818;stroke-width:0.5;" width="4" x="804.1784" y="289.6094"/><text fill="#000000" font-family="sans-serif" font-size="14" lengthAdjust="spacing" textLength="44.3584" x="756.82" y="313.1426">Kraken</text></g><!--entity DexScr--><g class="entity" data-qualified-name="Implementations.DexScr" data-source-line="11" id="ent0008"><rect fill="#F1F1F1" height="47.6094" rx="2.5" ry="2.5" style="stroke:#181818;stroke-width:0.5;" width="119.3652" x="861.32" y="278.6094"/><rect fill="#F1F1F1" height="10" style="stroke:#181818;stroke-width:0.5;" width="15" x="960.6852" y="283.6094"/><rect fill="#F1F1F1" height="2" style="stroke:#181818;stroke-width:0.5;" width="4" x="958.6852" y="285.6094"/><rect fill="#F1F1F1" height="2" style="stroke:#181818;stroke-width:0.5;" width="4" x="958.6852" y="289.6094"/><text fill="#000000" font-family="sans-serif" font-size="14" lengthAdjust="spacing" textLength="79.3652" x="876.32" y="313.1426">Dexscreener</text></g><!--entity Retry--><g class="entity" data-qualified-name="Resilience .per call..Retry" data-source-line="18" id="ent0013"><rect fill="#F1F1F1" height="65.2188" rx="2.5" ry="2.5" style="stroke:#181818;stroke-width:0.5;" width="169.9648" x="128.02" y="437.0294"/><rect fill="#F1F1F1" height="10" style="stroke:#181818;stroke-width:0.5;" width="15" x="277.9848" y="442.0294"/><rect fill="#F1F1F1" height="2" style="stroke:#181818;stroke-width:0.5;" width="4" x="275.9848" y="444.0294"/><rect fill="#F1F1F1" height="2" style="stroke:#181818;stroke-width:0.5;" width="4" x="275.9848" y="448.0294"/><text fill="#000000" font-family="sans-serif" font-size="14" lengthAdjust="spacing" textLength="33.4482" x="143.02" y="471.5626">Retry</text><text fill="#000000" font-family="sans-serif" font-size="14" lengthAdjust="spacing" textLength="129.9648" x="143.02" y="489.172">(exponential backoff)</text></g><!--entity CBreaker--><g class="entity" data-qualified-name="Resilience .per call..CBreaker" data-source-line="19" id="ent0014"><rect fill="#F1F1F1" height="65.2188" rx="2.5" ry="2.5" style="stroke:#181818;stroke-width:0.5;" width="237.5996" x="77.2" y="563.2394"/><rect fill="#F1F1F1" height="10" style="stroke:#181818;stroke-width:0.5;" width="15" x="294.7996" y="568.2394"/><rect fill="#F1F1F1" height="2" style="stroke:#181818;stroke-width:0.5;" width="4" x="292.7996" y="570.2394"/><rect fill="#F1F1F1" height="2" style="stroke:#181818;stroke-width:0.5;" width="4" x="292.7996" y="574.2394"/><text fill="#000000" font-family="sans-serif" font-size="14" lengthAdjust="spacing" textLength="91.0273" x="92.2" y="597.7726">Circuit breaker</text><text fill="#000000" font-family="sans-serif" font-size="14" lengthAdjust="spacing" textLength="197.5996" x="92.2" y="615.382">(CLOSED OPEN HALF_OPEN)</text></g><!--entity LKG--><g class="entity" data-qualified-name="Resilience .per call..LKG" data-source-line="20" id="ent0015"><rect fill="#F1F1F1" height="65.2188" rx="2.5" ry="2.5" style="stroke:#181818;stroke-width:0.5;" width="169.917" x="106.04" y="706.4594"/><rect fill="#F1F1F1" height="10" style="stroke:#181818;stroke-width:0.5;" width="15" x="255.957" y="711.4594"/><rect fill="#F1F1F1" height="2" style="stroke:#181818;stroke-width:0.5;" width="4" x="253.957" y="713.4594"/><rect fill="#F1F1F1" height="2" style="stroke:#181818;stroke-width:0.5;" width="4" x="253.957" y="717.4594"/><text fill="#000000" font-family="sans-serif" font-size="14" lengthAdjust="spacing" textLength="107.3994" x="121.04" y="740.9926">Last-known-good</text><text fill="#000000" font-family="sans-serif" font-size="14" lengthAdjust="spacing" textLength="129.917" x="121.04" y="758.602">cache (DEGRADED)</text></g><!--entity Reg--><g class="entity" data-qualified-name="Orchestration.Reg" data-source-line="26" id="ent0019"><rect fill="#F1F1F1" height="65.2188" rx="2.5" ry="2.5" style="stroke:#181818;stroke-width:0.5;" width="151.6719" x="210.16" y="95.9994"/><rect fill="#F1F1F1" height="10" style="stroke:#181818;stroke-width:0.5;" width="15" x="341.8319" y="100.9994"/><rect fill="#F1F1F1" height="2" style="stroke:#181818;stroke-width:0.5;" width="4" x="339.8319" y="102.9994"/><rect fill="#F1F1F1" height="2" style="stroke:#181818;stroke-width:0.5;" width="4" x="339.8319" y="106.9994"/><text fill="#000000" font-family="sans-serif" font-size="14" lengthAdjust="spacing" textLength="103.4756" x="225.16" y="130.5326">ProviderRegistry</text><text fill="#000000" font-family="sans-serif" font-size="14" lengthAdjust="spacing" textLength="111.6719" x="225.16" y="148.142">(defaults + config)</text></g><!--entity SpotChain--><g class="entity" data-qualified-name="Orchestration.SpotChain" data-source-line="27" id="ent0020"><rect fill="#F1F1F1" height="65.2188" rx="2.5" ry="2.5" style="stroke:#181818;stroke-width:0.5;" width="148.9375" x="21.53" y="269.8094"/><rect fill="#F1F1F1" height="10" style="stroke:#181818;stroke-width:0.5;" width="15" x="150.4675" y="274.8094"/><rect fill="#F1F1F1" height="2" style="stroke:#181818;stroke-width:0.5;" width="4" x="148.4675" y="276.8094"/><rect fill="#F1F1F1" height="2" style="stroke:#181818;stroke-width:0.5;" width="4" x="148.4675" y="280.8094"/><text fill="#000000" font-family="sans-serif" font-size="14" lengthAdjust="spacing" textLength="97.2754" x="36.53" y="304.3426">SpotPriceChain</text><text fill="#000000" font-family="sans-serif" font-size="14" lengthAdjust="spacing" textLength="108.9375" x="36.53" y="321.952">(ordered fallback)</text></g><!--entity DexChain--><g class="entity" data-qualified-name="Orchestration.DexChain" data-source-line="28" id="ent0021"><rect fill="#F1F1F1" height="65.2188" rx="2.5" ry="2.5" style="stroke:#181818;stroke-width:0.5;" width="160.6338" x="205.68" y="269.8094"/><rect fill="#F1F1F1" height="10" style="stroke:#181818;stroke-width:0.5;" width="15" x="346.3138" y="274.8094"/><rect fill="#F1F1F1" height="2" style="stroke:#181818;stroke-width:0.5;" width="4" x="344.3138" y="276.8094"/><rect fill="#F1F1F1" height="2" style="stroke:#181818;stroke-width:0.5;" width="4" x="344.3138" y="280.8094"/><text fill="#000000" font-family="sans-serif" font-size="14" lengthAdjust="spacing" textLength="120.6338" x="220.68" y="304.3426">DexSnapshotChain</text><text fill="#000000" font-family="sans-serif" font-size="14" lengthAdjust="spacing" textLength="108.9375" x="220.68" y="321.952">(ordered fallback)</text></g><!--entity Gate--><g class="entity" data-qualified-name="Data quality.Gate" data-source-line="36" id="ent0027"><rect fill="#F1F1F1" height="65.2188" rx="2.5" ry="2.5" style="stroke:#181818;stroke-width:0.5;" width="220.1064" x="171.95" y="873.6794"/><rect fill="#F1F1F1" height="10" style="stroke:#181818;stroke-width:0.5;" width="15" x="372.0564" y="878.6794"/><rect fill="#F1F1F1" height="2" style="stroke:#181818;stroke-width:0.5;" width="4" x="370.0564" y="880.6794"/><rect fill="#F1F1F1" height="2" style="stroke:#181818;stroke-width:0.5;" width="4" x="370.0564" y="884.6794"/><text fill="#000000" font-family="sans-serif" font-size="14" lengthAdjust="spacing" textLength="74.71" x="186.95" y="908.2126">Quality gate</text><text fill="#000000" font-family="sans-serif" font-size="14" lengthAdjust="spacing" textLength="180.1064" x="186.95" y="925.822">(price &gt; 0, status not DOWN)</text></g><!--entity DW--><g class="entity" data-qualified-name="Data quality.DW" data-source-line="37" id="ent0028"><rect fill="#F1F1F1" height="47.6094" rx="2.5" ry="2.5" style="stroke:#181818;stroke-width:0.5;" width="95.2207" x="234.39" y="999.8994"/><rect fill="#F1F1F1" height="10" style="stroke:#181818;stroke-width:0.5;" width="15" x="309.6107" y="1004.8994"/><rect fill="#F1F1F1" height="2" style="stroke:#181818;stroke-width:0.5;" width="4" x="307.6107" y="1006.8994"/><rect fill="#F1F1F1" height="2" style="stroke:#181818;stroke-width:0.5;" width="4" x="307.6107" y="1010.8994"/><text fill="#000000" font-family="sans-serif" font-size="14" lengthAdjust="spacing" textLength="55.2207" x="249.39" y="1034.4326">DbWriter</text></g><g class="entity" data-qualified-name="GMN32" data-source-line="45" id="ent0033"><path d="M397.73,99.0794 L397.73,124.6094 L362.07,128.6094 L397.73,132.6094 L397.73,158.1341 A0,0 0 0 0 397.73,158.1341 L602.2661,158.1341 A0,0 0 0 0 602.2661,158.1341 L602.2661,109.0794 L592.2661,99.0794 L397.73,99.0794 A0,0 0 0 0 397.73,99.0794" fill="#FEFFDD" style="stroke:#181818;stroke-width:0.5;"/><path d="M592.2661,99.0794 L592.2661,109.0794 L602.2661,109.0794 L592.2661,99.0794" fill="#FEFFDD" style="stroke:#181818;stroke-width:0.5;"/><text fill="#000000" font-family="sans-serif" font-size="13" lengthAdjust="spacing" textLength="69.3608" x="403.73" y="117.5745">config.yaml:</text><text fill="#000000" font-family="sans-serif" font-size="13" lengthAdjust="spacing" textLength="183.5361" x="403.73" y="133.9261">spot_priority: [coinbase, kraken]</text><text fill="#000000" font-family="sans-serif" font-size="13" lengthAdjust="spacing" textLength="153.1816" x="403.73" y="150.2776">dex_priority: [dexscreener]</text></g><!--reverse link SPP to CB--><g class="link" data-entity-1="ent0003" data-entity-2="ent0006" data-link-type="extension" data-source-line="12" id="lnk9"><path d="M706.5997,154.4928 C698.2397,179.2428 677.94,239.3994 664.77,278.3894" fill="none" id="SPP-backto-CB" style="stroke:#181818;stroke-width:1;stroke-dasharray:7,7;"/><polygon fill="none" points="712.36,137.4394,700.9153,152.5727,712.2842,156.4129,712.36,137.4394" style="stroke:#181818;stroke-width:1;"/></g><!--reverse link SPP to KK--><g class="link" data-entity-1="ent0003" data-entity-2="ent0007" data-link-type="extension" data-source-line="13" id="lnk10"><path d="M724.8483,154.1426 C734.7883,178.8926 759.09,239.3994 774.75,278.3894" fill="none" id="SPP-backto-KK" style="stroke:#181818;stroke-width:1;stroke-dasharray:7,7;"/><polygon fill="none" points="718.14,137.4394,719.2805,156.3787,730.416,151.9065,718.14,137.4394" style="stroke:#181818;stroke-width:1;"/></g><!--reverse link DSP to DexScr--><g class="link" data-entity-1="ent0004" data-entity-2="ent0008" data-link-type="extension" data-source-line="14" id="lnk11"><path d="M921,155.4394 C921,180.1894 921,239.3994 921,278.3894" fill="none" id="DSP-backto-DexScr" style="stroke:#181818;stroke-width:1;stroke-dasharray:7,7;"/><polygon fill="none" points="921,137.4394,915,155.4394,927,155.4394,921,137.4394" style="stroke:#181818;stroke-width:1;"/></g><!--link Retry to CBreaker--><g class="link" data-entity-1="ent0013" data-entity-2="ent0014" data-link-type="dependency" data-source-line="21" id="lnk16"><path d="M208.62,502.6194 C206.08,521.1694 203.7148,538.495 201.1748,557.025" fill="none" id="Retry-to-CBreaker" style="stroke:#181818;stroke-width:1;"/><polygon fill="#181818" points="200.36,562.9694,205.5452,554.596,201.039,558.0157,197.6193,553.5095,200.36,562.9694" style="stroke:#181818;stroke-width:1;"/></g><!--link CBreaker to LKG--><g class="link" data-entity-1="ent0014" data-entity-2="ent0015" data-link-type="dependency" data-source-line="22" id="lnk17"><path d="M194.87,628.8994 C194.05,652.0094 193.163,677.0732 192.343,700.1532" fill="none" id="CBreaker-to-LKG" style="stroke:#181818;stroke-width:1;"/><polygon fill="#181818" points="192.13,706.1494,196.447,697.2971,192.3075,701.1525,188.4521,697.013,192.13,706.1494" style="stroke:#181818;stroke-width:1;"/></g><!--link Reg to SpotChain--><g class="link" data-entity-1="ent0019" data-entity-2="ent0020" data-link-type="dependency" data-source-line="29" id="lnk22"><path d="M250.71,161.5194 C216.69,192.2894 169.9403,234.5551 135.8803,265.3551" fill="none" id="Reg-to-SpotChain" style="stroke:#181818;stroke-width:1;"/><polygon fill="#181818" points="131.43,269.3794,140.7883,266.3097,135.1386,266.0258,135.4225,260.3761,131.43,269.3794" style="stroke:#181818;stroke-width:1;"/><text fill="#000000" font-family="sans-serif" font-size="13" lengthAdjust="spacing" textLength="70.8081" x="197.7" y="223.1045">spot_priority</text></g><!--link Reg to DexChain--><g class="link" data-entity-1="ent0019" data-entity-2="ent0021" data-link-type="dependency" data-source-line="30" id="lnk23"><path d="M286,161.5194 C286,192.2894 286,232.5794 286,263.3794" fill="none" id="Reg-to-DexChain" style="stroke:#181818;stroke-width:1;"/><polygon fill="#181818" points="286,269.3794,290,260.3794,286,264.3794,282,260.3794,286,269.3794" style="stroke:#181818;stroke-width:1;"/><text fill="#000000" font-family="sans-serif" font-size="13" lengthAdjust="spacing" textLength="67.1963" x="287" y="223.1045">dex_priority</text></g><!--link SpotChain to Retry--><g class="link" data-entity-1="ent0020" data-entity-2="ent0013" data-link-type="dependency" data-source-line="31" id="lnk24"><path d="M114.33,335.3994 C123.42,350.7094 134.82,369.1194 146,385.0294 C158.41,402.6794 169.5172,416.8666 182.1172,432.1766" fill="none" id="SpotChain-to-Retry" style="stroke:#181818;stroke-width:1;"/><polygon fill="#181818" points="185.93,436.8094,183.2994,427.3183,182.7527,432.9487,177.1223,432.402,185.93,436.8094" style="stroke:#181818;stroke-width:1;"/><text fill="#000000" font-family="sans-serif" font-size="13" lengthAdjust="spacing" textLength="96.8208" x="147" y="381.5245">try each provider</text></g><!--link DexChain to Retry--><g class="link" data-entity-1="ent0021" data-entity-2="ent0013" data-link-type="dependency" data-source-line="32" id="lnk25"><path d="M271.92,335.2694 C259.04,364.4294 242.4948,401.8912 229.5848,431.1112" fill="none" id="DexChain-to-Retry" style="stroke:#181818;stroke-width:1;"/><polygon fill="#181818" points="227.16,436.5994,234.456,429.9836,229.1807,432.0259,227.1384,426.7505,227.16,436.5994" style="stroke:#181818;stroke-width:1;"/></g><!--link Gate to DW--><g class="link" data-entity-1="ent0027" data-entity-2="ent0028" data-link-type="dependency" data-source-line="38" id="lnk29"><path d="M282,939.1294 C282,958.3494 282,976.3894 282,993.7494" fill="none" id="Gate-to-DW" style="stroke:#181818;stroke-width:1;"/><polygon fill="#181818" points="282,999.7494,286,990.7494,282,994.7494,278,990.7494,282,999.7494" style="stroke:#181818;stroke-width:1;"/></g><!--link Retry to Gate--><g class="link" data-entity-1="ent0013" data-entity-2="ent0027" data-link-type="dependency" data-source-line="41" id="lnk30"><path d="M272.47,502.5894 C294.98,517.8594 318.42,538.2894 332,563.2394 C387.08,664.4694 392.73,713.5094 353,821.6794 C345.84,841.1694 336.0513,854.8777 322.4113,869.1777" fill="none" id="Retry-to-Gate" style="stroke:#181818;stroke-width:1;"/><polygon fill="#181818" points="318.27,873.5194,327.3763,869.7677,321.7211,869.9013,321.5875,864.2461,318.27,873.5194" style="stroke:#181818;stroke-width:1;"/><text fill="#000000" font-family="sans-serif" font-size="13" lengthAdjust="spacing" textLength="119.2534" x="377.28" y="672.9545">valid quote/snapshot</text></g><!--link LKG to Gate--><g class="link" data-entity-1="ent0015" data-entity-2="ent0027" data-link-type="dependency" data-source-line="42" id="lnk31"><path d="M182.22,771.9594 C179.59,787.5894 179,806.3094 186,821.6794 C195.34,842.1994 207.765,855.9287 224.995,869.4887" fill="none" id="LKG-to-Gate" style="stroke:#181818;stroke-width:1;"/><polygon fill="#181818" points="229.71,873.1994,225.1113,864.4901,225.7809,870.1071,220.1638,870.7767,229.71,873.1994" style="stroke:#181818;stroke-width:1;"/><text fill="#000000" font-family="sans-serif" font-size="13" lengthAdjust="spacing" textLength="161.1035" x="187" y="818.1745">stale allowed (DEGRADED)</text></g><?plantuml-src VLJ1Zjem4BtdAqQSG5repwXQQKiehK0bImuSoWePPn8iWftQpYwehRGVqI_ibtJi990iKY_8yRmtVlDc1YjiZX1fzImIr12NEtCs5e_mz_KFJFPCo3jOeH6vGCdHdJDXh3u7GS7uWMK8FI9RnLLkUl0p013IeauPfqXSA1jfmR79lv4PsgsXQnZUWmi_bifY3vY1E8gwx11FiMI5sRia7NvzUmS6cURxRS64DZv964V1xvQshySYnoDAownGibR8rR5GaYwXDr52xfYf54m-TODppGueVMW-xuP8c-4QKQAktYMjN1E6ge2FlqQZAjdbo_D9NFLLezj2hnv3lw16S9RdWnkvAoJhDxAFf-f6i1nsb4AbwS3hy80t9GhDIs5Xfv7A8GlxayKodeQmZARVuCl3ulFMdGQr1HMgcsB1Z1qUf7gHmqofP2CvutiI6avdguTm6bRSnNn6DAy0XjJULgxcwEyThbtwabg8D5E-HJSbDwrl1e_q9vYoChS6tX5GfY9hQi-wrClu-JacejAK21D8oLndMyLpC8-uQN4pVl_d4x2XamHVuYKbZC5D-xRGGcbXporCGoD8WgSsuifskChGCRXV9D-Xg1rn4zNak00xpeRCClXHifpotXZxMDr3nYnIROKp2kxX0sqLRKjfGDAMXijrFHapWhqnQBScmSq2h2deC5LjQwVZEWe-C8PdUZ4XGRJoxvib3cWSsXXwdFwGo63rGavVHom8I0-25jdUWaeltNRz7vtPCH_JPyVhCNpdzNhVmS7lyXDXscOJ9BbkybE0Cd5bO_0F?></g></svg>