<?plantuml 1.2026.1?><svg xmlns="http://www.w3.org/2000/svg" xmlns:xlink="http://www.w3.org/1999/xlink" contentStyleType="text/css" data-diagram-type="DESCRIPTION" height="1396px" preserveAspectRatio="none" style="width:652px;height:1396px;background:#FFFFFF;" version="1.1" viewBox="0 0 652 1396" width="652px" zoomAndPan="magnify"><title>Research Lifecycle &#8212; From Bars to Experiments (a42229d)</title><defs/><g><g class="title" data-source-line="1"><text fill="#000000" font-family="sans-serif" font-size="14" font-weight="bold" lengthAdjust="spacing" textLength="324.1191" x="156.9404" y="24.5332">Research Lifecycle &#8212; From Bars to Experiments</text></g><!--cluster Data & features--><g class="cluster" data-qualified-name="Data . features" data-source-line="5" id="ent0003"><path d="M218.5,132.8294 L322.2031,132.8294 A3.75,3.75 0 0 1 324.7031,135.3294 L331.7031,156.4388 L415.5,156.4388 A2.5,2.5 0 0 1 418,158.9388 L418,355.1594 A2.5,2.5 0 0 1 415.5,357.6594 L218.5,357.6594 A2.5,2.5 0 0 1 216,355.1594 L216,135.3294 A2.5,2.5 0 0 1 218.5,132.8294" fill="none" style="stroke:#000000;stroke-width:1.5;"/><line style="stroke:#000000;stroke-width:1.5;" x1="216" x2="331.7031" y1="156.4388" y2="156.4388"/><text fill="#000000" font-family="sans-serif" font-size="14" font-weight="bold" lengthAdjust="spacing" textLength="102.7031" x="220" y="149.3626">Data &amp; features</text></g><!--cluster Modeling--><g class="cluster" data-qualified-name="Modeling" data-source-line="12" id="ent0008"><path d="M19.5,381.6594 L81.9346,381.6594 A3.75,3.75 0 0 1 84.4346,384.1594 L91.4346,405.2687 L642.5,405.2687 A2.5,2.5 0 0 1 645,407.7687 L645,621.5994 A2.5,2.5 0 0 1 642.5,624.0994 L19.5,624.0994 A2.5,2.5 0 0 1 17,621.5994 L17,384.1594 A2.5,2.5 0 0 1 19.5,381.6594" fill="none" style="stroke:#000000;stroke-width:1.5;"/><line style="stroke:#000000;stroke-width:1.5;" x1="17" x2="91.4346" y1="405.2687" y2="405.2687"/><text fill="#000000" font-family="sans-serif" font-size="14" font-weight="bold" lengthAdjust="spacing" textLength="61.4346" x="21" y="398.1926">Modeling</text></g><!--cluster Portfolio--><g class="cluster" data-qualified-name="Portfolio" data-source-line="23" id="ent0017"><path d="M19.5,648.0994 L78.0449,648.0994 A3.75,3.75 0 0 1 80.5449,650.5994 L87.5449,671.7088 L192.5,671.7088 A2.5,2.5 0 0 1 195,674.2088 L195,995.6394 A2.5,2.5 0 0 1 192.5,998.1394 L19.5,998.1394 A2.5,2.5 0 0 1 17,995.6394 L17,650.5994 A2.5,2.5 0 0 1 19.5,648.0994" fill="none" style="stroke:#000000;stroke-width:1.5;"/><line style="stroke:#000000;stroke-width:1.5;" x1="17" x2="87.5449" y1="671.7088" y2="671.7088"/><text fill="#000000" font-family="sans-serif" font-size="14" font-weight="bold" lengthAdjust="spacing" textLength="57.5449" x="21" y="664.6326">Portfolio</text></g><!--cluster Governance--><g class="cluster" data-qualified-name="Governance" data-source-line="32" id="ent0024"><path d="M8.5,1022.1394 L90.4238,1022.1394 A3.75,3.75 0 0 1 92.9238,1024.6394 L99.9238,1045.7488 L205.5,1045.7488 A2.5,2.5 0 0 1 208,1048.2488 L208,1387.2994 A2.5,2.5 0 0 1 205.5,1389.7994 L8.5,1389.7994 A2.5,2.5 0 0 1 6,1387.2994 L6,1024.6394 A2.5,2.5 0 0 1 8.5,1022.1394" fill="none" style="stroke:#000000;stroke-width:1.5;"/><line style="stroke:#000000;stroke-width:1.5;" x1="6" x2="99.9238" y1="1045.7488" y2="1045.7488"/><text fill="#000000" font-family="sans-serif" font-size="14" font-weight="bold" lengthAdjust="spacing" textLength="80.9238" x="10" y="1038.6726">Governance</text></g><!--entity Load--><g class="entity" data-qualified-name="Data . features.Load" data-source-line="6" id="ent0004"><rect fill="#F1F1F1" height="47.6094" rx="2.5" ry="2.5" style="stroke:#181818;stroke-width:0.5;" width="141.9512" x="246.02" y="168.8294"/><rect fill="#F1F1F1" height="10" style="stroke:#181818;stroke-width:0.5;" width="15" x="367.9712" y="173.8294"/><rect fill="#F1F1F1" height="2" style="stroke:#181818;stroke-width:0.5;" width="4" x="365.9712" y="175.8294"/><rect fill="#F1F1F1" height="2" style="stroke:#181818;stroke-width:0.5;" width="4" x="365.9712" y="179.8294"/><text fill="#000000" font-family="sans-serif" font-size="14" lengthAdjust="spacing" textLength="101.9512" x="261.02" y="203.3626">data.load_bars()</text></g><!--entity Feat--><g class="entity" data-qualified-name="Data . features.Feat" data-source-line="7" id="ent0005"><rect fill="#F1F1F1" height="65.2188" rx="2.5" ry="2.5" style="stroke:#181818;stroke-width:0.5;" width="169.1445" x="232.43" y="276.4394"/><rect fill="#F1F1F1" height="10" style="stroke:#181818;stroke-width:0.5;" width="15" x="381.5745" y="281.4394"/><rect fill="#F1F1F1" height="2" style="stroke:#181818;stroke-width:0.5;" width="4" x="379.5745" y="283.4394"/><rect fill="#F1F1F1" height="2" style="stroke:#181818;stroke-width:0.5;" width="4" x="379.5745" y="287.4394"/><text fill="#000000" font-family="sans-serif" font-size="14" lengthAdjust="spacing" textLength="50.5859" x="247.43" y="310.9726">features</text><text fill="#000000" font-family="sans-serif" font-size="14" lengthAdjust="spacing" textLength="129.1445" x="247.43" y="328.582">(returns, vol, regime)</text></g><!--entity Factors--><g class="entity" data-qualified-name="Modeling.Factors" data-source-line="13" id="ent0009"><rect fill="#F1F1F1" height="65.2188" rx="2.5" ry="2.5" style="stroke:#181818;stroke-width:0.5;" width="145.7998" x="33.1" y="417.6594"/><rect fill="#F1F1F1" height="10" style="stroke:#181818;stroke-width:0.5;" width="15" x="158.8998" y="422.6594"/><rect fill="#F1F1F1" height="2" style="stroke:#181818;stroke-width:0.5;" width="4" x="156.8998" y="424.6594"/><rect fill="#F1F1F1" height="2" style="stroke:#181818;stroke-width:0.5;" width="4" x="156.8998" y="428.6594"/><text fill="#000000" font-family="sans-serif" font-size="14" lengthAdjust="spacing" textLength="42.0137" x="48.1" y="452.1926">factors</text><text fill="#000000" font-family="sans-serif" font-size="14" lengthAdjust="spacing" textLength="105.7998" x="48.1" y="469.802">(multifactor OLS)</text></g><!--entity CS--><g class="entity" data-qualified-name="Modeling.CS" data-source-line="14" id="ent0010"><rect fill="#F1F1F1" height="65.2188" rx="2.5" ry="2.5" style="stroke:#181818;stroke-width:0.5;" width="206.4893" x="213.76" y="417.6594"/><rect fill="#F1F1F1" height="10" style="stroke:#181818;stroke-width:0.5;" width="15" x="400.2493" y="422.6594"/><rect fill="#F1F1F1" height="2" style="stroke:#181818;stroke-width:0.5;" width="4" x="398.2493" y="424.6594"/><rect fill="#F1F1F1" height="2" style="stroke:#181818;stroke-width:0.5;" width="4" x="398.2493" y="428.6594"/><text fill="#000000" font-family="sans-serif" font-size="14" lengthAdjust="spacing" textLength="63.7998" x="228.76" y="452.1926">cs_factors</text><text fill="#000000" font-family="sans-serif" font-size="14" lengthAdjust="spacing" textLength="166.4893" x="228.76" y="469.802">(size, liquidity, momentum)</text></g><!--entity Sig--><g class="entity" data-qualified-name="Modeling.Sig" data-source-line="15" id="ent0011"><rect fill="#F1F1F1" height="65.2188" rx="2.5" ry="2.5" style="stroke:#181818;stroke-width:0.5;" width="113.9238" x="49.04" y="542.8794"/><rect fill="#F1F1F1" height="10" style="stroke:#181818;stroke-width:0.5;" width="15" x="142.9638" y="547.8794"/><rect fill="#F1F1F1" height="2" style="stroke:#181818;stroke-width:0.5;" width="4" x="140.9638" y="549.8794"/><rect fill="#F1F1F1" height="2" style="stroke:#181818;stroke-width:0.5;" width="4" x="140.9638" y="553.8794"/><text fill="#000000" font-family="sans-serif" font-size="14" lengthAdjust="spacing" textLength="43.5791" x="64.04" y="577.4126">signals</text><text fill="#000000" font-family="sans-serif" font-size="14" lengthAdjust="spacing" textLength="73.9238" x="64.04" y="595.022">(detect, log)</text></g><!--entity Reg--><g class="entity" data-qualified-name="Modeling.Reg" data-source-line="16" id="ent0012"><rect fill="#F1F1F1" height="65.2188" rx="2.5" ry="2.5" style="stroke:#181818;stroke-width:0.5;" width="173.8408" x="455.08" y="417.6594"/><rect fill="#F1F1F1" height="10" style="stroke:#181818;stroke-width:0.5;" width="15" x="608.9208" y="422.6594"/><rect fill="#F1F1F1" height="2" style="stroke:#181818;stroke-width:0.5;" width="4" x="606.9208" y="424.6594"/><rect fill="#F1F1F1" height="2" style="stroke:#181818;stroke-width:0.5;" width="4" x="606.9208" y="428.6594"/><text fill="#000000" font-family="sans-serif" font-size="14" lengthAdjust="spacing" textLength="49.793" x="470.08" y="452.1926">regimes</text><text fill="#000000" font-family="sans-serif" font-size="14" lengthAdjust="spacing" textLength="133.8408" x="470.08" y="469.802">(dispersion, vol, beta)</text></g><!--entity Opt--><g class="entity" data-qualified-name="Portfolio.Opt" data-source-line="24" id="ent0018"><rect fill="#F1F1F1" height="65.2188" rx="2.5" ry="2.5" style="stroke:#181818;stroke-width:0.5;" width="145.0273" x="33.49" y="684.0994"/><rect fill="#F1F1F1" height="10" style="stroke:#181818;stroke-width:0.5;" width="15" x="158.5173" y="689.0994"/><rect fill="#F1F1F1" height="2" style="stroke:#181818;stroke-width:0.5;" width="4" x="156.5173" y="691.0994"/><rect fill="#F1F1F1" height="2" style="stroke:#181818;stroke-width:0.5;" width="4" x="156.5173" y="695.0994"/><text fill="#000000" font-family="sans-serif" font-size="14" lengthAdjust="spacing" textLength="56.793" x="48.49" y="718.6326">optimizer</text><text fill="#000000" font-family="sans-serif" font-size="14" lengthAdjust="spacing" textLength="105.0273" x="48.49" y="736.242">(QP, constraints)</text></g><!--entity WF--><g class="entity" data-qualified-name="Portfolio.WF" data-source-line="25" id="ent0019"><rect fill="#F1F1F1" height="65.2188" rx="2.5" ry="2.5" style="stroke:#181818;stroke-width:0.5;" width="136.4756" x="38.76" y="809.3194"/><rect fill="#F1F1F1" height="10" style="stroke:#181818;stroke-width:0.5;" width="15" x="155.2356" y="814.3194"/><rect fill="#F1F1F1" height="2" style="stroke:#181818;stroke-width:0.5;" width="4" x="153.2356" y="816.3194"/><rect fill="#F1F1F1" height="2" style="stroke:#181818;stroke-width:0.5;" width="4" x="153.2356" y="820.3194"/><text fill="#000000" font-family="sans-serif" font-size="14" lengthAdjust="spacing" textLength="82.4756" x="53.76" y="843.8526">walk_forward</text><text fill="#000000" font-family="sans-serif" font-size="14" lengthAdjust="spacing" textLength="96.4756" x="53.76" y="861.462">(train/test folds)</text></g><!--entity Metrics--><g class="entity" data-qualified-name="Portfolio.Metrics" data-source-line="26" id="ent0020"><rect fill="#F1F1F1" height="47.6094" rx="2.5" ry="2.5" style="stroke:#181818;stroke-width:0.5;" width="141.1377" x="36.43" y="934.5294"/><rect fill="#F1F1F1" height="10" style="stroke:#181818;stroke-width:0.5;" width="15" x="157.5677" y="939.5294"/><rect fill="#F1F1F1" height="2" style="stroke:#181818;stroke-width:0.5;" width="4" x="155.5677" y="941.5294"/><rect fill="#F1F1F1" height="2" style="stroke:#181818;stroke-width:0.5;" width="4" x="155.5677" y="945.5294"/><text fill="#000000" font-family="sans-serif" font-size="14" lengthAdjust="spacing" textLength="101.1377" x="51.43" y="969.0626">backtest metrics</text></g><!--entity ExpStore--><g class="entity" data-qualified-name="Governance.ExpStore" data-source-line="33" id="ent0025"><rect fill="#F1F1F1" height="65.2188" rx="2.5" ry="2.5" style="stroke:#181818;stroke-width:0.5;" width="151.2617" x="31.37" y="1058.1394"/><rect fill="#F1F1F1" height="10" style="stroke:#181818;stroke-width:0.5;" width="15" x="162.6317" y="1063.1394"/><rect fill="#F1F1F1" height="2" style="stroke:#181818;stroke-width:0.5;" width="4" x="160.6317" y="1065.1394"/><rect fill="#F1F1F1" height="2" style="stroke:#181818;stroke-width:0.5;" width="4" x="160.6317" y="1069.1394"/><text fill="#000000" font-family="sans-serif" font-size="14" lengthAdjust="spacing" textLength="108.165" x="46.37" y="1092.6726">experiment_store</text><text fill="#000000" font-family="sans-serif" font-size="14" lengthAdjust="spacing" textLength="111.2617" x="46.37" y="1110.282">(SQLite/Postgres)</text></g><!--entity Meta--><g class="entity" data-qualified-name="Governance.Meta" data-source-line="34" id="ent0026"><rect fill="#F1F1F1" height="65.2188" rx="2.5" ry="2.5" style="stroke:#181818;stroke-width:0.5;" width="150.4961" x="31.75" y="1183.3594"/><rect fill="#F1F1F1" height="10" style="stroke:#181818;stroke-width:0.5;" width="15" x="162.2461" y="1188.3594"/><rect fill="#F1F1F1" height="2" style="stroke:#181818;stroke-width:0.5;" width="4" x="160.2461" y="1190.3594"/><rect fill="#F1F1F1" height="2" style="stroke:#181818;stroke-width:0.5;" width="4" x="160.2461" y="1194.3594"/><text fill="#000000" font-family="sans-serif" font-size="14" lengthAdjust="spacing" textLength="82.4961" x="46.75" y="1217.8926">run metadata</text><text fill="#000000" font-family="sans-serif" font-size="14" lengthAdjust="spacing" textLength="110.4961" x="46.75" y="1235.502">(hypothesis, tags)</text></g><!--entity Gov--><g class="entity" data-qualified-name="Governance.Gov" data-source-line="37" id="ent0029"><rect fill="#F1F1F1" height="65.2188" rx="2.5" ry="2.5" style="stroke:#181818;stroke-width:0.5;" width="169.9648" x="22.02" y="1308.5794"/><rect fill="#F1F1F1" height="10" style="stroke:#181818;stroke-width:0.5;" width="15" x="171.9848" y="1313.5794"/><rect fill="#F1F1F1" height="2" style="stroke:#181818;stroke-width:0.5;" width="4" x="169.9848" y="1315.5794"/><rect fill="#F1F1F1" height="2" style="stroke:#181818;stroke-width:0.5;" width="4" x="169.9848" y="1319.5794"/><text fill="#000000" font-family="sans-serif" font-size="14" lengthAdjust="spacing" textLength="129.9648" x="37.02" y="1343.1126">governance manifest</text><text fill="#000000" font-family="sans-serif" font-size="14" lengthAdjust="spacing" textLength="107.3857" x="37.02" y="1360.722">(git, env, hashes)</text></g><!--entity DB--><g class="entity" data-qualified-name="DB" data-source-line="3" id="ent0002"><path d="M264.98,54.6094 C264.98,44.6094 316.9971,44.6094 316.9971,44.6094 C316.9971,44.6094 369.0142,44.6094 369.0142,54.6094 L369.0142,98.8281 C369.0142,108.8281 316.9971,108.8281 316.9971,108.8281 C316.9971,108.8281 264.98,108.8281 264.98,98.8281 L264.98,54.6094" fill="#F1F1F1" style="stroke:#181818;stroke-width:0.5;"/><path d="M264.98,54.6094 C264.98,64.6094 316.9971,64.6094 316.9971,64.6094 C316.9971,64.6094 369.0142,64.6094 369.0142,54.6094" fill="none" style="stroke:#181818;stroke-width:0.5;"/><text fill="#000000" font-family="sans-serif" font-size="14" lengthAdjust="spacing" textLength="42.7998" x="274.98" y="83.1426">SQLite</text><text fill="#000000" font-family="sans-serif" font-size="14" lengthAdjust="spacing" textLength="84.0342" x="274.98" y="100.752">(bars_*, spot)</text></g><g class="entity" data-qualified-name="GMN31" data-source-line="42" id="ent0032"><path d="M210.92,812.3994 L210.92,837.9294 L175.49,841.9294 L210.92,845.9294 L210.92,871.4541 A0,0 0 0 0 210.92,871.4541 L359.0826,871.4541 A0,0 0 0 0 359.0826,871.4541 L359.0826,822.3994 L349.0826,812.3994 L210.92,812.3994 A0,0 0 0 0 210.92,812.3994" fill="#FEFFDD" style="stroke:#181818;stroke-width:0.5;"/><path d="M349.0826,812.3994 L349.0826,822.3994 L359.0826,822.3994 L349.0826,812.3994" fill="#FEFFDD" style="stroke:#181818;stroke-width:0.5;"/><text fill="#000000" font-family="sans-serif" font-size="13" lengthAdjust="spacing" textLength="86.6899" x="216.92" y="830.8945">Strict train/test.</text><text fill="#000000" font-family="sans-serif" font-size="13" lengthAdjust="spacing" textLength="83.8398" x="216.92" y="847.2461">No lookahead.</text><text fill="#000000" font-family="sans-serif" font-size="13" lengthAdjust="spacing" textLength="127.1626" x="216.92" y="863.5976">DSR, PBO, bootstrap.</text></g><!--link DB to Load--><g class="link" data-entity-1="ent0002" data-entity-2="ent0004" data-link-type="dependency" data-source-line="8" id="lnk6"><path d="M317,109.1494 C317,127.9894 317,145.5194 317,162.6194" fill="none" id="DB-to-Load" style="stroke:#181818;stroke-width:1;"/><polygon fill="#181818" points="317,168.6194,321,159.6194,317,163.6194,313,159.6194,317,168.6194" style="stroke:#181818;stroke-width:1;"/></g><!--link Load to Feat--><g class="link" data-entity-1="ent0004" data-entity-2="ent0005" data-link-type="dependency" data-source-line="9" id="lnk7"><path d="M317,216.7894 C317,233.8994 317,251.3894 317,270.2594" fill="none" id="Load-to-Feat" style="stroke:#181818;stroke-width:1;"/><polygon fill="#181818" points="317,276.2594,321,267.2594,317,271.2594,313,267.2594,317,276.2594" style="stroke:#181818;stroke-width:1;"/></g><!--link Feat to Factors--><g class="link" data-entity-1="ent0005" data-entity-2="ent0009" data-link-type="dependency" data-source-line="17" id="lnk13"><path d="M249.89,342.0594 C231.94,351.4994 212.85,362.3494 196,373.6594 C176.69,386.6294 161.2392,399.0813 145.0392,413.3013" fill="none" id="Feat-to-Factors" style="stroke:#181818;stroke-width:1;"/><polygon fill="#181818" points="140.53,417.2594,149.9326,414.3284,144.2877,413.9609,144.6551,408.316,140.53,417.2594" style="stroke:#181818;stroke-width:1;"/></g><!--link Feat to CS--><g class="link" data-entity-1="ent0005" data-entity-2="ent0010" data-link-type="dependency" data-source-line="18" id="lnk14"><path d="M317,341.9894 C317,364.6294 317,388.8694 317,411.4794" fill="none" id="Feat-to-CS" style="stroke:#181818;stroke-width:1;"/><polygon fill="#181818" points="317,417.4794,321,408.4794,317,412.4794,313,408.4794,317,417.4794" style="stroke:#181818;stroke-width:1;"/></g><!--link Factors to Sig--><g class="link" data-entity-1="ent0009" data-entity-2="ent0011" data-link-type="dependency" data-source-line="19" id="lnk15"><path d="M106,483.3194 C106,501.5794 106,518.3694 106,536.5994" fill="none" id="Factors-to-Sig" style="stroke:#181818;stroke-width:1;"/><polygon fill="#181818" points="106,542.5994,110,533.5994,106,537.5994,102,533.5994,106,542.5994" style="stroke:#181818;stroke-width:1;"/></g><!--link Feat to Reg--><g class="link" data-entity-1="ent0005" data-entity-2="ent0012" data-link-type="dependency" data-source-line="20" id="lnk16"><path d="M382.02,342.0294 C400.42,351.6694 420.26,362.6294 438,373.6594 C459.42,386.9794 477.3875,399.6727 496.1475,413.7227" fill="none" id="Feat-to-Reg" style="stroke:#181818;stroke-width:1;"/><polygon fill="#181818" points="500.95,417.3194,496.1441,408.7227,496.948,414.3221,491.3485,415.1259,500.95,417.3194" style="stroke:#181818;stroke-width:1;"/></g><!--link Sig to Opt--><g class="link" data-entity-1="ent0011" data-entity-2="ent0018" data-link-type="dependency" data-source-line="27" id="lnk21"><path d="M106,608.4294 C106,631.0694 106,655.3094 106,677.9194" fill="none" id="Sig-to-Opt" style="stroke:#181818;stroke-width:1;"/><polygon fill="#181818" points="106,683.9194,110,674.9194,106,678.9194,102,674.9194,106,683.9194" style="stroke:#181818;stroke-width:1;"/></g><!--link Opt to WF--><g class="link" data-entity-1="ent0018" data-entity-2="ent0019" data-link-type="dependency" data-source-line="28" id="lnk22"><path d="M106.26,749.7594 C106.41,768.0094 106.5406,784.7996 106.6906,803.0296" fill="none" id="Opt-to-WF" style="stroke:#181818;stroke-width:1;"/><polygon fill="#181818" points="106.74,809.0294,110.6658,799.9968,106.6989,804.0295,102.6661,800.0626,106.74,809.0294" style="stroke:#181818;stroke-width:1;"/></g><!--link WF to Metrics--><g class="link" data-entity-1="ent0019" data-entity-2="ent0020" data-link-type="dependency" data-source-line="29" id="lnk23"><path d="M107,874.7994 C107,893.7094 107,911.2494 107,928.3394" fill="none" id="WF-to-Metrics" style="stroke:#181818;stroke-width:1;"/><polygon fill="#181818" points="107,934.3394,111,925.3394,107,929.3394,103,925.3394,107,934.3394" style="stroke:#181818;stroke-width:1;"/></g><!--link Metrics to ExpStore--><g class="link" data-entity-1="ent0020" data-entity-2="ent0025" data-link-type="dependency" data-source-line="35" id="lnk27"><path d="M107,982.3494 C107,1003.2694 107,1028.3294 107,1051.6694" fill="none" id="Metrics-to-ExpStore" style="stroke:#181818;stroke-width:1;"/><polygon fill="#181818" points="107,1057.6694,111,1048.6694,107,1052.6694,103,1048.6694,107,1057.6694" style="stroke:#181818;stroke-width:1;"/></g><!--link ExpStore to Meta--><g class="link" data-entity-1="ent0025" data-entity-2="ent0026" data-link-type="dependency" data-source-line="36" id="lnk28"><path d="M107,1123.8094 C107,1142.0594 107,1158.8494 107,1177.0794" fill="none" id="ExpStore-to-Meta" style="stroke:#181818;stroke-width:1;"/><polygon fill="#181818" points="107,1183.0794,111,1174.0794,107,1178.0794,103,1174.0794,107,1183.0794" style="stroke:#181818;stroke-width:1;"/></g><!--link Meta to Gov--><g class="link" data-entity-1="ent0026" data-entity-2="ent0029" data-link-type="dependency" data-source-line="38" id="lnk30"><path d="M107,1249.0194 C107,1267.2794 107,1284.0694 107,1302.2994" fill="none" id="Meta-to-Gov" style="stroke:#181818;stroke-width:1;"/><polygon fill="#181818" points="107,1308.2994,111,1299.2994,107,1303.2994,103,1299.2994,107,1308.2994" style="stroke:#181818;stroke-width:1;"/></g><?plantuml-src PLF1ajem3BtdApGSEjjEbls37YXBBsnXoM4ldM548X8FYPNQWYtjTAOVqI_ibrIsWINbabZsUqzFiYn6Me8LUK9NDZ0tMogFfMxz_Vq7PeuxcA3p80oFttjofYChFiig5DoW9nWLptCZzDNURHIt_f23xrdUZm0zJ2TPrcEvmrfnKsN0EzWIojwH7y7F3A3ahcUhaZ0AYkEMiLe7eRkaCDTu23lpDQ4ZNLcVmu7R71pLQYxHPWfIsdG2z_SVpoBX5-Du-klAsXDNr1fRttZQOYdiGgvktuf98IpcnIbDEXvoIhz-etdpWt9epRUzgOmSS-WuD73V9O5FnP3hJMsn3SIAX4fHAjS9MfXwY4trHgpnUZFUi3srOaE2YRMYm0e5fyelXYzRqS9fFswaH9Vpe73TgoKxsN9h-APPt8lfj5wdbfwNkHvPBmwDpaioi-Xbo7Z5ThVUidj5LoafWX-4l81cg4wibzcGj54d4TEHE5Fw27fAQqMg_UWx9TDlZAB8oookpzZhgZxpWPn5Mz9DMNGP-xNN9eL9JoF_i6GljOvYygdFemZd_ztItWQZ6APRcSrH7qT3tkZK2jOdgZf2fPsCHPDNQkVbsJmECzGNwz2XrUVhHHFLHeU7x2671drpzgXbfZmOnKAeNR0i1CxKZG1lKwkAu4JWxKR6klc5THnvXmrX5U9fiSfXELdem35BkEj-d96j80Xc_m00?></g></svg>